<?xml version="1.0" encoding="UTF-8"?>
<svg xmlns="http://www.w3.org/2000/svg" id="a" width="865.76" height="682.89" viewBox="0 0 865.76 682.89">
  <g>
    <g>
      <circle cx="193.21" cy="122.7" r="14.5" fill="#002346"></circle>
      <path d="M193.21,137.7c-8.27,0-15-6.73-15-15s6.73-15,15-15,15,6.73,15,15-6.73,15-15,15Zm0-29c-7.72,0-14,6.28-14,14s6.28,14,14,14,14-6.28,14-14-6.28-14-14-14Z" fill="#002346"></path>
    </g>
    <g>
      <path d="M640.06,153.17l-10.72-14.64,1.47-1.09c2.01-1.55,4.26-2.77,6.66-3.59,1.98-.57,4.05-.77,6.11-.58,4.15,.58,8.25,1.43,12.28,2.56,3.23,.83,5.54,.73,7-.3,1.28-.83,2.14-2.16,2.38-3.66,.06-1.71-.53-3.38-1.67-4.66-1.19-1.73-3.04-2.89-5.12-3.2-2.08-.3-4.75,.47-8,2.33l-9.11-16.3c5.23-3.38,11.52-4.7,17.66-3.72,5.91,1.03,11.5,5.14,16.77,12.31,4.09,5.62,6.23,11,6.42,16.13,.54,6.37-2.31,12.56-7.51,16.28-2.21,1.61-4.82,2.59-7.54,2.83-4.36,.09-8.71-.57-12.85-1.95-2.75-.93-5.65-1.37-8.55-1.29-2.07,.36-4.03,1.24-5.68,2.54h0Zm-15-12.28l11.49,15.68-13.83,10.12-11.47-15.66,13.81-10.14Z" fill="#fff"></path>
      <path d="M180.38,221.75l-23,5.41-.53-2.29c-.87-3.21-1.18-6.54-.92-9.86,.32-2.66,1.12-5.24,2.38-7.6,2.81-4.68,5.93-9.16,9.32-13.44,2.67-3.44,3.73-6.26,3.18-8.47-.33-1.96-1.49-3.67-3.18-4.71-1.99-.97-4.28-1.13-6.39-.45-2.68,.54-5.01,2.18-6.44,4.51-1.43,2.35-1.85,5.93-1.27,10.77l-24.08,2.56c-1.4-7.95,.17-16.14,4.42-23,4.22-6.58,12-11.2,23.33-13.85,8.79-2.08,16.32-1.92,22.59,.48,8.5,3.23,13.73,8.99,15.68,17.26,.81,3.51,.64,7.17-.5,10.59-1.11,3.63-4.06,8.44-8.87,14.42-3.33,4.19-5.29,7.38-5.88,9.58-.63,2.67-.57,5.45,.16,8.09h0Zm-22.34,11.68l24.63-5.8,5.05,21.71-24.52,5.71-5.16-21.62h0Z" fill="#ebebeb"></path>
      <g>
        <path d="M329.04,183.58c-9.8,10.7-38.93,46.61-53.68,109.23-.7,2.97,.84,6.01,3.65,7.2l60.48,25.59c3.17,1.35,6.84-.12,8.19-3.29,0,0,0-.02,.01-.03,7.89-18.65,33.5-77.47,51.94-100.05,2.18-2.68,1.77-6.61-.91-8.79-.36-.29-.75-.54-1.16-.75l-61.12-30.49c-2.5-1.24-5.52-.68-7.4,1.38h0Z" fill="#fff"></path>
        <path d="M341.94,326.6c-.9,0-1.79-.18-2.64-.54l-60.48-25.59c-3.04-1.29-4.69-4.56-3.94-7.77,14.92-63.35,44.95-99.79,53.8-109.45h0c2.02-2.21,5.31-2.83,7.99-1.49l61.12,30.49c.44,.22,.87,.49,1.25,.81,2.89,2.35,3.33,6.61,.98,9.5-18.47,22.62-44.37,82.2-51.87,99.93-.72,1.69-2.03,2.97-3.7,3.64-.81,.33-1.66,.49-2.51,.49v-.02Zm-8.27-144.55c-1.58,0-3.15,.65-4.26,1.87h0c-8.81,9.62-38.7,45.89-53.56,109.01-.64,2.74,.77,5.52,3.36,6.62l60.48,25.59c1.41,.6,2.97,.62,4.39,.05s2.54-1.66,3.14-3.07c7.52-17.78,33.47-77.48,52.02-100.2,2-2.46,1.62-6.09-.83-8.09-.33-.27-.69-.5-1.07-.69l-61.12-30.49c-.81-.4-1.68-.6-2.55-.6h0Z" fill="#002346"></path>
      </g>
      <g>
        <path d="M350.44,591.57c-6.39,6.22-16.3,4-16.3,4l-13.94-5.51-3.87-10.93c7.4-1.17,20.47-6.84,20.47-6.84,.5,1.65,1.15,3.25,1.94,4.79,3,5.49,6.96,10.4,11.7,14.49h0Z" fill="#f2b3c1"></path>
        <path d="M338.37,596.47c-2.44,0-4.17-.37-4.34-.41l-14.23-5.62-4.15-11.71,.59-.09c7.25-1.15,20.22-6.75,20.35-6.8l.51-.22,.16,.54c.49,1.62,1.13,3.2,1.91,4.71,2.97,5.45,6.87,10.28,11.58,14.34l.41,.36-.39,.38c-3.86,3.75-8.88,4.54-12.42,4.54l.02-.02Zm-4.05-1.36s9.25,1.97,15.37-3.52c-4.61-4.06-8.45-8.86-11.39-14.26-.72-1.4-1.33-2.86-1.81-4.35-2.44,1.04-12.81,5.35-19.49,6.56l3.6,10.16,13.73,5.43h0v-.02Z" fill="#002346"></path>
      </g>
      <g>
        <path d="M370.44,612.24c-11.77,4.2-14.45,2-14.45,2-9.25-6.56-24.21-7.06-24.21-7.06-1.17,1.85,5.38,17.31,5.38,17.31l-4.87,1.68c-6.72-8.55-11.49-18.47-13.95-29.07-1.14-7.67,1.86-7.04,1.86-7.04l13.95,5.54s9.91,2.19,16.3-4l3.53,2.52c5.54,2.35,20,.84,20,.84,15.12-2,17.64,5.21,17.64,5.21,2.18,5.85-21.18,12.07-21.18,12.07h0Z" fill="#f69074"></path>
        <path d="M332.12,626.76l-.22-.28c-6.73-8.55-11.58-18.67-14.04-29.27-.55-3.68-.25-6.06,.87-7.12,.72-.68,1.5-.54,1.58-.53l14.03,5.56h0s9.65,2.03,15.77-3.89l.3-.29,3.82,2.73c5.39,2.24,19.56,.8,19.7,.78,15.33-2.03,18.06,5.23,18.16,5.54,.29,.77,.22,1.58-.21,2.41-2.73,5.28-20.29,10.04-21.29,10.31-11.68,4.17-14.62,2.15-14.92,1.91-8.2-5.81-21.21-6.8-23.54-6.93-.22,1.74,2.57,9.7,5.49,16.6l.21,.49-5.71,1.97h0Zm-12.09-36.22s-.31-.01-.64,.32c-.48,.47-1.18,1.9-.55,6.18,2.4,10.3,7.11,20.18,13.63,28.55l4.03-1.39c-1.75-4.17-6.3-15.44-5.13-17.28l.15-.24h.29c.62,.03,15.22,.59,24.48,7.16,.04,.03,2.83,1.92,13.99-2.06h.04c.18-.06,18.14-4.89,20.68-9.82,.29-.57,.35-1.1,.16-1.61-.03-.08-2.63-6.8-17.11-4.89-.61,.06-14.67,1.5-20.26-.88l-.1-.05-3.19-2.28c-6.51,5.96-16.04,3.93-16.45,3.84l-14.02-5.56h0Z" fill="#002346"></path>
      </g>
      <g>
        <path d="M338.84,571.07c-2.97,1.7-6.08,3.12-9.31,4.25-6.67,2.35-13.5,4.24-20.43,5.66l-26.73-52.77c-.62-1-1.26-2.07-1.93-3.19-13.05-22.08-32.69-64.71-32.69-64.71-.17-.37-.34-.75-.52-1.12-22.4-48.27-26.53-47.11-26.53-47.11-6.22,48.07-21.68,98-21.68,98l-4,71.6c-.04,.23-.09,.46-.15,.69-4.4,18.54-31.95,7.88-31.95,7.88l-1.85-63.53c-1.84-26.72,2.36-45,2.36-45,.46-1.07,.86-2.17,1.2-3.28,1.48-5.35,2.37-10.84,2.66-16.38l-1.34-99.66c-.5-30,7.11-38.2,7.22-38.32h0l33.03-16.65,.8,.33,.42,.17c29.8,12.05,36.41-4.05,36.84-5.18v-.06c2.34,10.18,5,20.55,7.91,30.89v.08c1.77,6.32,3.62,12.63,5.51,18.87l.09,.29c18.52,60.88,41.67,115.44,41.67,115.44l39,88.91c5.28,10.2,.4,13.9,.4,13.9h0Z" fill="#fbe493"></path>
        <path d="M178.76,593.82c-7.89,0-15.57-2.92-16.02-3.1l-.31-.12-1.86-63.86c-1.82-26.47,2.33-44.94,2.37-45.13,.48-1.14,.88-2.23,1.21-3.31,1.46-5.29,2.35-10.76,2.64-16.26l-1.34-99.63c-.5-29.79,7.03-38.32,7.35-38.66l.14-.11,33.23-16.75,1.43,.59c11.88,4.8,21.41,5.71,28.33,2.69,5.55-2.42,7.5-6.7,7.82-7.5v-4.31l.99,4.24c2.31,10.07,4.97,20.45,7.9,30.87l.02,.14c1.66,5.93,3.51,12.27,5.49,18.8l.09,.29c18.3,60.16,41.42,114.85,41.65,115.39l39,88.9c5.4,10.42,.46,14.34,.24,14.5l-.05,.04c-2.99,1.71-6.15,3.15-9.39,4.29-6.67,2.35-13.57,4.26-20.5,5.68l-.37,.08-.17-.34-26.73-52.77c-.58-.93-1.2-1.97-1.85-3.05l-.07-.11c-12.92-21.85-32.52-64.33-32.72-64.76l-.12-.25c-.13-.29-.26-.57-.4-.86-17.99-38.77-24.14-45.45-25.67-46.6-6.12,46.62-20.98,95.37-21.59,97.36l-4,71.54c-.05,.3-.1,.55-.17,.79-1.01,4.27-3.32,7.39-6.87,9.25-2.91,1.53-6.34,2.07-9.73,2.07l.03-.03Zm-15.35-3.92c2.24,.81,16.07,5.46,24.61,.96,3.27-1.72,5.41-4.62,6.36-8.6,.06-.22,.11-.44,.14-.66l4-71.6,.02-.06c.15-.5,15.52-50.44,21.66-97.92l.04-.33,.32-.09c2.15-.61,10.47,11.51,27.12,47.38,.14,.28,.27,.58,.41,.87l.12,.25c.2,.43,19.78,42.86,32.67,64.66l.06,.11c.64,1.08,1.26,2.11,1.86,3.07l26.58,52.47c6.76-1.4,13.48-3.27,19.99-5.56,3.18-1.11,6.27-2.52,9.19-4.19,.38-.31,4.3-3.86-.56-13.25l-39.01-88.94c-.23-.55-23.38-55.29-41.69-115.5l-.09-.29c-1.98-6.54-3.84-12.89-5.51-18.88l-.02-.13c-2.78-9.88-5.33-19.79-7.57-29.42-1,1.8-3.26,4.87-7.77,6.83-7.17,3.13-16.97,2.23-29.1-2.68l-1.01-.41-32.74,16.5c-.75,.87-7.5,9.53-7.03,37.91l1.34,99.66c-.29,5.6-1.19,11.15-2.68,16.52-.35,1.13-.76,2.25-1.22,3.34,0,.1-4.13,18.44-2.32,44.77l1.84,63.21h0Z" fill="#002346"></path>
      </g>
      <g>
        <path d="M209.87,310.52s26.14,9.06,34.45-7.88l2.09-39.29-10.76-62h-5.71l-25.38,1,18,54.12-12.69,54.05h0Z" fill="#e6e6e6"></path>
        <path d="M224.7,313.39c-7.9,0-14.85-2.35-14.99-2.4l-.43-.15,.1-.44,12.66-53.91-18.17-54.62,26.05-1.03h6.15l.07,.41,10.77,62.06-2.14,39.54c-4.11,8.38-12.52,10.53-20.07,10.53h0Zm-14.23-3.2c3.39,1.06,25.87,7.39,33.36-7.68l2.08-39.13-10.68-61.53h-5.29l-24.7,.97,17.83,53.62-.03,.14-12.58,53.6h0Z" fill="#002346"></path>
      </g>
      <g>
        <path d="M249.04,165.81s1.07,21.57,7.12,28.8c0,0,13.61,12.27,5.54,26.55,0,0-10.75,16.14,1.52,23.87,0,0-7.5,1.65-12.74-8.92l-24.07-44.19v-8.23l22.63-17.88h0Z" fill="#002346"></path>
        <path d="M262.15,245.61c-2.4,0-8.01-.98-12.12-9.28l-24.12-44.28v-8.6l.19-.15,23.39-18.48,.05,.97c0,.21,1.13,21.49,7,28.5,.09,.07,13.76,12.66,5.59,27.12-.08,.11-5.58,8.5-4.01,15.84,.65,3.06,2.46,5.53,5.36,7.36l1.03,.65-1.19,.26s-.45,.09-1.17,.09h0Zm-35.24-53.82l24.01,44.08c3.74,7.54,8.54,8.69,10.85,8.76-2.45-1.88-4-4.29-4.62-7.18-1.66-7.75,3.9-16.21,4.14-16.57,7.75-13.73-5.33-25.78-5.46-25.9-5.47-6.53-6.94-23.86-7.23-28.18l-21.69,17.14v7.86h0Z" fill="#002346"></path>
      </g>
      <g>
        <path d="M249.37,145.58v19.57c0,12.08-8.51,21.87-19,21.87-1.36,0-2.69-.16-3.97-.48-8.59-2.1-15.03-10.88-15.03-21.39v-19.57c0-12.08,8.51-21.87,19-21.87,5.24,0,10,2.45,13.43,6.41,3.44,3.95,5.57,9.43,5.57,15.46h0Z" fill="#f2b3c1"></path>
        <path d="M230.37,187.52c-1.4,0-2.78-.17-4.09-.5-8.93-2.18-15.41-11.38-15.41-21.87v-19.57c0-12.34,8.75-22.37,19.5-22.37,5.23,0,10.13,2.34,13.81,6.58,3.67,4.21,5.69,9.82,5.69,15.79v19.57c0,12.34-8.75,22.37-19.5,22.37h0Zm0-63.32c-10.2,0-18.5,9.59-18.5,21.37v19.57c0,10.04,6.16,18.83,14.65,20.9,1.24,.31,2.53,.47,3.85,.47,10.2,0,18.5-9.59,18.5-21.37v-19.57c0-5.73-1.93-11.1-5.45-15.13-3.49-4.02-8.12-6.24-13.05-6.24Z" fill="#002346"></path>
      </g>
      <g>
        <path d="M229.94,201.33l-.83,.05v.02l-1.42,.06-9.1,.42-11.48,.52c-3.22-7.62-2.55-13-2.55-13,2.86,0,2.52-28.07,2.52-28.07l4.29-.14v6.83c0,9.13,6.44,16.76,15.03,18.58v5.29c.25,.42,.48,.92,.7,1.47,.48,1.02,.93,2.05,1.33,3.1,.6,1.59,1.1,3.22,1.51,4.87h0Z" fill="#f2b3c1"></path>
        <path d="M206.79,202.92l-.14-.32c-3.23-7.66-2.61-13.03-2.58-13.26l.05-.44h.44c1.44-.59,2.18-14.77,2.02-27.56v-.49l5.29-.17v7.35c0,8.69,6.15,16.29,14.63,18.09l.4,.08v5.56c.22,.39,.44,.85,.66,1.42,.52,1.09,.96,2.12,1.33,3.11,.59,1.56,1.1,3.22,1.53,4.93l.14,.58-2.86,.17-20.93,.96h.02Zm-1.75-13.15c-.08,1.22-.15,5.9,2.41,12.11l21.87-1.02c-.38-1.46-.83-2.88-1.34-4.23-.37-.96-.8-1.96-1.31-3.06-.24-.6-.46-1.06-.68-1.43l-.07-.12v-5.03c-8.73-2.04-15.03-9.96-15.03-18.98v-6.31l-3.29,.11c.04,4.22,.12,25.32-2.28,27.75-.09,.09-.19,.16-.28,.21h0Z" fill="#002346"></path>
      </g>
      <g>
        <path d="M249.27,138.14c-1.18,1.55-2.64,2.85-4.31,3.84-7.89,4.57-16.37-2-16.37-2-.5,5.38-9.91,13.78-9.91,13.78-4,4.87-1,12.61-1,12.61,.48,1,.82,2.06,1,3.15,1.14,6.77-4.19,12-4.19,12-2.79,3.63-3.78,8.33-2.69,12.77-7.06-8.06,0-18.65,0-18.65,3.86-7.23-4.72-9.52-4.72-9.52l-.48,13.06c-.49,10.43-2,10.24-2,10.24l-2.18,.34-16.72,78.06c-7.65,3.11-11.85-2.27-11.85-2.27,6-1.68,4-9.91,4-9.91-3.53,6.21-12.1,7.56-12.1,7.56-33.44,2.52-30.25-14.62-30.25-14.62,20.5,10.08,16.8-18.49,16.8-18.49-1.34-16.64,9.45-19,9.45-19l9.55-22.14c6.1-4.79,9.49-12.25,9.07-20-1.68-20.67,8.22-24.64,8.22-24.64,0,0,.69-22.25,21-28.3l.44-.13c19.94-5.83,22.92,.8,22.92,.8l6.22,6.55c1.57,2.22,4.31,2.51,6.46,2.32,2-.16,3.81,1.18,4.23,3.14,1.34,6.12-.59,9.45-.59,9.45h0Z" fill="#002346"></path>
        <path d="M181.12,269.28c-4.92,0-7.62-3.38-7.66-3.42l-.46-.59,.72-.2c4.12-1.15,4.12-5.81,3.85-8.07-3.9,5.4-11.4,6.64-11.74,6.69-13.86,1.05-23.23-1.07-27.91-6.29-3.74-4.17-2.94-8.72-2.91-8.91l.12-.65,.59,.29c5.06,2.49,9.01,2.77,11.73,.82,6.13-4.39,4.37-18.65,4.35-18.8-1.24-15.45,7.91-18.97,9.58-19.48l9.5-22.04,.1-.08c5.97-4.69,9.29-12.01,8.88-19.58-1.55-19.02,6.54-24.14,8.24-24.99,.19-2.75,2.24-22.76,21.34-28.45l.44-.13c19.14-5.59,23.03,.16,23.47,.99l6.17,6.5c1.5,2.11,4.12,2.34,6.05,2.17,2.25-.18,4.29,1.34,4.76,3.53,1.37,6.24-.56,9.66-.65,9.81l-.04,.05c-1.22,1.6-2.72,2.94-4.45,3.97-6.79,3.93-14.06-.13-16.26-1.57-1.24,5.47-9.57,12.96-9.94,13.29-3.71,4.53-.9,11.98-.87,12.06,.49,1.01,.84,2.11,1.03,3.25,1.17,6.95-4.11,12.22-4.33,12.44-2.67,3.47-3.61,7.97-2.56,12.29l.49,1.99-1.35-1.54c-7.23-8.25-.11-19.15-.04-19.26,.98-1.85,1.18-3.54,.56-4.97-.89-2.07-3.26-3.16-4.38-3.58l-.46,12.39c-.2,4.2-.7,9.44-1.98,10.51-.19,.16-.36,.2-.48,.21l-1.81,.28-16.7,77.98-.25,.1c-1.77,.72-3.36,1-4.77,1h.03Zm-6.38-3.52c1.25,1.21,4.85,3.87,10.53,1.68l16.74-78.13,2.49-.39c.17-.16,1.22-1.44,1.61-9.77l.5-13.68,.61,.16c.17,.05,4.27,1.17,5.65,4.35,.75,1.73,.55,3.71-.61,5.89-.09,.13-5.88,9.01-1.29,16.43-.41-3.94,.69-7.89,3.15-11.09,.1-.1,5.18-5.19,4.09-11.61-.18-1.04-.5-2.06-.96-3.02-.14-.36-3.07-8.11,1.06-13.14,.15-.14,9.32-8.39,9.8-13.51l.08-.91,.72,.56c.08,.06,8.32,6.31,15.81,1.96,1.61-.95,3-2.19,4.14-3.68,.16-.3,1.74-3.5,.52-9.07-.37-1.71-1.98-2.9-3.7-2.75-3.15,.28-5.54-.6-6.91-2.53l-6.27-6.63c-.03-.06-3.18-6.12-22.32-.52l-.44,.13c-19.72,5.87-20.63,27.62-20.64,27.84v.32l-.31,.12c-.1,.04-9.53,4.14-7.91,24.14,.42,7.87-3,15.47-9.16,20.35l-9.6,22.26-.25,.06c-.42,.09-10.35,2.5-9.06,18.47,.08,.59,1.86,14.98-4.76,19.71-2.92,2.09-6.99,1.95-12.11-.42-.06,1.35,.13,4.51,2.75,7.41,3.07,3.41,10.25,7.21,27.04,5.95,.04,0,8.34-1.39,11.7-7.31l.62-1.1,.3,1.23c.02,.08,1.88,8.02-3.6,10.25h0Z" fill="#002346"></path>
      </g>
      <g>
        <path d="M230.11,266.88c-.51,5.71-9.25,23.69-9.25,23.69-1.93,4.03-3.66,8.16-5.18,12.36-6.13,17.06-5.91,28.15-5.91,28.15l-20,.67c-23.36,0-24.7-9.92-24.7-9.92l8-14.92c2.09-3.9,4.38-7.69,6.64-11.5,3.33-5.63,4.96-12.24,5.79-17.36,.68-4.47,.58-9.03-.3-13.47-1.29-6.64-1.63-10.63-1.63-10.63-2-33.45-22.85-43.2-22.85-43.2-22-9.74-41.18-35.63-41.18-35.63-7.97-12.82,1.32-17.75,7.9-19.57,4.75-1.32,9.4-2.97,13.82-5.15l21.14-10.4,.2-.17c2.26-1.78,5.53-1.4,7.32,.86,.36,.45,.64,.97,.83,1.51l5.77,16.29c.84,5.88-5.89,5-5.89,5-3.45,.33-6.66,1.88-9.07,4.37-.48,.71-1.07,1.35-1.74,1.89-1.85,1.38-3.97,2.36-6.22,2.87-.25,.06-.32,.37-.12,.53,11.64,9.54,20.68,13.29,26.91,14.6,6.64,1.42,10.08,.1,10.08,.1l8.58,9.24,16.63,32.77,14.44,37.03h-.01Z" fill="#f69074"></path>
        <path d="M189.79,332.25c-23.54,0-25.15-9.93-25.21-10.35l-.02-.16,.08-.14,8-14.92c1.78-3.31,3.73-6.6,5.61-9.77l1.04-1.75c2.68-4.53,4.61-10.31,5.73-17.19,.67-4.42,.57-8.9-.3-13.29-1.28-6.59-1.63-10.64-1.64-10.68-1.96-32.75-22.36-42.69-22.56-42.79-21.86-9.68-41.18-35.52-41.37-35.78-3.05-4.9-3.9-9.12-2.55-12.57,1.74-4.46,6.79-6.69,10.72-7.78,5.14-1.43,9.63-3.1,13.73-5.11l21.08-10.37,.15-.13c2.48-1.96,6.08-1.54,8.04,.93,.39,.5,.7,1.06,.91,1.66l5.77,16.29c.28,1.86-.08,3.25-1.05,4.22-1.74,1.76-4.83,1.5-5.32,1.45-3.31,.33-6.4,1.82-8.71,4.21-.45,.69-1.07,1.36-1.79,1.93-1.83,1.36-3.85,2.32-6.03,2.88,11.89,9.68,20.9,13.09,26.38,14.25,6.38,1.37,9.77,.13,9.8,.12l.31-.12,8.89,9.6,16.63,32.77,14.5,37.18v.12c-.52,5.74-8.95,23.13-9.31,23.86-1.92,3.99-3.65,8.13-5.16,12.31-6.02,16.76-5.88,27.86-5.88,27.97v.49l-20.48,.69v-.03Zm-24.18-10.34c.3,1.19,3.16,9.34,24.17,9.34l19.5-.65c.04-2.35,.56-12.88,5.94-27.84,1.52-4.21,3.27-8.38,5.2-12.41,.09-.18,8.59-17.72,9.19-23.4l-14.4-36.92-16.58-32.66-8.32-8.96c-1.02,.3-4.4,1.02-10.03-.18-5.63-1.19-14.91-4.7-27.12-14.7-.24-.19-.34-.5-.27-.8,.07-.3,.3-.53,.6-.6,2.2-.5,4.23-1.44,6.04-2.79,.62-.5,1.17-1.09,1.62-1.77,2.54-2.64,5.88-4.25,9.44-4.59h.12s3.04,.37,4.54-1.15c.73-.74,1-1.85,.79-3.28l-5.75-16.19c-.17-.5-.43-.96-.75-1.37-1.61-2.04-4.58-2.38-6.62-.77l-.29,.23-21.14,10.4c-4.15,2.04-8.7,3.74-13.9,5.18-3.71,1.03-8.47,3.11-10.06,7.18-1.23,3.14-.4,7.06,2.45,11.64,.17,.22,19.33,25.86,40.96,35.44,.22,.1,21.15,10.27,23.15,43.63,0,.03,.35,4.03,1.62,10.56,.89,4.51,.99,9.1,.3,13.64-1.14,7-3.11,12.9-5.85,17.54l-1.04,1.75c-1.88,3.17-3.83,6.44-5.59,9.73l-7.91,14.76h0Z" fill="#002346"></path>
      </g>
      <g>
        <path d="M247.08,333.26c-.19-13.62-1.71-27.18-4.54-40.5,0,0-5.37-24.2-3-34.12l2.18-21.34-6.21-21-2.53-12.6-2.32-9.59s17.11,5.89,19.63,18.32l7.4,38.83s.84,13.44,4.87,8.57l14.29-15s11.26,8.4,13.78,13.78c1.09,4.05,.15,8.37-2.52,11.6l-21.51,20.5s-7.23,6.05-17-6.39h0c.03,.14,5.67,25.4,11.14,38.22,.65,1.53,.41,3.29-.63,4.58-1.68,2.11-5.29,4.8-13.03,6.14h0Z" fill="#f69074"></path>
        <path d="M246.59,333.85v-.59c-.2-13.55-1.72-27.15-4.54-40.4-.22-.99-5.37-24.42-3-34.34l2.16-21.18-6.18-20.91-2.54-12.64-2.53-10.46,.86,.3c.71,.24,17.41,6.13,19.96,18.69l7.4,38.84c.23,3.58,1.17,8.74,2.56,9.2,.46,.15,1.04-.38,1.43-.85l14.62-15.35,.36,.27c.46,.35,11.39,8.54,13.93,13.97,1.16,4.28,.18,8.78-2.59,12.13l-21.55,20.54c-.12,.1-2.36,1.94-6.06,1.56-3.45-.36-6.92-2.5-10.33-6.38,1.47,6.3,6.11,25.45,10.64,36.09,.73,1.7,.46,3.65-.7,5.09-1.69,2.12-5.38,4.94-13.33,6.32l-.58,.1h.01Zm-15.22-138.94l2.1,8.67,2.53,12.62,6.23,21.05v.1l-2.19,21.34c-2.33,9.76,2.94,33.72,2.99,33.96,2.79,13.13,4.32,26.59,4.54,40.01,7.25-1.35,10.61-3.92,12.15-5.86,.93-1.15,1.14-2.71,.56-4.07-5.41-12.68-10.94-37.27-11.17-38.31l-.49-2.21,1.38,1.79c3.66,4.67,7.35,7.23,10.97,7.62,3.27,.35,5.3-1.29,5.32-1.31l21.49-20.48c2.52-3.06,3.43-7.22,2.38-11.11-2.16-4.6-11.32-11.77-13.24-13.24l-13.98,14.68c-.83,1.01-1.68,1.4-2.49,1.14-2.54-.83-3.15-8.5-3.25-10.02l-7.39-38.77c-2.11-10.4-14.94-16.21-18.43-17.61h-.01Z" fill="#002346"></path>
      </g>
      <g>
        <path d="M184.06,295.28s8.74,7.56,26.72,7.39c0,0-5.88,14.46-21.51,8.24,0,0-7.07-1.85-5.21-15.63Z" fill="#fff"></path>
        <path d="M196.64,312.96c-2.23,0-4.74-.46-7.55-1.58-.25-.06-7.42-2.1-5.52-16.16l.12-.91,.7,.6c.09,.07,8.8,7.41,26.39,7.27h.75l-.28,.69c-.05,.12-4.25,10.1-14.6,10.1h0Zm-12.19-16.75c-1.38,12.33,4.69,14.14,4.95,14.21,13.24,5.27,19.21-4.47,20.6-7.25-14.81-.04-23.15-5.21-25.55-6.96Z" fill="#002346"></path>
      </g>
      <g>
        <path d="M185.65,606.8h0c-.39-1.57-.53-3.19-.43-4.8v-9.58c-.42,.13-8.71,2.74-21.24-1.93l-.12,8.72h0l.12-8.73-.26,17.72s10.25,8.74,15.63,11.93c0,0,7.06,2.2,12.78-1,0,0-4.93-5.7-6.48-12.33h0Z" fill="#f2b3c1"></path>
        <path d="M184.81,621.38c-3.08,0-5.44-.72-5.61-.77l-.11-.05c-5.36-3.18-15.28-11.62-15.7-11.98l-.18-.15,.27-18.65,.67,.25c11.97,4.46,20.03,2.2,20.91,1.92l.65-.2v10.26c-.1,1.46,0,2.9,.32,4.3l.09,.39c1.5,6.44,6.32,12.06,6.37,12.12l.4,.46-.54,.3c-2.51,1.4-5.24,1.81-7.56,1.81h.02Zm-5.26-1.72c.63,.18,6.69,1.82,11.8-.69-1.2-1.49-4.71-6.2-6.09-11.67h0l-.09-.38c-.4-1.62-.55-3.29-.44-4.95v-8.89c-2.29,.56-9.8,1.85-20.25-1.87l-.25,16.77c1.38,1.17,10.42,8.77,15.33,11.7v-.02Z" fill="#002346"></path>
      </g>
      <g>
        <path d="M226.58,644.34l-26.72,1c-9.75-1-12.94-5.88-12.94-5.88-5.16-4.82-11.14-8.69-17.65-11.43v18.32h-5.71l-3.7-20.17c-2.69-17.14,3.86-18,3.86-18,0,0,10.25,8.74,15.63,11.93,0,0,7.06,2.19,12.78-1,2,4.88,13.1,8.91,13.1,8.91,13.79,3.19,20,7.56,20,7.56,6.73,5.9,1.35,8.76,1.35,8.76h0Z" fill="#f69074"></path>
        <path d="M169.77,646.85h-6.63l-3.77-20.58c-1.56-9.97-.02-14.56,1.55-16.66,1.28-1.72,2.67-1.92,2.73-1.92l.22-.03,.17,.14c.1,.09,10.21,8.69,15.51,11.85,.66,.19,7.13,1.93,12.34-.97l.49-.27,.21,.52c1.89,4.62,12.7,8.59,12.81,8.63,13.67,3.16,19.86,7.44,20.12,7.62,2.61,2.28,3.8,4.41,3.57,6.34-.25,2.17-2.19,3.23-2.28,3.27l-.1,.05-26.83,1c-9.5-.97-12.94-5.48-13.34-6.05-4.94-4.61-10.58-8.3-16.77-11v18.06h0Zm-5.79-1h4.79v-18.57l.69,.29c6.59,2.77,12.58,6.65,17.8,11.53l.08,.09s3.21,4.7,12.57,5.66l26.52-1c.34-.21,1.5-1.04,1.66-2.46,.18-1.56-.93-3.44-3.2-5.43-.02-.01-6.27-4.32-19.78-7.45-.5-.18-10.68-3.92-13.22-8.71-5.74,2.89-12.41,.88-12.7,.79l-.11-.05c-5.01-2.97-14.02-10.56-15.5-11.81-.35,.12-1.13,.48-1.91,1.54-1.43,1.96-2.82,6.3-1.33,15.84l3.62,19.75h.02Z" fill="#002346"></path>
      </g>
      <g>
        <path d="M317.76,208.55c.21-.07,.45,.04,.52,.26,.03,.09,.03,.18,0,.26-.35,1.12-.83,2.19-1.43,3.19-.94,1.71-2.52,2.97-4.39,3.53,.52,4.48-.81,8.97-3.7,12.43l-18.31,29.91s-2.57-4.22-11-11.35l22.8-24.1s0-13.11,7.56-13.11c2.67-.16,5.33-.5,7.95-1.02h0Z" fill="#f2b3c1"></path>
        <path d="M290.45,259.09l-.43-.7s-2.65-4.25-10.9-11.23l-.4-.34,23.03-24.34c.03-1.75,.53-13.41,8.06-13.41,2.6-.15,5.24-.49,7.83-1.01,.46-.13,.96,.12,1.12,.58,.06,.19,.06,.4,0,.58-.35,1.15-.85,2.26-1.48,3.29-.94,1.69-2.45,2.97-4.28,3.62,.41,4.46-.98,8.96-3.86,12.4l-18.69,30.55h0Zm-10.27-12.34c6.31,5.38,9.23,9.04,10.25,10.47l17.91-29.25c2.83-3.4,4.14-7.79,3.63-12.11l-.05-.42,.4-.12c1.75-.52,3.21-1.69,4.09-3.29,.57-.94,1.02-1.93,1.35-2.96-2.61,.51-5.27,.85-7.92,1.01-7,0-7.09,12.48-7.09,12.61v.2l-22.57,23.86Z" fill="#002346"></path>
      </g>
      <g>
        <path d="M220.73,115.13c-1.62,2.21-3.85,3.9-6.42,4.86,0,0-8.1,2.7-9.42,8.95-.26,1.25-.66,2.47-1.2,3.63-1.39,2.89-4.24,7.52-8.9,9.72-1.16,.54-2.39,.92-3.65,1.1-1.31,.18-2.54,.74-3.54,1.6l-12,10.63-4.84-13.43c-.25-.88-.78-1.66-1.52-2.2l1.8-.86,11.79-5.62c1.49-.71,2.76-1.8,3.7-3.15l7.28-10.51c.25-.36,.55-.68,.91-.94,4.18-3.05,8.82-5.41,13.74-7,0,0,6.89-2.69,5.21,1.18l5.81-.34c.82-.03,1.51,.61,1.54,1.43,0,.34-.09,.67-.29,.95h0Z" fill="#f2b3c1"></path>
        <path d="M175.38,156.48l-5.09-14.12c-.23-.81-.7-1.49-1.35-1.97l-.67-.49,14.34-6.84c1.4-.67,2.62-1.7,3.5-2.98l7.28-10.51c.27-.41,.62-.77,1.03-1.06,4.23-3.08,8.9-5.46,13.88-7.07,.72-.28,4.51-1.68,5.74-.4,.36,.37,.46,.88,.32,1.51l5.08-.3c.55-.02,1.05,.17,1.44,.53s.62,.85,.63,1.38c.02,.45-.12,.9-.39,1.26-1.68,2.29-3.98,4.03-6.65,5.03-.09,.03-7.86,2.69-9.11,8.59-.26,1.28-.68,2.54-1.24,3.74-1.31,2.73-4.25,7.65-9.14,9.96-1.2,.57-2.48,.95-3.79,1.14-1.22,.17-2.36,.68-3.29,1.48l-12.55,11.12h.03Zm-5.24-16.37c.52,.54,.9,1.21,1.11,1.94l4.58,12.7,11.45-10.14c1.08-.93,2.4-1.53,3.8-1.72,1.21-.18,2.39-.53,3.51-1.06,4.62-2.18,7.41-6.88,8.66-9.48,.52-1.12,.91-2.3,1.16-3.51,1.37-6.46,9.41-9.21,9.75-9.32,2.47-.92,4.61-2.54,6.17-4.68h0c.13-.18,.2-.41,.2-.63,0-.26-.12-.51-.32-.69-.19-.18-.45-.27-.71-.26l-6.61,.39,.32-.75c.14-.33,.35-.92,.12-1.16-.56-.59-3.13,.04-4.69,.65-4.91,1.58-9.49,3.92-13.63,6.94-.31,.23-.58,.5-.79,.81l-7.28,10.52c-.99,1.42-2.33,2.57-3.9,3.32l-12.91,6.15v-.02Z" fill="#002346"></path>
      </g>
      <path d="M204.06,121.33c-.19,0-.37-.11-.46-.29-.11-.25,0-.55,.25-.66l14.96-6.72c.25-.11,.55,0,.66,.25s0,.55-.25,.66l-14.96,6.72c-.07,.03-.14,.04-.21,.04h.01Z" fill="#002346"></path>
      <g>
        <path d="M749.29,397.67v231.43h-27.34v-200c0-5.8-4.69-10.5-10.49-10.51H435.04c-3.87,0-7,3.13-7,7h0v204.84h-23.21v-222.16c0-11.66,9.45-21.11,21.11-21.11h312.84c5.8,0,10.5,4.69,10.51,10.49v.02h0Z" fill="#fff"></path>
        <path d="M428.54,630.93h-24.21v-222.66c0-11.92,9.69-21.61,21.61-21.61h312.85c6.06,0,10.99,4.93,11,10.99v231.95h-28.34v-200.5c0-5.51-4.48-10.01-9.99-10.01H435.04c-3.58,0-6.5,2.92-6.5,6.5v205.34h0Zm-23.21-1h22.21v-204.34c0-4.14,3.36-7.5,7.5-7.5h276.4c6.08,0,11.01,4.94,11.01,11.01v199.5h26.34v-230.95c0-5.51-4.49-9.99-10-9.99H425.94c-11.36,0-20.61,9.25-20.61,20.61v221.66h0Z" fill="#002346"></path>
      </g>
      <g>
        <path d="M542.89,418.6v211.83h-114.82v-204.86c0-3.87,3.13-7,7-7l107.82,.03Z" fill="#e6e6e6"></path>
        <path d="M543.39,630.93h-115.82v-205.36c0-4.14,3.36-7.5,7.5-7.5l108.32,.03v212.83Zm-114.82-1h113.82v-210.83l-107.32-.03c-3.58,0-6.5,2.92-6.5,6.5v204.36Z" fill="#002346"></path>
      </g>
      <g>
        <path d="M205.2,188.43c-3.1-1.47-6.51-2.19-9.94-2.12-3.6,.22-6.74,2.54-8,5.92-1.64,4.38-2,11.05,8.43,15,0,0-5.54,5.55-.84,10.42l23.87,30.42s10.42,12.44,9,26.5c0,0,9.34-3.3,1.94-27,0,0-7.87-24.21-18.19-38-2.93-3.88-5.02-8.33-6.14-13.06-.57-2.32-.81-4.71-.71-7.1,.31-.24,.52-.59,.58-.98h0Z" fill="#fff"></path>
        <path d="M227.14,275.3l.08-.78c1.38-13.68-8.78-26.01-8.89-26.13l-23.88-30.43c-4.06-4.2-.91-8.93,.39-10.52-10.41-4.25-9.54-11.43-8.05-15.38,1.33-3.56,4.64-6.01,8.44-6.24,3.51-.08,7.03,.68,10.18,2.17l.34,.16-.06,.37c-.07,.43-.28,.83-.58,1.13-.08,2.27,.16,4.54,.7,6.75,1.12,4.69,3.15,9.03,6.05,12.88,10.25,13.7,18.19,37.9,18.27,38.15,7.46,23.89-1.85,27.48-2.25,27.63l-.74,.26v-.02Zm-31.43-88.5h-.44c-3.38,.21-6.35,2.4-7.54,5.59-1.69,4.51-1.64,10.65,8.14,14.36l.72,.27-.54,.55c-.21,.21-5.13,5.26-.84,9.72l23.9,30.46c.09,.11,10.05,12.18,9.18,25.89,1.96-1.48,6.73-7.21,.89-25.93-.08-.24-7.96-24.29-18.11-37.85-2.98-3.96-5.08-8.42-6.23-13.24-.59-2.36-.83-4.8-.72-7.24v-.23l.19-.14c.11-.09,.21-.2,.27-.32-2.78-1.24-5.83-1.89-8.87-1.89h0Z" fill="#002346"></path>
      </g>
      <g>
        <path d="M226.41,191.92s28.4,12.61,10.25,20.34c0,0-2,.5,.84,1.85,0,0,8.24,3.19,8.07,8.57,0,0,1.68,20.5-6.05,36,0-.04-4.87-52.14-13.11-66.76h0Z" fill="#fff"></path>
        <path d="M239.02,260.8v-2.12c-.04-.47-4.96-52.17-13.04-66.51l-.74-1.32,1.38,.61c.68,.3,16.66,7.48,16.61,14.61-.02,2.62-2.16,4.86-6.36,6.65-.18,.05-.33,.12-.38,.17,.05,0,.26,.3,1.24,.77,.32,.12,8.53,3.37,8.36,9.04,.02,.15,1.6,20.76-6.1,36.21l-.95,1.9h-.02Zm-11.48-67.8c6.95,14.38,11.4,54.66,12.31,63.81,6.7-14.98,5.24-33.9,5.23-34.1,.16-5.02-7.67-8.11-7.75-8.14-1.34-.64-1.9-1.19-1.84-1.82,.07-.7,.89-.94,1.06-.98,3.73-1.59,5.67-3.52,5.68-5.71,.04-5.36-10.83-11.17-14.68-13.06h0Z" fill="#002346"></path>
      </g>
      <g>
        <circle cx="269.43" cy="65.82" r="24.75" fill="#f69074"></circle>
        <path d="M269.43,91.07c-13.92,0-25.25-11.33-25.25-25.25s11.33-25.25,25.25-25.25,25.25,11.33,25.25,25.25-11.33,25.25-25.25,25.25Zm0-49.5c-13.37,0-24.25,10.88-24.25,24.25s10.88,24.25,24.25,24.25,24.25-10.88,24.25-24.25-10.88-24.25-24.25-24.25Z" fill="#002346"></path>
      </g>
      <path d="M250.31,97.94c-3.81,.13-7.54-1.17-10.45-3.63l-.77-.66,1-.2c.06,0,6.1-1.27,10.06-5-12.51-10.65-14.03-29.42-3.38-41.94s29.42-14.03,41.94-3.38c12.51,10.65,14.03,29.42,3.38,41.94-5.65,6.64-13.93,10.47-22.66,10.47-2.15,0-4.28-.23-6.38-.69-3.99,1.89-8.33,2.94-12.74,3.09h0Zm-9-3.75c7.45,5.58,18.27,1.22,21.49-.3l.16-.07h.17c15.48,3.5,30.87-6.22,34.36-21.7,3.5-15.48-6.22-30.87-21.7-34.36-15.48-3.5-30.87,6.22-34.36,21.7-.47,2.09-.71,4.22-.71,6.36-.03,8.61,3.82,16.77,10.48,22.23l.42,.35-.38,.39c-3.23,3.3-7.92,4.85-9.96,5.4h.03Z" fill="#002346"></path>
      <path d="M279.85,77.86c-.13,0-.26-.05-.35-.15l-21.97-21.96c-.2-.2-.2-.51,0-.71s.51-.2,.71,0l21.97,21.96c.2,.2,.2,.51,0,.71-.1,.1-.23,.15-.35,.15h0Z" fill="#002346"></path>
      <path d="M257.06,76.97c-.14,0-.28-.06-.38-.18-.18-.21-.16-.53,.05-.71l23.62-20.18c.21-.18,.53-.15,.71,.06,.18,.21,.16,.53-.05,.71l-23.62,20.18c-.09,.08-.21,.12-.33,.12Z" fill="#002346"></path>
      <path d="M415.11,158.1l-.64-.77c1.37-1.08,2.58-2.35,3.59-3.78l.84,.56c-1.06,1.51-2.34,2.85-3.79,3.99h0Zm4.91-10.34c.26-4.62-1.89-9.05-5.69-11.7l.61-.81c4.07,2.84,6.37,7.59,6.08,12.55l-1-.04h0Z" fill="#002346"></path>
      <g>
        <path d="M405.5,164.43l-10.82-.54,.07-1.09c.02-1.52,.31-3.02,.84-4.44,.48-1.11,1.16-2.13,2-3,1.84-1.69,3.78-3.27,5.82-4.71,1.6-1.18,2.42-2.29,2.48-3.33,.1-.9-.2-1.8-.81-2.47-.76-.67-1.74-1.03-2.75-1-1.25-.1-2.48,.33-3.41,1.17-.92,.84-1.56,2.36-1.92,4.57l-11-1.93c.42-3.68,2.18-7.08,4.95-9.55,2.71-2.34,6.71-3.37,12-3.1,4.13,.2,7.42,1.24,9.87,3.08,3.14,2.14,4.93,5.78,4.69,9.58-.09,1.65-.63,3.24-1.56,4.6-1.61,2.04-3.55,3.8-5.74,5.2-1.46,.92-2.75,2.1-3.8,3.47-.58,1.07-.89,2.27-.91,3.49h0Zm-11.3,2.31l11.54,.64-.54,10.19-11.53-.66,.53-10.17Z" fill="#f69074"></path>
        <path d="M405.67,178.1l-12.53-.72,.58-11.17,12.54,.7-.59,11.19Zm-11.48-1.66l10.53,.6,.49-9.19-10.54-.58-.48,9.17h0Zm11.8-11.48l-11.84-.59,.1-1.6c.02-1.55,.32-3.1,.87-4.58,.52-1.19,1.22-2.25,2.11-3.17,1.87-1.72,3.85-3.32,5.89-4.77,1.45-1.07,2.22-2.07,2.27-2.95,.08-.78-.17-1.54-.68-2.1-.63-.55-1.5-.86-2.37-.84-1.16-.09-2.26,.29-3.09,1.04-.83,.76-1.42,2.2-1.76,4.28l-.08,.5-11.96-2.1,.05-.47c.43-3.81,2.25-7.32,5.12-9.87,2.8-2.42,6.97-3.5,12.36-3.23,4.19,.2,7.61,1.27,10.14,3.18,3.26,2.22,5.14,6.06,4.89,10.01-.09,1.74-.66,3.41-1.65,4.85-1.67,2.12-3.64,3.9-5.88,5.34-1.42,.9-2.66,2.02-3.67,3.35-.5,.93-.79,2.06-.81,3.19v.52h-.01Zm-10.79-1.53l9.81,.49c.09-1.12,.41-2.22,.95-3.2,1.13-1.49,2.45-2.7,3.97-3.65,2.14-1.37,4.03-3.08,5.61-5.09,.86-1.26,1.37-2.76,1.45-4.32,.22-3.61-1.49-7.11-4.47-9.14-2.4-1.8-5.62-2.8-9.61-2.99-5.13-.26-9.06,.74-11.65,2.98-2.56,2.28-4.23,5.38-4.72,8.76l10.04,1.76c.39-2.07,1.05-3.5,1.99-4.36,1.02-.93,2.4-1.41,3.79-1.3,1.12-.03,2.19,.37,3.04,1.12,.75,.81,1.09,1.85,.98,2.9-.07,1.19-.94,2.4-2.68,3.68-2.02,1.43-3.96,3-5.78,4.68-.78,.81-1.42,1.77-1.88,2.83-.5,1.35-.78,2.78-.8,4.25l-.04,.61h0Z" fill="#002346"></path>
      </g>
      <g>
        <path d="M373.65,172.99l-7.57,3.74-.32-.76c-.56-1.05-.93-2.19-1.11-3.36-.11-.96-.03-1.92,.22-2.85,.6-1.85,1.32-3.66,2.17-5.42,.64-1.41,.77-2.48,.4-3.17-.28-.67-.84-1.18-1.53-1.41-.77-.17-1.58-.04-2.25,.37-.89,.4-1.57,1.16-1.89,2.08-.28,1.3-.13,2.65,.43,3.85l-8.23,2.85c-1.12-2.67-1.22-5.65-.28-8.39,.94-2.62,3.27-4.85,7-6.68,2.41-1.34,5.16-1.91,7.9-1.65,2.96,.26,5.57,2.06,6.85,4.74,.57,1.16,.8,2.45,.68,3.73-.31,2.02-.96,3.97-1.92,5.77-.65,1.2-1.09,2.49-1.29,3.84,.02,.95,.28,1.89,.74,2.72h0Zm-6.84,5.88l8.11-4,3.53,7.15-8.11,4-3.53-7.15Z" fill="#f69074"></path>
        <path d="M370.11,186.69l-3.97-8.05,9.01-4.44,3.97,8.05-9.01,4.44Zm-2.63-7.59l3.09,6.25,7.21-3.56-3.09-6.25-7.21,3.56Zm-1.65-1.68l-.53-1.25c-.57-1.06-.96-2.25-1.14-3.48-.12-1.04-.04-2.06,.23-3.06,.61-1.89,1.35-3.73,2.2-5.51,.56-1.23,.7-2.17,.41-2.72-.25-.58-.69-.99-1.25-1.17-.6-.13-1.27-.02-1.83,.32-.81,.37-1.41,1.03-1.68,1.82-.24,1.12-.09,2.38,.41,3.48l.23,.5-9.2,3.18-.18-.43c-1.17-2.78-1.27-5.89-.29-8.75,.98-2.74,3.42-5.08,7.25-6.97,2.48-1.38,5.32-1.97,8.17-1.7,3.12,.27,5.9,2.19,7.25,5.02,.6,1.24,.86,2.62,.73,3.99-.32,2.11-.98,4.1-1.98,5.96-.63,1.15-1.04,2.39-1.24,3.68,.03,.78,.26,1.64,.68,2.4l.26,.46-8.52,4.21,.02,.02Zm-.59-18.23c.26,0,.52,.03,.79,.09,.88,.29,1.54,.9,1.88,1.7,.43,.8,.3,2.01-.41,3.57-.84,1.74-1.56,3.55-2.15,5.37-.23,.85-.3,1.74-.2,2.64,.17,1.1,.52,2.18,1.05,3.18l.13,.31,6.64-3.28c-.35-.78-.55-1.63-.57-2.48,.22-1.49,.67-2.84,1.35-4.09,.94-1.75,1.57-3.64,1.87-5.61,.11-1.16-.11-2.36-.63-3.44-1.2-2.51-3.67-4.22-6.44-4.46-2.66-.25-5.29,.3-7.61,1.59-3.61,1.78-5.88,3.93-6.77,6.41-.85,2.47-.81,5.15,.1,7.59l7.28-2.52c-.42-1.16-.51-2.44-.26-3.65,.38-1.11,1.16-1.97,2.17-2.43,.52-.32,1.14-.49,1.78-.49h0Z" fill="#002346"></path>
      </g>
      <path d="M485.67,171.05h-15.14v-6.83l15.14-18h7.24v18.39h3.75v6.44h-3.75v5.59h-7.24v-5.59Zm0-6.44v-9.41l-8,9.41h8Z" fill="#f69074"></path>
      <path d="M499.25,161.57c0-5.68,1.02-9.66,3.07-11.93s5.16-3.41,9.35-3.41c1.7-.06,3.39,.19,5,.75,1.17,.42,2.25,1.08,3.16,1.93,.77,.73,1.42,1.58,1.93,2.51,.5,.97,.88,2,1.13,3.07,.57,2.29,.85,4.64,.83,7,0,5.42-.92,9.39-2.75,11.91s-5.01,3.76-9.52,3.71c-2.1,.08-4.19-.33-6.1-1.2-1.56-.82-2.88-2.04-3.82-3.53-.83-1.39-1.4-2.92-1.68-4.52-.41-2.07-.61-4.18-.6-6.29h0Zm8.24,0c0,3.81,.34,6.41,1,7.8,.45,1.23,1.62,2.06,2.93,2.09,.82,.02,1.61-.31,2.19-.89,.72-.78,1.19-1.75,1.36-2.8,.36-1.98,.51-3.99,.44-6,0-4-.33-6.64-1-8-.5-1.22-1.68-2.01-3-2-1.35-.04-2.57,.81-3,2.09-.6,1.38-.91,3.95-.92,7.73v-.02h0Z" fill="#f69074"></path>
      <path d="M527.11,161.57c0-5.68,1.02-9.66,3.07-11.93,2.05-2.27,5.16-3.41,9.35-3.41,1.7-.06,3.39,.19,5,.75,1.17,.42,2.25,1.08,3.16,1.93,.77,.73,1.42,1.58,1.93,2.51,.5,.97,.88,2,1.13,3.07,.57,2.29,.85,4.64,.84,7,0,5.42-.92,9.39-2.76,11.91s-5,3.76-9.49,3.71c-2.1,.08-4.19-.33-6.1-1.2-1.56-.82-2.87-2.04-3.81-3.53-.84-1.39-1.41-2.92-1.69-4.52-.42-2.07-.63-4.18-.63-6.29h0Zm8.24,0c0,3.81,.34,6.41,1,7.8,.45,1.23,1.62,2.06,2.93,2.09,.82,.02,1.61-.31,2.19-.89,.71-.78,1.19-1.76,1.37-2.8,.35-1.98,.5-3.99,.44-6,0-4-.33-6.67-1-8-.5-1.22-1.69-2.01-3-2-1.35-.04-2.57,.81-3,2.09-.62,1.38-.94,3.95-.94,7.73v-.02h.01Z" fill="#f69074"></path>
      <path d="M570.2,146.74h24.76v6.37h-15.5v4.76h14.38v6.1h-14.35v5.89h16v6.77h-25.29v-29.89h0Z" fill="#002346"></path>
      <path d="M600.54,176.64v-29.9h15.4c2.21-.08,4.42,.17,6.55,.74,1.49,.46,2.78,1.42,3.65,2.72,2.66,3.81,1.72,9.06-2.09,11.72h-.01c-.16,.12-.33,.22-.5,.33-1.01,.55-2.11,.95-3.24,1.17,.85,.24,1.66,.61,2.4,1.1,.56,.46,1.05,.99,1.48,1.57,.5,.57,.94,1.19,1.3,1.86l4.47,8.66h-10.44l-4.94-9.14c-.39-.88-.96-1.66-1.67-2.3-.66-.46-1.45-.7-2.26-.69h-.82v12.13l-9.28,.02h0Zm9.28-17.77h3.9c.84-.08,1.67-.22,2.48-.43,.6-.12,1.13-.45,1.5-.94,.93-1.22,.79-2.95-.33-4-1.04-.62-2.25-.89-3.45-.77h-4.06l-.04,6.14Z" fill="#002346"></path>
      <path d="M633.03,176.64v-29.9h15.4c2.21-.08,4.42,.17,6.55,.74,1.49,.46,2.78,1.42,3.65,2.72,2.66,3.83,1.71,9.1-2.12,11.76l-.47,.3c-1.02,.56-2.11,.96-3.25,1.19,1.6,.34,2.99,1.3,3.88,2.67,.5,.57,.94,1.19,1.3,1.86l4.47,8.66h-10.44l-4.94-9.14c-.39-.88-.96-1.66-1.67-2.3-.66-.46-1.45-.7-2.26-.69h-.79v12.13h-9.31Zm9.31-17.78h3.86c.82-.07,1.64-.21,2.44-.41,.6-.12,1.13-.45,1.5-.94,.93-1.22,.79-2.95-.33-4-1.03-.63-2.25-.9-3.45-.77h-4.06l.04,6.12h0Z" fill="#002346"></path>
      <path d="M663.52,161.71c0-4.88,1.36-8.68,4.08-11.4,2.72-2.72,6.51-4.08,11.36-4.08s8.82,1.33,11.51,4,4.03,6.41,4,11.23c.14,2.98-.46,5.95-1.73,8.65-1.14,2.21-2.92,4.03-5.1,5.23-2.57,1.28-5.43,1.89-8.3,1.77-2.87,.09-5.73-.46-8.37-1.61-2.26-1.13-4.14-2.9-5.38-5.1-1.45-2.66-2.17-5.66-2.07-8.69h0Zm9.24,0c0,3,.57,5.19,1.69,6.51,2.43,2.54,6.45,2.63,8.99,.21h0c.07-.07,.14-.13,.2-.2,1.09-1.3,1.64-3.63,1.64-7,0-2.81-.57-4.87-1.71-6.17-1.17-1.31-2.87-2.03-4.62-1.94-1.72-.06-3.37,.68-4.48,2-1.12,1.41-1.7,3.6-1.7,6.64l-.02-.04h.01Z" fill="#002346"></path>
      <path d="M699.61,176.64v-29.9h15.39c2.21-.08,4.42,.17,6.55,.74,1.49,.46,2.78,1.42,3.65,2.72,.96,1.43,1.45,3.12,1.39,4.84,.11,2.96-1.43,5.74-4,7.22-1.01,.56-2.11,.96-3.24,1.19,.85,.24,1.66,.61,2.4,1.1,.55,.46,1.05,.99,1.48,1.57,.5,.57,.93,1.2,1.29,1.86l4.48,8.66h-10.42l-4.94-9.14c-.39-.88-.96-1.66-1.67-2.3-.67-.46-1.46-.7-2.27-.69h-.81v12.13h-9.28Zm9.28-17.78h3.89c.82-.08,1.63-.22,2.42-.43,.6-.12,1.13-.45,1.5-.94,.93-1.22,.78-2.95-.34-4-1.03-.63-2.25-.9-3.45-.77h-4l-.02,6.14h0Z" fill="#002346"></path>
      <path d="M511.63,130.11v-22.26h8.36c1.4-.06,2.79,.18,4.09,.68,1.01,.42,1.85,1.15,2.42,2.08,.57,.88,.87,1.9,.88,2.94,0,.95-.27,1.89-.78,2.69-.58,.87-1.39,1.56-2.34,2,1.23,.31,2.32,1.01,3.11,2,.73,.97,1.11,2.16,1.08,3.37,.01,1.01-.21,2.01-.66,2.91-.37,.81-.93,1.52-1.63,2.08-.73,.52-1.56,.9-2.44,1.1-1.18,.27-2.38,.39-3.59,.37l-8.5,.04h0Zm3-12.92h4.82c.94,.04,1.89-.05,2.81-.26,.67-.17,1.26-.56,1.69-1.1,.41-.58,.61-1.29,.57-2,.03-.71-.15-1.4-.53-2-.34-.57-.88-.98-1.52-1.16-1.11-.26-2.25-.36-3.39-.31h-4.45v6.83h0Zm0,10.29h5.57c.67,.01,1.34-.02,2-.1,.6-.1,1.18-.3,1.7-.61,.48-.31,.87-.74,1.13-1.24,.3-.58,.45-1.23,.44-1.88,.02-.77-.2-1.53-.64-2.16-.42-.63-1.05-1.08-1.77-1.29-1.06-.29-2.16-.42-3.26-.38h-5.15l-.02,7.66h0Z" fill="#002346"></path>
      <path d="M542.7,128.11c-.87,.77-1.86,1.38-2.93,1.83-.96,.35-1.98,.53-3,.53-1.48,.1-2.93-.37-4.08-1.3-.94-.84-1.47-2.06-1.43-3.32-.01-1.49,.71-2.89,1.93-3.74,.61-.42,1.29-.72,2-.9,.8-.19,1.61-.33,2.43-.41,1.65-.15,3.29-.47,4.88-.94v-.72c.09-.86-.19-1.71-.77-2.35-.89-.69-2-1.02-3.12-.93-1-.07-1.99,.16-2.85,.68-.74,.62-1.24,1.47-1.42,2.42l-2.67-.36c.18-1.01,.59-1.96,1.2-2.78,.65-.77,1.51-1.33,2.47-1.62,1.18-.4,2.42-.6,3.67-.57,1.13-.04,2.26,.13,3.33,.48,.73,.24,1.39,.66,1.9,1.23,.43,.54,.72,1.18,.85,1.86,.12,.83,.16,1.68,.14,2.52v3.65c-.04,1.61,.01,3.22,.17,4.82,.12,.68,.36,1.33,.69,1.94h-2.89c-.28-.64-.45-1.32-.5-2.02Zm-.23-6.11c-1.45,.5-2.95,.84-4.47,1-.82,.08-1.62,.26-2.39,.54-.44,.18-.82,.49-1.08,.89-.64,1.01-.45,2.34,.45,3.13,.7,.53,1.56,.78,2.43,.73,.98,0,1.95-.23,2.81-.7,.79-.43,1.42-1.09,1.81-1.89,.34-.87,.49-1.81,.44-2.74v-.96Z" fill="#002346"></path>
      <path d="M559.95,130.11v-2c-.95,1.57-2.69,2.49-4.52,2.4-1.26,0-2.49-.37-3.54-1.07-1.11-.74-1.98-1.78-2.51-3-.62-1.38-.92-2.87-.89-4.38-.02-1.5,.25-2.99,.8-4.39,.47-1.23,1.32-2.28,2.42-3,1.08-.68,2.33-1.03,3.6-1,.9-.02,1.8,.19,2.6,.61,.73,.39,1.37,.94,1.86,1.61v-8h2.72v22.22h-2.54Zm-8.61-8c-.12,1.65,.34,3.29,1.31,4.63,.74,.96,1.87,1.53,3.08,1.54,1.19,0,2.31-.54,3.05-1.47,.93-1.3,1.38-2.88,1.25-4.47,.14-1.72-.31-3.44-1.27-4.87-.74-.99-1.91-1.56-3.15-1.55-1.18,0-2.29,.55-3,1.49-.94,1.38-1.39,3.03-1.27,4.7h0Z" fill="#002346"></path>
      <path d="M575.83,130.11v-22.26h9.88c1.53-.07,3.07,.13,4.53,.6,1.04,.41,1.91,1.16,2.48,2.12,.62,1.01,.94,2.17,.93,3.36,.04,1.49-.51,2.92-1.54,4-1.31,1.21-2.99,1.94-4.77,2.06,.65,.28,1.26,.66,1.81,1.12,.94,.89,1.77,1.9,2.45,3l3.87,6h-3.71l-2.95-4.63c-.86-1.34-1.57-2.36-2.12-3.07-.41-.58-.92-1.08-1.5-1.49-.41-.28-.87-.48-1.35-.6-.54-.09-1.09-.12-1.64-.1h-3.42v9.89h-2.95Zm3-12.45h6.34c1.07,.04,2.14-.1,3.16-.41,.71-.25,1.32-.72,1.74-1.34,.39-.6,.59-1.29,.59-2,.03-1-.39-1.95-1.15-2.6-1.04-.76-2.33-1.12-3.62-1h-7.06v7.35Z" fill="#002346"></path>
      <path d="M608.97,124.94l2.83,.34c-.36,1.52-1.23,2.87-2.46,3.83-3.2,2.09-7.41,1.76-10.24-.81-1.46-1.69-2.2-3.89-2.07-6.12-.14-2.3,.61-4.56,2.1-6.32,1.39-1.51,3.38-2.34,5.44-2.25,2-.07,3.93,.73,5.29,2.2,1.46,1.72,2.19,3.95,2.05,6.2v.73h-12c-.02,1.49,.48,2.94,1.43,4.09,.87,.93,2.1,1.45,3.37,1.42,.92,.03,1.83-.25,2.57-.79,.8-.66,1.39-1.53,1.69-2.52h0Zm-9-4.43h9c-.03-1.08-.38-2.12-1-3-.82-1.03-2.07-1.62-3.39-1.58-1.18-.04-2.33,.4-3.17,1.23-.89,.91-1.4,2.13-1.42,3.4l-.02-.05Z" fill="#002346"></path>
      <path d="M625.52,136.32v-7.89c-.47,.63-1.08,1.14-1.78,1.49-.75,.39-1.59,.59-2.44,.59-1.93,.02-3.76-.83-5-2.3-1.47-1.76-2.21-4.01-2.08-6.29-.02-1.5,.27-2.98,.85-4.36,.49-1.21,1.35-2.23,2.45-2.93,1.05-.66,2.27-1.01,3.51-1,1.9-.06,3.69,.89,4.72,2.49v-2.12h2.46v22.33h-2.69Zm-8.43-14.32c-.12,1.66,.34,3.31,1.3,4.67,.75,.98,1.91,1.55,3.14,1.56,1.17,0,2.28-.56,3-1.48,.95-1.3,1.4-2.9,1.27-4.51,.12-1.72-.35-3.43-1.33-4.85-.73-1-1.89-1.6-3.13-1.63-1.18,0-2.29,.57-3,1.52-.94,1.39-1.38,3.05-1.25,4.72Z" fill="#002346"></path>
      <path d="M643.12,130.11v-2.35c-1.11,1.75-3.05,2.79-5.12,2.74-.92,0-1.83-.18-2.67-.55-.72-.29-1.35-.76-1.83-1.37-.42-.6-.71-1.28-.85-2-.13-.85-.19-1.7-.17-2.56v-10h2.72v9c-.03,.97,.03,1.93,.17,2.89,.14,.68,.53,1.29,1.09,1.7,.61,.42,1.33,.63,2.07,.61,.81,0,1.61-.22,2.31-.63,.69-.39,1.23-.99,1.53-1.72,.35-1.01,.5-2.08,.45-3.15v-8.73h2.73v16.12h-2.43Z" fill="#002346"></path>
      <path d="M660.91,124.94l2.83,.34c-.37,1.52-1.24,2.87-2.48,3.83-3.2,2.09-7.41,1.76-10.24-.81-1.46-1.69-2.2-3.89-2.07-6.12-.14-2.3,.61-4.56,2.09-6.32,1.4-1.51,3.39-2.33,5.45-2.25,2-.07,3.93,.73,5.29,2.2,1.44,1.73,2.16,3.95,2,6.2v.73h-12c0,1.49,.53,2.94,1.51,4.07,.87,.93,2.1,1.45,3.37,1.42,.92,.03,1.83-.25,2.57-.79,.79-.65,1.37-1.52,1.68-2.5h0Zm-9-4.43h9c-.03-1.08-.38-2.12-1-3-.82-1.03-2.07-1.62-3.39-1.58-1.18-.04-2.33,.4-3.18,1.23-.89,.91-1.39,2.13-1.41,3.4l-.02-.05Z" fill="#002346"></path>
      <path d="M666.08,125.32l2.7-.43c.09,.96,.55,1.85,1.27,2.49,.84,.62,1.87,.93,2.91,.87,.99,.07,1.98-.2,2.8-.77,.57-.42,.91-1.09,.91-1.8,.01-.59-.29-1.15-.8-1.46-.89-.42-1.83-.74-2.8-.93-1.42-.32-2.82-.75-4.17-1.31-1.46-.65-2.39-2.1-2.37-3.7,0-.7,.17-1.39,.5-2,.31-.6,.76-1.13,1.31-1.53,.53-.36,1.12-.63,1.74-.8,.77-.22,1.57-.33,2.37-.32,1.13-.03,2.26,.16,3.33,.54,.84,.27,1.58,.79,2.12,1.49,.53,.74,.87,1.6,1,2.5l-2.68,.36c-.07-.78-.45-1.51-1.06-2-.72-.51-1.59-.75-2.47-.69-.94-.09-1.88,.13-2.69,.62-.48,.33-.78,.87-.8,1.46,0,.36,.11,.71,.33,1,.27,.32,.61,.57,1,.73,.27,.1,1.08,.33,2.42,.69,1.38,.34,2.73,.76,4.05,1.27,.73,.3,1.35,.8,1.8,1.44,.45,.69,.68,1.51,.65,2.34,0,.92-.27,1.82-.79,2.58-.59,.84-1.41,1.5-2.37,1.88-1.08,.45-2.23,.68-3.4,.66-1.7,.11-3.39-.35-4.8-1.31-1.13-1-1.84-2.37-2.01-3.87h0Z" fill="#002346"></path>
      <path d="M688.71,127.69l.4,2.41c-.68,.15-1.37,.24-2.07,.25-.8,.04-1.59-.12-2.31-.48-.51-.28-.91-.71-1.16-1.23-.29-1.04-.42-2.13-.37-3.21v-9.3h-2v-2.12h2v-4l2.72-1.64v5.64h2.75v2.12h-2.75v9.44c-.03,.5,.02,1.01,.14,1.5,.1,.22,.27,.41,.47,.54,.29,.14,.62,.21,.94,.19,.43-.02,.84-.06,1.24-.11h0Z" fill="#002346"></path>
      <path d="M201.92,117.97c-.2,0-.39-.12-.47-.33-.1-.26,.04-.55,.29-.64l11.75-4.38c.26-.1,.55,.04,.64,.29,.1,.26-.04,.55-.29,.64l-11.75,4.38c-.06,.02-.12,.03-.17,.03h0Z" fill="#002346"></path>
      <path d="M153.47,173.64h-.04c-.09,0-8.76-.65-15.76-3.65-.25-.11-.37-.4-.26-.66,.11-.26,.4-.37,.66-.26,6.84,2.93,15.35,3.57,15.44,3.57,.28,.02,.48,.26,.46,.53-.02,.26-.24,.46-.5,.46h0Z" fill="#002346"></path>
      <path d="M249.6,284.82c-.27,0-.5-.22-.5-.5l-.23-34.3c0-.28,.22-.5,.5-.5h0c.27,0,.5,.22,.5,.5l.23,34.3c0,.28-.22,.5-.5,.5h0Z" fill="#002346"></path>
      <path d="M220.7,412.58h-.09c-.27-.05-.45-.31-.4-.58l9.96-52.65c.04-.16,3.2-12.23,.07-17.01-.15-.23-.09-.54,.14-.69s.54-.09,.69,.14c3.37,5.16,.2,17.27,.07,17.78l-9.95,52.62c-.04,.24-.25,.41-.49,.41v-.02Z" fill="#002346"></path>
    </g>
    <g>
      <path d="M545.54,401.95h-55.29c-.49,0-.88-.4-.87-.88,0-.34,.19-.64,.5-.79l11.36-5.48c.13-.03,.26-.03,.39,0h51c.49,0,.87,.41,.87,.89,0,.26-.12,.51-.33,.67l-7.12,5.47c-.15,.09-.32,.13-.49,.11h-.02Z" fill="#fff"></path>
      <path d="M545.6,402.39h-55.34c-.73,0-1.32-.6-1.31-1.33,0-.51,.29-.96,.74-1.18l11.46-5.51c.17-.04,.34-.04,.52,0h50.96c.36,0,.69,.15,.93,.4s.38,.59,.37,.94c0,.4-.19,.76-.49,1.01l-7.13,5.48c-.25,.14-.48,.21-.71,.21v-.02Zm-.05-.88h.03c.09,0,.17-.01,.25-.06l7.07-5.44c.1-.08,.16-.2,.16-.33,0-.12-.04-.23-.12-.31s-.19-.13-.31-.13h-51.09s-.11-.02-.16-.02l-11.3,5.45c-.15,.07-.25,.22-.25,.39,0,.24,.19,.44,.44,.44h55.28Z" fill="#002346"></path>
    </g>
    <g>
      <rect x="519.16" y="360.28" width="10.17" height="38.73" fill="#f2f2f2"></rect>
      <path d="M529.76,399.45h-11.04v-39.61h11.04v39.61Zm-10.17-.88h9.29v-37.85h-9.29v37.85Z" fill="#002346"></path>
    </g>
    <g>
      <rect x="517.56" y="360.28" width="13.34" height="28.11" fill="#fff"></rect>
      <path d="M531.34,388.84h-14.22v-28.99h14.22v28.99Zm-13.34-.88h12.46v-27.23h-12.46v27.23Z" fill="#002346"></path>
    </g>
    <g>
      <rect x="442.5" y="231.46" width="168.26" height="131.61" fill="#f69074"></rect>
      <path d="M611.21,363.51h-169.14V231.02h169.14v132.49Zm-168.26-.88h167.38V231.9h-167.38v130.73Z" fill="#002346"></path>
    </g>
    <g>
      <rect x="451.49" y="238.49" width="150.27" height="117.54" fill="#fff"></rect>
      <path d="M602.2,356.48h-151.15v-118.42h151.15v118.42Zm-150.27-.88h149.39v-116.66h-149.39v116.66Z" fill="#002346"></path>
    </g>
    <path d="M562.17,293.95l-.87-1.04c1.86-1.46,3.5-3.19,4.86-5.12l1.14,.76c-1.44,2.04-3.17,3.86-5.13,5.4Zm6.65-14c.36-6.26-2.56-12.26-7.7-15.84l.83-1.1c5.51,3.85,8.63,10.28,8.23,16.99l-1.35-.05h-.01Z" fill="#002346"></path>
    <g>
      <path d="M549.16,302.52l-14.65-.73,.09-1.48c.03-2.05,.42-4.09,1.14-6.01,.65-1.5,1.57-2.88,2.71-4.06,2.49-2.29,5.12-4.42,7.88-6.38,2.17-1.6,3.28-3.1,3.36-4.51,.13-1.22-.27-2.44-1.1-3.34-1.03-.91-2.36-1.39-3.72-1.35-1.69-.13-3.36,.44-4.62,1.58-1.25,1.14-2.11,3.2-2.6,6.19l-14.89-2.61c.57-4.99,2.95-9.59,6.7-12.93,3.66-3.17,9.08-4.57,16.25-4.2,5.59,.27,10.05,1.68,13.36,4.17,4.26,2.9,6.67,7.83,6.35,12.97-.12,2.23-.85,4.38-2.11,6.23-2.18,2.76-4.81,5.14-7.77,7.04-1.98,1.25-3.72,2.84-5.14,4.7-.79,1.45-1.21,3.07-1.23,4.72h-.01Zm-15.3,3.13l15.62,.87-.73,13.8-15.61-.89,.72-13.77h0Z" fill="#fbe493"></path>
      <path d="M549.23,320.84l-16.61-.95,.77-14.77,16.62,.92-.78,14.79h0Zm-15.56-1.88l14.61,.84,.68-12.8-14.62-.81-.67,12.77Zm15.98-15.9l-15.67-.78,.13-1.98c.03-2.09,.43-4.17,1.17-6.15,.69-1.59,1.63-3,2.82-4.23,2.51-2.32,5.18-4.48,7.95-6.44,2.01-1.49,3.08-2.88,3.15-4.13,.12-1.1-.24-2.18-.97-2.98-.89-.79-2.08-1.23-3.34-1.19-1.6-.12-3.14,.41-4.29,1.45-1.15,1.05-1.97,3.04-2.44,5.9l-.08,.5-15.85-2.78,.05-.47c.58-5.12,3.02-9.82,6.87-13.25,3.75-3.25,9.34-4.7,16.6-4.32,5.64,.27,10.23,1.71,13.64,4.27,4.36,2.97,6.88,8.11,6.55,13.4-.12,2.32-.88,4.56-2.2,6.48-2.24,2.84-4.9,5.25-7.92,7.18-1.94,1.22-3.62,2.76-5.02,4.58-.7,1.31-1.11,2.86-1.13,4.43v.52h-.02Zm-14.62-1.74l13.64,.68c.1-1.55,.53-3.07,1.27-4.44,1.51-1.98,3.28-3.6,5.32-4.88,2.92-1.87,5.5-4.2,7.65-6.93,1.19-1.74,1.89-3.81,2-5.94,.31-4.94-2.04-9.74-6.13-12.53-3.26-2.45-7.67-3.82-13.11-4.08-6.99-.36-12.35,1.01-15.89,4.08-3.54,3.15-5.83,7.45-6.47,12.14l13.93,2.44c.52-2.86,1.4-4.82,2.67-5.98,1.35-1.23,3.17-1.86,4.99-1.71,1.45-.04,2.89,.48,4.02,1.48,.96,1.05,1.41,2.41,1.26,3.77-.09,1.56-1.25,3.16-3.56,4.86-2.74,1.94-5.38,4.07-7.84,6.34-1.08,1.12-1.96,2.44-2.59,3.89-.69,1.85-1.06,3.82-1.1,5.82l-.06,.99h0Z" fill="#002346"></path>
    </g>
    <g>
      <path d="M506.04,314.11l-10.25,5.06-.43-1.03c-.75-1.42-1.26-2.96-1.5-4.55-.15-1.29-.04-2.6,.3-3.86,.81-2.51,1.79-4.96,2.94-7.34,.87-1.91,1.04-3.36,.54-4.29-.38-.91-1.14-1.6-2.07-1.91-1.04-.23-2.13-.05-3.05,.5-1.2,.55-2.13,1.57-2.56,2.82-.37,1.75-.17,3.58,.58,5.21l-11.14,3.86c-1.52-3.61-1.65-7.65-.38-11.36,1.27-3.55,4.43-6.56,9.48-9.04,3.26-1.81,6.99-2.59,10.7-2.23,4.01,.35,7.54,2.79,9.27,6.42,.77,1.57,1.08,3.31,.92,5.05-.42,2.73-1.29,5.37-2.6,7.81-.88,1.62-1.47,3.38-1.75,5.2,.03,1.29,.37,2.55,1,3.68Zm-9.26,7.96l10.98-5.42,4.78,9.68-10.98,5.42-4.78-9.68h0Z" fill="#fbe493"></path>
      <path d="M501.33,332.42l-5.22-10.58,11.88-5.86,5.22,10.58-11.88,5.86h0Zm-3.88-10.12l4.34,8.78,10.08-4.97-4.34-8.78-10.08,4.97Zm-1.91-2.44l-.64-1.52c-.76-1.43-1.29-3.02-1.54-4.67-.16-1.38-.05-2.74,.31-4.07,.82-2.54,1.82-5.03,2.97-7.42,.78-1.72,.97-3.05,.55-3.84-.35-.81-.99-1.41-1.79-1.67-.87-.19-1.82-.04-2.63,.45-1.12,.52-1.96,1.44-2.34,2.55-.33,1.58-.14,3.32,.56,4.84l.23,.5-12.11,4.19-.18-.43c-1.57-3.73-1.71-7.89-.39-11.72,1.32-3.66,4.59-6.8,9.73-9.33,3.34-1.85,7.14-2.65,10.96-2.28,4.16,.36,7.87,2.93,9.68,6.7,.8,1.65,1.14,3.48,.97,5.31-.43,2.82-1.32,5.51-2.66,8-.86,1.58-1.42,3.27-1.69,5.04,.03,1.12,.36,2.31,.94,3.36l.26,.46-11.2,5.53v.02Zm-.88-24.26c.34,0,.68,.04,1.02,.11,1.12,.37,1.99,1.16,2.42,2.2,.56,1.05,.38,2.64-.55,4.69-1.14,2.36-2.12,4.81-2.92,7.28-.32,1.18-.42,2.41-.28,3.65,.23,1.52,.72,3,1.45,4.37l.25,.58,9.32-4.6c-.51-1.07-.8-2.26-.82-3.45,.29-1.97,.9-3.77,1.81-5.45,1.28-2.39,2.14-4.97,2.54-7.65,.15-1.62-.15-3.27-.88-4.75-1.66-3.46-5.05-5.81-8.87-6.14-3.63-.35-7.23,.41-10.41,2.17-4.92,2.42-8.03,5.37-9.25,8.78-1.18,3.44-1.11,7.17,.2,10.56l10.19-3.53c-.61-1.59-.76-3.35-.4-5.02,.49-1.43,1.52-2.56,2.84-3.17,.69-.42,1.51-.65,2.34-.65v.02Z" fill="#002346"></path>
    </g>
    <path d="M386,223.4c-.08,0-.15-.02-.23-.05l-56.84-28.79c-.25-.12-.35-.43-.22-.67s.43-.34,.67-.22l56.84,28.79c.25,.12,.35,.43,.22,.67-.09,.17-.26,.27-.45,.27h.01Z" fill="#002346"></path>
    <path d="M378,235.4c-.08,0-.15-.02-.23-.05l-56.84-28.79c-.25-.12-.35-.43-.22-.67,.12-.25,.43-.34,.67-.22l56.84,28.79c.25,.12,.35,.43,.22,.67-.09,.17-.26,.27-.45,.27h.01Z" fill="#002346"></path>
    <path d="M369,248.4c-.08,0-.15-.02-.23-.05l-56.84-28.79c-.25-.12-.35-.43-.22-.67,.12-.25,.43-.34,.67-.22l56.84,28.79c.25,.12,.35,.43,.22,.67-.09,.17-.26,.27-.45,.27h.01Z" fill="#002346"></path>
    <path d="M361,262.4c-.08,0-.16-.02-.23-.06l-54.84-28.79c-.24-.13-.34-.43-.21-.68s.43-.34,.67-.21l54.84,28.79c.24,.13,.34,.43,.21,.68-.09,.17-.26,.27-.44,.27h0Z" fill="#002346"></path>
    <path d="M353,277.4c-.08,0-.16-.02-.23-.06l-55.84-28.79c-.25-.13-.34-.43-.21-.67,.13-.25,.43-.34,.67-.22l55.84,28.79c.25,.13,.34,.43,.21,.67-.09,.17-.26,.27-.44,.27h0Z" fill="#002346"></path>
    <path d="M345,296.4c-.08,0-.15-.02-.22-.05l-53.84-26.79c-.25-.12-.35-.42-.22-.67,.12-.25,.42-.35,.67-.23l53.84,26.79c.25,.12,.35,.42,.22,.67-.09,.18-.26,.28-.45,.28Z" fill="#002346"></path>
    <path d="M338,312.4c-.08,0-.15-.02-.23-.05l-56.84-28.79c-.25-.12-.35-.43-.22-.67,.12-.25,.43-.34,.67-.22l56.84,28.79c.25,.12,.35,.43,.22,.67-.09,.17-.26,.27-.45,.27h.01Z" fill="#002346"></path>
  </g>
  <g>
    <g>
      <path d="M705.52,339.75s14.26-12,30.46-.32c0,0,10.17,7.91,3.39,14.69,0,0-7.16,4.9-17.7-3.39,0,0-11.21-9.15-16.15-10.98h0Z" fill="#7cd295"></path>
      <path d="M733.64,355.9c-3.13,0-7.34-1.05-12.21-4.88-.12-.1-11.22-9.13-16.04-10.92l-.61-.23,.5-.42c.14-.12,14.68-12.05,30.92-.34,.24,.18,5.55,4.37,5.86,9.39,.13,2.15-.68,4.13-2.43,5.88-.07,.05-2.29,1.52-5.99,1.52h0Zm-27.36-16.25c5.18,2.27,15.19,10.42,15.63,10.78,10.2,8.02,17.18,3.42,17.24,3.37,1.53-1.54,2.27-3.32,2.15-5.24-.29-4.67-5.51-8.79-5.56-8.83-14.05-10.13-26.79-2.02-29.47-.08h0Z" fill="#002346"></path>
    </g>
    <g>
      <path d="M689.75,333.89s15.72-21.95,6.31-43.41c0,0-10.54-21.09,1.88-27.49,0,0,15.44-6.4,23.72,16.19,0,0,11.11,32.98-31.92,54.71h.01Z" fill="#7cd295"></path>
      <path d="M688.54,334.93l.9-1.26c.16-.22,15.49-22.03,6.27-43.04-.1-.2-10.56-21.48,2.06-27.98,.25-.1,5.47-2.21,11.54,.45,5.43,2.38,9.7,7.74,12.71,15.95,.03,.09,2.78,8.48,.19,19.42-2.39,10.08-9.94,24.46-32.29,35.76l-1.38,.7h0Zm14.4-72.4c-2.86,0-4.82,.79-4.85,.8-11.92,6.14-1.79,26.76-1.69,26.97,8.14,18.56-2.45,37.65-5.54,42.59,21.08-11.04,28.29-24.84,30.61-34.56,2.56-10.74-.13-18.96-.16-19.04-2.93-7.99-7.07-13.21-12.3-15.5-2.2-.97-4.31-1.27-6.07-1.27h0Z" fill="#002346"></path>
    </g>
    <g>
      <path d="M649.78,270.63c-3.9,1.92-6.47,5.88-6.41,10.24,.08,5.44,3.41,12.92,19.17,17.14,0,0,18.48,4.58,20.54,18.29,0,0,5.1-17-3.6-33.23-3.33-6.22-8.87-11.03-15.62-13.07-4.24-1.29-9.3-1.72-14.08,.63Z" fill="#7cd295"></path>
      <path d="M682.96,318.04l-.25-1.68c-2-13.3-20.07-17.94-20.25-17.98-15.93-4.26-19.37-11.87-19.46-17.5-.06-4.42,2.53-8.57,6.62-10.58h0c4.18-2.06,9.01-2.28,14.36-.66,6.73,2.04,12.36,6.75,15.85,13.26,8.67,16.18,3.68,33.35,3.62,33.52l-.49,1.63h0Zm-25.74-48.72c-2.61,0-5.04,.55-7.27,1.65h0c-3.82,1.88-6.25,5.77-6.19,9.89,.08,5.37,3.42,12.64,18.89,16.78,.17,.04,17.22,4.41,20.47,16.92,.99-4.62,3.01-18.29-3.96-31.31-3.39-6.33-8.86-10.91-15.4-12.89-2.28-.69-4.47-1.04-6.54-1.04h0Z" fill="#002346"></path>
    </g>
    <g>
      <path d="M648.91,327.09c.95,1.81,2.71,3.82,5.73,5.94,0,0,11.89,6.9,14.98,16.63,0,0-.3-15.87-9.34-27.93,0,0-.78-1.48-2.4-2.64-5.33-3.83-12.03,2.19-8.98,8h.01Z" fill="#7cd295"></path>
      <path d="M670.05,352.26l-.79-2.49c-3.01-9.48-14.7-16.35-14.81-16.41-2.82-1.97-4.79-4.02-5.88-6.09h0c-1.7-3.24-.47-6.43,1.51-8.14,2.34-2.04,5.5-2.17,8.03-.35,1.66,1.2,2.48,2.71,2.51,2.77,8.98,11.96,9.38,27.94,9.38,28.1l.05,2.61h0Zm-15.72-34c-1.5,0-2.84,.64-3.76,1.44-1.62,1.41-2.95,4.15-1.33,7.22h0c1.03,1.96,2.92,3.92,5.61,5.8,.43,.25,10.22,6,14.21,14.5-.49-4.9-2.31-16.23-9.09-25.26-.04-.06-.8-1.47-2.31-2.56-1.13-.81-2.27-1.13-3.33-1.13h0Z" fill="#002346"></path>
    </g>
    <g>
      <polygon points="663.3 364.67 665.3 404.02 698.7 404.02 700.96 365.04 663.3 364.67" fill="#fff"></polygon>
      <path d="M698.7,404.4h-33.4c-.2,0-.37-.16-.38-.36l-2-39.35c0-.1,.03-.21,.11-.28,.07-.08,.16-.12,.28-.12l37.66,.37c.1,0,.2,.04,.27,.12s.11,.18,.1,.28l-2.26,38.98c-.01,.2-.18,.36-.38,.36h0Zm-33.04-.76h32.68l2.22-38.22-36.86-.37,1.96,38.59Z" fill="#002346"></path>
    </g>
    <path d="M689.29,364.86h-.03c-.21-.02-.37-.2-.35-.41,.01-.16,1.3-15.69,11.99-22.93,6.33-4.28,14.62-4.86,24.66-1.7,.2,.06,.31,.28,.25,.48s-.27,.31-.48,.25c-9.8-3.08-17.87-2.54-24,1.6-10.38,7.03-11.65,22.2-11.66,22.36-.02,.2-.18,.35-.38,.35h0Z" fill="#002346"></path>
    <path d="M683.48,364.6c-.17,0-.32-.11-.37-.28-5.92-21.16,8.41-33.42,11.34-35.66,.87-.67,1.9-1.47,2.89-2.32,26.02-22.39,10.97-47.46,10.81-47.72-.11-.18-.06-.41,.12-.52s.41-.06,.52,.12c.16,.26,15.56,25.86-10.96,48.69-1,.86-2.04,1.67-2.92,2.34-2.86,2.19-16.86,14.17-11.07,34.85,.06,.2-.06,.41-.26,.47-.03,0-.07,.01-.1,.01v.02Z" fill="#002346"></path>
    <path d="M680.78,364.87c-.13,0-.25-.06-.32-.18-9.2-14.83-2.34-33.73-.02-39.16,.58-1.37,1-2.51,1.3-3.6,6.46-23.28-13.18-37.41-13.38-37.55-.17-.12-.21-.36-.09-.53s.36-.21,.53-.09c.2,.14,20.29,14.57,13.68,38.37-.31,1.12-.73,2.29-1.33,3.69-2.29,5.35-9.05,23.94-.03,38.46,.11,.18,.06,.41-.12,.52-.06,.04-.13,.06-.2,.06h-.02Z" fill="#002346"></path>
    <path d="M671.1,364.64h-.02c-.21,0-.37-.19-.36-.39,1-24.73-13.51-34.57-13.65-34.66-.17-.12-.22-.35-.11-.53,.12-.18,.35-.22,.53-.11,.15,.1,15.01,10.15,13.99,35.33,0,.2-.18,.36-.38,.36Z" fill="#002346"></path>
  </g>
</svg>
