<?xml version="1.0" encoding="UTF-8"?>
<svg xmlns="http://www.w3.org/2000/svg" id="a" width="865.76" height="682.89" viewBox="0 0 865.76 682.89">
  <g>
    <g>
      <path d="M259.21,563.89s73.24-32.35,112.62-34.79l29.73,64.48-221.11-.14,78.76-29.55Z" fill="#fbe493"></path>
      <path d="M402.34,594.08l-224.64-.14,81.32-30.52c1.34-.59,73.93-32.42,112.78-34.83l.34-.02,.14,.31,30.06,65.19h0Zm-219.14-1.13l217.58,.13-29.26-63.46c-38.92,2.57-111.38,34.4-112.11,34.73h-.03l-76.19,28.6h.01Z" fill="#002346"></path>
    </g>
    <g>
      <polyline points="400.45 592.44 314.77 401.31 522.84 401.31 814.45 593.44" fill="#fff"></polyline>
      <polygon points="814.17 593.86 522.69 401.81 315.54 401.81 400.9 592.24 399.99 592.65 313.99 400.81 522.99 400.81 523.11 400.89 814.72 593.03 814.17 593.86" fill="#002346"></polygon>
    </g>
    <g>
      <path d="M393.52,593.47l-78.76-179.33v-12.13c0-.16,.22-.21,.29-.06l86.4,191.5-7.93,.03h0Z" fill="#e6e7e8"></path>
      <path d="M393.2,593.97l-.13-.3-78.8-179.43v-12.24c0-.31,.21-.57,.51-.64,.3-.06,.6,.09,.73,.37l86.71,192.2-9.02,.03h0Zm-77.93-179.93l78.58,178.94,6.83-.03-85.41-189.31v10.4h0Zm-.67-11.88h0Z" fill="#002346"></path>
    </g>
    <g>
      <polygon points="433.73 409.27 522.24 513.01 414.81 538.04 353.76 422.07 433.73 409.27" fill="#fbe493"></polygon>
      <path d="M414.54,538.61l-.18-.34-61.37-116.59,80.93-12.95,.18,.21,89.04,104.36-108.61,25.3h0Zm-60.02-116.15l60.55,115.01,106.25-24.76-87.79-102.9-79,12.65h0Z" fill="#002346"></path>
    </g>
    <g>
      <polygon points="414.81 538.04 414.81 541.1 520.4 519.74 522.24 513.01 414.81 538.04" fill="#002346"></polygon>
      <path d="M414.31,541.71v-4.07l.39-.09,108.25-25.22-2.14,7.84-106.49,21.54h-.01Zm1-3.27v2.05l104.69-21.18,1.54-5.62-106.23,24.75h0Z" fill="#002346"></path>
    </g>
    <polygon points="430.39 446.59 434.92 453.28 446.44 450.16 441.64 443.63 430.39 446.59" fill="#002346"></polygon>
    <polygon points="473.98 487.48 468.5 480.07 455.41 483.6 460.53 491.17 473.98 487.48" fill="#002346"></polygon>
    <polygon points="420.99 432.66 424.35 437.65 435.18 434.9 431.78 430.26 420.99 432.66" fill="#002346"></polygon>
    <polygon points="441.85 463.52 448.05 472.7 460.71 469.5 453.86 460.22 441.85 463.52" fill="#002346"></polygon>
    <polygon points="474.64 467.83 463.79 470.59 469.23 477.96 480.28 474.98 474.64 467.83" fill="#002346"></polygon>
    <polygon points="449.15 474.32 454.33 482.01 467.33 478.48 461.88 471.07 449.15 474.32" fill="#002346"></polygon>
    <polygon points="408.73 435.38 412.07 440.77 422.46 438.12 419.05 433.08 408.73 435.38" fill="#002346"></polygon>
    <polygon points="435.99 454.87 440.78 461.93 452.7 458.63 447.6 451.73 435.99 454.87" fill="#002346"></polygon>
    <polygon points="425.44 439.24 429.3 444.98 440.46 442.04 436.35 436.47 425.44 439.24" fill="#002346"></polygon>
    <polygon points="402 452.19 398.62 446.09 386.28 449.23 389.72 455.43 402 452.19" fill="#002346"></polygon>
    <polygon points="384.27 466.95 392.74 464.67 388.82 457.59 380.48 459.78 384.27 466.95" fill="#002346"></polygon>
    <polygon points="405.06 429.46 407.7 433.73 417.95 431.45 415.19 427.39 405.06 429.46" fill="#002346"></polygon>
    <polygon points="397.69 444.42 394.43 438.54 381.89 441.3 385.35 447.56 397.69 444.42" fill="#002346"></polygon>
    <polygon points="392.88 431.94 395.38 436.45 405.81 434.15 403.13 429.84 392.88 431.94" fill="#002346"></polygon>
    <polygon points="375.35 450.12 383.52 448.02 380.02 441.72 371.86 443.51 375.35 450.12" fill="#002346"></polygon>
    <polygon points="378.35 434.92 380.96 439.63 393.51 436.87 390.99 432.32 378.35 434.92" fill="#002346"></polygon>
    <polygon points="417.75 449.94 421.97 456.76 433.05 453.78 428.52 447.1 417.75 449.94" fill="#002346"></polygon>
    <polygon points="446.17 473.19 439.99 464.05 428.46 467.23 434.05 476.27 446.17 473.19" fill="#002346"></polygon>
    <polygon points="396.3 438.12 399.53 443.96 410.2 441.24 406.84 435.8 396.3 438.12" fill="#002346"></polygon>
    <polygon points="398.72 475.42 390.02 477.82 394.53 486.33 403.49 484.06 398.72 475.42" fill="#002346"></polygon>
    <polygon points="422.98 458.39 427.45 465.6 438.91 462.46 434.14 455.37 422.98 458.39" fill="#002346"></polygon>
    <polygon points="414.89 448.81 411.2 442.87 400.45 445.61 403.84 451.73 414.89 448.81" fill="#002346"></polygon>
    <polygon points="435.08 511.92 422.78 515.07 427.17 522.98 439.51 519.94 435.08 511.92" fill="#002346"></polygon>
    <polygon points="416.03 425.35 426.57 423.2 420.91 415.51 410.54 417.22 416.03 425.35" fill="#002346"></polygon>
    <polygon points="390.06 430.65 384.97 421.45 372.07 423.58 377.42 433.25 390.06 430.65" fill="#002346"></polygon>
    <polygon points="406.81 460.87 402.93 453.84 390.65 457.08 394.57 464.17 406.81 460.87" fill="#002346"></polygon>
    <polygon points="438.16 486.38 433.21 478.38 420.4 481.64 424.99 489.94 438.16 486.38" fill="#002346"></polygon>
    <polygon points="432.2 476.75 426.6 467.73 414.54 471.05 419.48 479.97 432.2 476.75" fill="#002346"></polygon>
    <polygon points="452.46 482.51 447.26 474.8 435.06 477.9 440.01 485.87 452.46 482.51" fill="#002346"></polygon>
    <polygon points="420.12 457.26 415.89 450.42 404.74 453.38 408.63 460.36 420.12 457.26" fill="#002346"></polygon>
    <polygon points="413.08 442.4 416.74 448.3 427.43 445.49 423.54 439.73 413.08 442.4" fill="#002346"></polygon>
    <polygon points="425.6 466.12 421.13 458.89 409.53 462.01 413.64 469.42 425.6 466.12" fill="#002346"></polygon>
    <polygon points="458.68 491.69 453.54 484.12 441.02 487.5 445.79 495.21 458.68 491.69" fill="#002346"></polygon>
    <polygon points="450.4 506.13 444.95 497.33 431.17 501.11 436.01 509.79 450.4 506.13" fill="#002346"></polygon>
    <polygon points="409.13 494.23 404.42 485.71 395.42 488.01 400.01 496.7 409.13 494.23" fill="#002346"></polygon>
    <polygon points="393.67 466.32 385.15 468.62 389.16 476.17 397.79 473.79 393.67 466.32" fill="#002346"></polygon>
    <polygon points="434.15 510.27 429.36 501.6 417.16 504.94 421.85 513.39 434.15 510.27" fill="#002346"></polygon>
    <polygon points="411.81 469.91 407.72 462.52 395.48 465.82 399.63 473.29 411.81 469.91" fill="#002346"></polygon>
    <polygon points="417.14 426.98 419.88 431.03 430.59 428.65 427.75 424.81 417.14 426.98" fill="#002346"></polygon>
    <polygon points="370.98 441.84 379.09 440.05 376.47 435.3 368.38 436.95 370.98 441.84" fill="#002346"></polygon>
    <polygon points="404.02 427.79 414.08 425.74 408.55 417.54 398.68 419.17 404.02 427.79" fill="#002346"></polygon>
    <polygon points="391.96 430.26 402.12 428.19 396.73 419.49 386.88 421.13 391.96 430.26" fill="#002346"></polygon>
    <polygon points="387.91 455.94 384.45 449.69 376.23 451.79 379.59 458.11 387.91 455.94" fill="#002346"></polygon>
    <polygon points="428.54 422.8 437.64 420.92 431.92 413.7 422.92 415.17 428.54 422.8" fill="#002346"></polygon>
    <polygon points="375.53 433.63 370.13 423.88 362.16 425.21 367.49 435.26 375.53 433.63" fill="#002346"></polygon>
    <polygon points="420.95 515.53 411.28 517.98 415.47 525.88 425.34 523.44 420.95 515.53" fill="#002346"></polygon>
    <polygon points="466.87 503.81 453.26 507.27 458.23 515.31 472.29 511.82 466.87 503.81" fill="#002346"></polygon>
    <polygon points="451.41 507.76 436.91 511.44 441.36 519.47 456.36 515.77 451.41 507.76" fill="#002346"></polygon>
    <polygon points="482.98 499.7 468.76 503.33 474.18 511.36 488.9 507.72 482.98 499.7" fill="#002346"></polygon>
    <polygon points="496.97 496.14 484.89 499.22 490.83 507.25 503.31 504.15 496.97 496.14" fill="#002346"></polygon>
    <polygon points="415.35 505.44 405.99 508 410.4 516.33 420.02 513.88 415.35 505.44" fill="#002346"></polygon>
    <polygon points="443.94 495.72 439.17 488.01 425.92 491.59 430.27 499.46 443.94 495.72" fill="#002346"></polygon>
    <polygon points="465.78 502.2 459.74 493.28 446.8 496.82 452.25 505.64 465.78 502.2" fill="#002346"></polygon>
    <polygon points="428.46 499.95 424.09 492.07 411.87 495.4 416.26 503.29 428.46 499.95" fill="#002346"></polygon>
    <polygon points="405.12 506.35 414.45 503.79 410.06 495.88 400.9 498.35 405.12 506.35" fill="#002346"></polygon>
    <polygon points="417.65 480.46 412.73 471.56 400.53 474.92 405.33 483.58 417.65 480.46" fill="#002346"></polygon>
    <polygon points="481.81 498.11 475.14 489.07 461.62 492.78 467.68 501.72 481.81 498.11" fill="#002346"></polygon>
    <polygon points="423.18 490.42 418.57 482.11 406.25 485.25 410.96 493.74 423.18 490.42" fill="#002346"></polygon>
    <polygon points="455.76 459.7 462.62 469 473.39 466.26 465.98 456.88 455.76 459.7" fill="#002346"></polygon>
    <polygon points="442.37 441.54 451.91 439.02 447.62 433.61 438.28 435.98 442.37 441.54" fill="#002346"></polygon>
    <polygon points="433.75 429.84 437.09 434.39 446.4 432.04 443.03 427.79 433.75 429.84" fill="#002346"></polygon>
    <polygon points="495.72 494.57 488.51 485.41 477.04 488.55 483.72 497.63 495.72 494.57" fill="#002346"></polygon>
    <polygon points="443.54 443.13 448.35 449.63 458.17 446.97 453.14 440.59 443.54 443.13" fill="#002346"></polygon>
    <polygon points="470.39 479.55 475.87 486.98 487.29 483.86 481.51 476.55 470.39 479.55" fill="#002346"></polygon>
    <polygon points="432.54 428.23 441.78 426.2 438.91 422.53 429.75 424.41 432.54 428.23" fill="#002346"></polygon>
    <polygon points="454.59 458.13 464.76 455.31 459.42 448.55 449.52 451.22 454.59 458.13" fill="#002346"></polygon>
    <g>
      <path d="M536.27,420.86v16.47c-1.67,1.62-3.52,3.05-5.5,4.27-3,1.83-28.06,6-28.06,6l31.73,34.81s29.09-3.18,37.24-5.5c8.54-2.45,6.71-33.58,6.71-33.58l-42.12-22.47h0Z" fill="#002346"></path>
      <path d="M534.24,482.93l-32.52-35.68,.91-.15c8.63-1.44,25.57-4.53,27.88-5.93,1.89-1.16,3.66-2.52,5.26-4.06v-17.09l43.1,22.99,.02,.28c.08,1.29,1.75,31.56-7.07,34.09-8.1,2.31-36.13,5.39-37.32,5.52l-.25,.03h-.01Zm-30.54-34.99l30.94,33.94c2.88-.32,29.29-3.29,36.91-5.46,7.64-2.19,6.51-29.7,6.36-32.79l-41.14-21.94v15.85l-.15,.15c-1.7,1.64-3.58,3.1-5.59,4.34-2.75,1.68-22.74,5.14-27.33,5.92h0Z" fill="#002346"></path>
    </g>
    <g>
      <polygon points="480.12 210.27 480.12 384.85 613.18 489.82 613.18 220.04 480.12 210.27" fill="#fff"></polygon>
      <path d="M613.68,490.85l-134.06-105.76V209.73l134.06,9.84V490.85Zm-133.06-106.24l132.06,104.18V220.5l-132.06-9.7v173.8h0Z" fill="#002346"></path>
    </g>
    <g>
      <polygon points="489.28 219.43 489.28 366.52 600.98 435.5 600.98 229.2 489.28 219.43" fill="#f69074"></polygon>
      <path d="M601.48,436.4l-112.7-69.6V218.88l112.7,9.86v207.65h0Zm-111.7-70.15l110.7,68.36V229.66l-110.7-9.68v146.27h0Z" fill="#002346"></path>
    </g>
    <g>
      <rect x="613.18" y="220.04" width="13.43" height="269.84" fill="#002346"></rect>
      <path d="M627.11,490.38h-14.43V219.54h14.43V490.38Zm-13.43-1h12.43V220.54h-12.43V489.38Z" fill="#002346"></path>
    </g>
    <g>
      <polygon points="496.61 228.6 497.21 359.82 590.59 412.91 590.59 250.42 526.5 240.71 522.24 231.64 496.61 228.6" fill="#fff"></polygon>
      <path d="M591.09,413.77l-94.38-53.66v-.29l-.6-131.79,26.47,3.14,4.26,9.08,64.25,9.73v163.78h0Zm-93.38-54.23l92.38,52.52V250.85l-63.93-9.69-4.26-9.06-24.79-2.94,.6,130.37Z" fill="#002346"></path>
    </g>
    <polygon points="502.71 244.46 502.71 356.16 585.11 400.11 585.11 259.12 502.71 244.46" fill="#f69074"></polygon>
    <g>
      <ellipse cx="541.15" cy="324.47" rx="22.21" ry="30.6" transform="translate(-75.13 189.12) rotate(-18.56)" fill="#fbe493"></ellipse>
      <path d="M545.64,354.83c-10.46,0-21.37-9.29-26.02-23.13-2.64-7.85-2.89-15.98-.72-22.89,2.19-6.97,6.57-11.88,12.35-13.82h0c11.87-3.99,25.97,6,31.43,22.25,5.46,16.26,.24,32.73-11.63,36.71-1.77,.59-3.58,.88-5.41,.88Zm-14.07-58.89h0c-5.47,1.84-9.63,6.51-11.72,13.17-2.11,6.71-1.85,14.62,.72,22.27,5.28,15.73,18.81,25.44,30.16,21.62,11.35-3.81,16.28-19.71,11-35.44s-18.82-25.44-30.16-21.62Z" fill="#002346"></path>
    </g>
    <g>
      <path d="M543.59,326.3l7.83-8.68c1.08-1.58,1.03-3.69-.14-5.21-1.17-1.67-3-2-4-.83l-7.53,8.36-7.55-12.08c-1.09-1.75-2.92-2.3-4-1.21-1.2,1.48-1.27,3.58-.17,5.13l7.84,12.59-8,8.63c-1.08,1.59-1.02,3.7,.16,5.22,.46,.73,1.17,1.25,2,1.47,.74,.18,1.51-.07,2-.65l7.56-8.34,7.53,12.08c.46,.82,1.23,1.43,2.13,1.69,.7,.22,1.47,.04,2-.48,1.18-1.49,1.24-3.59,.14-5.14l-7.8-12.55h0Z" fill="#002346"></path>
      <path d="M549.84,345.06c-.25,0-.5-.04-.74-.11-1.03-.3-1.89-.98-2.42-1.92l-7.17-11.5-7.12,7.85c-.6,.71-1.56,1.03-2.49,.8-.96-.26-1.78-.85-2.3-1.69-1.29-1.66-1.36-3.99-.15-5.77l7.79-8.41-7.64-12.27c-1.21-1.71-1.13-4.06,.21-5.71,.56-.57,1.26-.82,2.02-.73,1.05,.12,2.09,.86,2.79,1.99l7.2,11.52,7.09-7.87c.5-.59,1.19-.9,2-.86,1.03,.05,2.05,.68,2.79,1.73,1.29,1.68,1.35,4.01,.14,5.78l-7.62,8.45,7.6,12.23c1.2,1.7,1.14,4.06-.17,5.71-.51,.5-1.15,.76-1.8,.76v.02Zm-10.19-15.19l7.88,12.64c.41,.73,1.06,1.25,1.85,1.47,.54,.17,1.11,.03,1.51-.36,.99-1.26,1.04-3.13,.08-4.49l-8.01-12.89,8.08-8.96c.92-1.36,.87-3.22-.17-4.57-.56-.8-1.32-1.29-2.03-1.33-.48-.01-.89,.16-1.2,.52l-7.98,8.86-7.9-12.64c-.54-.87-1.31-1.44-2.06-1.53-.45-.05-.85,.09-1.17,.4-1.02,1.26-1.08,3.12-.12,4.49l8.06,12.94-8.26,8.91c-.92,1.36-.86,3.22,.19,4.57,.42,.66,1.02,1.1,1.73,1.29,.54,.13,1.12-.05,1.49-.49l8.02-8.84h.01Z" fill="#002346"></path>
    </g>
    <path d="M563.49,296.23h-.11l-46.14-13.53c-.2-.06-.31-.27-.26-.47,.06-.2,.27-.31,.47-.25l46.14,13.52c.2,.05,.32,.25,.28,.44-.04,.17-.2,.29-.38,.29Z" fill="#002346"></path>
    <path d="M575.33,286.55h-.1l-59.82-16.69c-.2-.07-.3-.29-.22-.49,.06-.17,.24-.27,.42-.24l59.82,16.69c.2,.06,.31,.27,.26,.47-.05,.16-.2,.26-.36,.26h0Z" fill="#002346"></path>
    <g>
      <path d="M556.74,557.1s-29.17,2.7-40,11.34c-10.83,8.64-2.7,13,7.55,15.66s56.17-1.63,62.11-7.57,.04-20.52-29.66-19.43Z" fill="#f69074"></path>
      <path d="M534.52,585.38c-4.58,0-8.26-.25-10.36-.79-8.15-2.12-12.27-4.61-12.96-7.85-.55-2.6,1.16-5.44,5.22-8.68,10.82-8.63,39.07-11.34,40.27-11.45h.03c24.26-.89,30.22,8.4,31.47,11.26,1.42,3.26,.87,6.71-1.44,9.02-4.92,4.92-34.93,8.49-52.23,8.49h0Zm22.25-27.78c-.76,.07-29.22,2.86-39.72,11.23-3.69,2.94-5.33,5.53-4.87,7.69,.59,2.79,4.6,5.11,12.23,7.09,10.51,2.73,56.12-1.92,61.63-7.44,2.04-2.04,2.5-5,1.23-7.91-1.19-2.72-6.88-11.53-30.5-10.66h0Z" fill="#002346"></path>
    </g>
    <path d="M474.64,248.16c-.06,0-.11,0-.17,0l-21.32-11.09c-.18-.09-.26-.31-.17-.5h0c.1-.19,.32-.26,.5-.17l21.32,11.1c.18,.1,.25,.34,.14,.52-.06,.11-.18,.19-.31,.19v-.05h.01Z" fill="#002346"></path>
    <path d="M447.42,234c-.06,0-.11,0-.17,0l-6.34-3.3c-.18-.09-.26-.31-.17-.5h0c.1-.19,.32-.26,.5-.17l6.35,3.3c.18,.1,.25,.33,.15,.51-.07,.11-.2,.17-.33,.16h.01Z" fill="#002346"></path>
    <path d="M465.24,293.78h0l-7.23-.83c-.2-.05-.33-.25-.28-.46,.04-.17,.19-.29,.36-.29l7.23,.83c.21,.03,.35,.23,.31,.44-.03,.16-.15,.29-.31,.31h-.08Z" fill="#002346"></path>
    <path d="M449.84,292.01h0l-19.49-2.25c-.2-.02-.35-.2-.33-.4v-.02c.03-.2,.21-.35,.41-.33l19.49,2.26c.21,.03,.35,.23,.31,.44-.03,.16-.15,.29-.31,.31h-.08Z" fill="#002346"></path>
    <path d="M438.4,351.5c-.21-.01-.37-.19-.36-.4,0-.16,.11-.29,.26-.34l24.16-6.7c.2-.06,.4,.06,.46,.25h0c.06,.2-.06,.4-.25,.46h0l-24.16,6.7-.1,.02h-.01Z" fill="#002346"></path>
    <g>
      <rect x="87.59" y="197.69" width="146.14" height="388.79" fill="#e6e7e8"></rect>
      <path d="M234.23,586.98H87.09V197.19H234.23v389.79Zm-146.14-1H233.23V198.19H88.09v387.79Z" fill="#002346"></path>
    </g>
    <g>
      <rect x="96.08" y="209.97" width="127.7" height="312.63" fill="#fff"></rect>
      <path d="M224.28,523.1H95.58V209.47H224.28v313.63Zm-127.7-1h126.7V210.47H96.58v311.63Z" fill="#002346"></path>
    </g>
    <g>
      <rect x="134.4" y="246.27" width="51.08" height="17.03" fill="#e6e7e8"></rect>
      <path d="M185.98,263.8h-52.08v-18.03h52.08v18.03Zm-51.08-1h50.08v-16.03h-50.08v16.03Z" fill="#002346"></path>
    </g>
    <path d="M396.95,162.48c.92,1.08,1.42,2.45,1.4,3.87,.02,1.14-.28,2.26-.86,3.24-.61,.99-1.5,1.77-2.55,2.25-1.29,.59-2.7,.87-4.12,.83h-7.5v-23.6h7.37c1.91-.14,3.81,.44,5.32,1.63,1.19,1.07,1.85,2.62,1.8,4.22,.06,1.32-.37,2.62-1.21,3.65-.81,.93-1.89,1.59-3.09,1.9,1.35,.23,2.57,.95,3.44,2.01h0Zm-12.11-2.69h5.91c1.47,.1,2.93-.35,4.09-1.26,.97-.89,1.5-2.16,1.43-3.48,.06-1.29-.46-2.53-1.42-3.39-1.22-.92-2.74-1.36-4.27-1.24h-5.74v9.37Zm10.37,10.21c2.07-1.9,2.21-5.12,.31-7.19-.1-.11-.2-.21-.31-.31-1.3-.99-2.91-1.49-4.55-1.4h-5.78v10.26h5.88c1.6,.08,3.17-.4,4.45-1.36h0Z" fill="#002346"></path>
    <path d="M402.97,158.58c.71-1.37,1.79-2.5,3.13-3.26,1.39-.78,2.96-1.17,4.55-1.14,1.74-.06,3.46,.44,4.91,1.41,1.29,.87,2.28,2.13,2.82,3.6v-4.77h1.52v18.28h-1.52v-4.81c-.54,1.49-1.53,2.77-2.84,3.65-1.44,.98-3.15,1.48-4.89,1.43-1.59,.03-3.16-.37-4.55-1.16-1.34-.77-2.43-1.92-3.13-3.3-1.49-3.13-1.49-6.77,0-9.9v-.03Zm14.42,.73c-.61-1.18-1.55-2.16-2.7-2.83-1.17-.67-2.49-1.02-3.84-1-1.37-.02-2.71,.33-3.9,1-1.13,.65-2.04,1.61-2.62,2.77-1.25,2.73-1.25,5.88,0,8.61,.59,1.17,1.51,2.14,2.64,2.79,2.41,1.31,5.32,1.31,7.73,0,1.16-.66,2.1-1.64,2.71-2.82,.68-1.32,1.03-2.78,1-4.26,.03-1.48-.32-2.95-1.02-4.26h0Z" fill="#002346"></path>
    <path d="M425.59,158.58c.71-1.36,1.8-2.5,3.13-3.26,1.39-.78,2.96-1.17,4.55-1.14,1.72-.04,3.41,.45,4.84,1.39,1.32,.87,2.33,2.14,2.89,3.62v-11.4h1.52v24.91h-1.52v-4.84c-.53,1.5-1.51,2.78-2.82,3.68-1.44,.98-3.16,1.48-4.91,1.43-1.59,.03-3.16-.37-4.55-1.16-1.34-.78-2.42-1.92-3.13-3.3-1.49-3.13-1.49-6.77,0-9.9v-.03Zm14.42,.73c-.61-1.18-1.55-2.16-2.7-2.83-1.16-.67-2.49-1.01-3.83-1-1.37-.02-2.71,.33-3.9,1-1.13,.65-2.04,1.61-2.63,2.77-1.25,2.73-1.25,5.88,0,8.61,.59,1.17,1.51,2.14,2.64,2.79,1.18,.67,2.53,1.02,3.89,1,1.35,0,2.67-.33,3.84-1,1.16-.66,2.1-1.64,2.71-2.82,.68-1.32,1.03-2.78,1-4.26,.03-1.48-.32-2.95-1.02-4.26h0Z" fill="#002346"></path>
    <path d="M476.9,156.03c-.64-1.73-1.81-3.21-3.34-4.24-1.64-1.08-3.57-1.63-5.53-1.58-1.75-.02-3.48,.44-5,1.31-1.51,.89-2.75,2.19-3.57,3.74-1.75,3.56-1.75,7.73,0,11.29,.82,1.55,2.06,2.83,3.57,3.71,3.08,1.7,6.8,1.74,9.91,.09,1.46-.81,2.67-2,3.5-3.45,.9-1.59,1.4-3.39,1.44-5.22h-10.56v-1.28h12.07v1c-.03,2.07-.58,4.1-1.58,5.91-.93,1.71-2.32,3.12-4,4.1-1.75,1-3.74,1.51-5.75,1.48-2.06,.03-4.09-.5-5.88-1.53-1.74-1.01-3.16-2.49-4.1-4.27-1.97-3.91-1.97-8.52,0-12.43,.94-1.78,2.36-3.26,4.1-4.27,1.79-1.03,3.82-1.56,5.88-1.53,2.33-.06,4.63,.6,6.57,1.9,1.85,1.29,3.25,3.13,4,5.26h-1.73Z" fill="#002346"></path>
    <path d="M484.15,158.58c.71-1.36,1.79-2.5,3.12-3.26,1.39-.77,2.97-1.17,4.56-1.14,1.74-.05,3.46,.44,4.91,1.41,1.29,.88,2.28,2.14,2.82,3.6v-4.77h1.51v18.28h-1.48v-4.81c-.54,1.48-1.54,2.76-2.84,3.65-1.44,.98-3.15,1.48-4.89,1.43-1.6,.02-3.17-.38-4.56-1.16-1.33-.78-2.42-1.92-3.12-3.3-1.51-3.13-1.51-6.77,0-9.9l-.03-.03Zm14.42,.73c-.62-1.18-1.56-2.16-2.71-2.83-1.16-.67-2.49-1.02-3.83-1-1.37-.02-2.71,.33-3.9,1-1.13,.65-2.04,1.61-2.62,2.77-1.25,2.73-1.25,5.88,0,8.61,.59,1.17,1.51,2.14,2.64,2.79,2.41,1.31,5.32,1.31,7.73,0,1.15-.66,2.09-1.64,2.7-2.82,.68-1.32,1.03-2.78,1-4.26,.04-1.48-.3-2.95-.99-4.26h-.02Z" fill="#002346"></path>
    <path d="M508.84,155.7v12.06c-.11,.99,.16,1.98,.74,2.78,.74,.58,1.68,.85,2.62,.75h2v1.41h-2.29c-1.27,.11-2.54-.3-3.51-1.13-.85-1.05-1.26-2.4-1.13-3.75v-12.12h-2.68v-1.31h2.75v-4.64h1.52v4.64h5.41v1.31h-5.43Z" fill="#002346"></path>
    <path d="M534.59,164.13h-15.74c0,1.45,.37,2.87,1.08,4.13,.63,1.08,1.54,1.96,2.65,2.53,1.12,.56,2.35,.85,3.6,.84,1.6,.05,3.18-.41,4.5-1.33,1.2-.87,2.02-2.16,2.29-3.62h1.62c-.32,1.8-1.31,3.42-2.76,4.53-1.62,1.2-3.6,1.81-5.61,1.73-1.6,.03-3.18-.37-4.57-1.15-1.35-.76-2.45-1.9-3.16-3.27-1.52-3.16-1.52-6.84,0-10,.71-1.36,1.8-2.49,3.14-3.24,1.41-.77,3-1.16,4.61-1.13,1.59-.04,3.16,.35,4.55,1.13,1.26,.7,2.3,1.74,3,3,.66,1.23,1.01,2.6,1,4-.11,.84-.13,1.42-.2,1.85Zm-2.31-5.34c-.59-1.08-1.5-1.96-2.6-2.51-1.11-.55-2.33-.83-3.56-.82-1.23,0-2.45,.27-3.55,.82-1.11,.57-2.03,1.44-2.66,2.51-.71,1.25-1.09,2.66-1.09,4.1h14.32c.12-1.42-.17-2.84-.83-4.1h-.03Z" fill="#002346"></path>
    <path d="M563.12,154.42l-5.75,18.28h-1.44l-5.82-16.17-5.85,16.17h-1.44l-5.75-18.25h1.58l4.94,16.5,5.85-16.53h1.44l5.82,16.47,4.89-16.47h1.53Z" fill="#002346"></path>
    <path d="M566.59,158.58c.71-1.36,1.8-2.5,3.13-3.26,1.39-.78,2.96-1.17,4.55-1.14,1.74-.06,3.46,.44,4.91,1.41,1.3,.87,2.29,2.13,2.83,3.6v-4.77h1.58v18.28h-1.51v-4.81c-.54,1.49-1.54,2.76-2.85,3.65-1.44,.98-3.15,1.48-4.89,1.43-1.59,.03-3.16-.37-4.55-1.16-1.34-.78-2.42-1.92-3.13-3.3-1.49-3.13-1.49-6.77,0-9.9l-.07-.03Zm14.42,.73c-.61-1.18-1.55-2.16-2.7-2.83-1.16-.67-2.49-1.02-3.83-1-1.37-.02-2.71,.33-3.9,1-1.13,.65-2.04,1.61-2.63,2.77-1.25,2.73-1.25,5.88,0,8.61,.59,1.17,1.51,2.14,2.64,2.79,1.18,.67,2.53,1.02,3.89,1,1.35,0,2.67-.33,3.84-1,1.16-.66,2.1-1.64,2.71-2.82,.68-1.32,1.03-2.78,1-4.26,.04-1.48-.3-2.95-.98-4.26h-.04Z" fill="#002346"></path>
    <path d="M603.32,154.42l-10.62,26.82h-1.55l3.44-8.54-7.66-18.25h1.64l6.86,16.57,6.39-16.57,1.5-.03h0Z" fill="#002346"></path>
    <path d="M461.32,99.7h-20.26v9c1.02-1.05,2.26-1.85,3.64-2.34,1.61-.62,3.33-.93,5.06-.91,2.86-.11,5.68,.66,8.09,2.21,2.09,1.4,3.72,3.39,4.7,5.71,1.01,2.4,1.52,4.99,1.5,7.6,0,5.06-1.43,9.06-4.29,12-2.86,2.94-6.89,4.42-12.08,4.45-3.09,.07-6.17-.54-9-1.78-2.41-1.07-4.46-2.8-5.91-5-1.41-2.19-2.19-4.73-2.27-7.34h10.84c.24,1.3,.9,2.47,1.88,3.35,1.15,.93,2.61,1.41,4.09,1.33,1.74,.13,3.44-.6,4.55-1.95,1.06-1.52,1.58-3.35,1.49-5.2,.12-1.76-.44-3.5-1.56-4.87-2.29-1.99-5.62-2.24-8.18-.61-.94,.69-1.6,1.69-1.88,2.82h-10.73v-28.17h30.32s0,9.7,0,9.7Z" fill="#002346"></path>
    <path d="M474.47,95.52c2.88-4.29,7.52-6.43,13.93-6.43s11.05,2.14,13.92,6.43c2.88,4.28,4.32,10.14,4.32,17.59s-1.44,13.36-4.32,17.73c-2.87,4.28-7.51,6.42-13.92,6.43-6.41,0-11.05-2.14-13.93-6.43-2.88-4.29-4.32-10.2-4.32-17.73s1.44-13.39,4.32-17.59Zm19.84,7.5c-.96-2.36-2.93-3.54-5.91-3.54s-4.95,1.18-5.91,3.54c-1,2.36-1.43,5.72-1.43,10.09-.04,2.45,.13,4.89,.52,7.31,.25,1.72,.98,3.34,2.11,4.67,2.68,2.39,6.73,2.39,9.41,0,1.13-1.33,1.86-2.95,2.11-4.67,.39-2.42,.56-4.86,.52-7.31,0-4.37-.47-7.74-1.42-10.09h0Z" fill="#002346"></path>
    <path d="M514.11,126.94c4.24-3.5,7.57-6.38,10-8.63,2.33-2.12,4.41-4.49,6.2-7.08,1.56-2.09,2.44-4.6,2.53-7.21,.09-1.48-.35-2.95-1.23-4.15-.93-1.05-2.3-1.6-3.7-1.5-1.51-.06-2.96,.63-3.86,1.85-1.02,1.54-1.52,3.38-1.4,5.23h-10.68c-.04-3.23,.78-6.41,2.37-9.22,1.38-2.37,3.43-4.26,5.9-5.45,2.55-1.19,5.34-1.79,8.15-1.76,5.16,0,9.05,1.33,11.66,4,2.67,2.76,4.09,6.49,3.93,10.33-.03,4.72-1.71,9.28-4.74,12.89-3.55,4.33-7.6,8.22-12.08,11.59h17.53v9h-32.59v-8.24c1.49-1.19,2.14-1.73,2.01-1.65h0Z" fill="#002346"></path>
    <g>
      <path d="M348.4,181.41s51.56,61.24,62.42,72.47c10.86,11.23,11.2,19.42,7.7,24.42s-29.84,14.35-57,31.78-104.29,62.42-105,64c-.71,1.58-8.16-54.36-8.16-54.36l129.04-53.11-.39-3.89-41.87-77.53,13.26-3.78h0Z" fill="#f2b3c1"></path>
      <path d="M256.49,374.61h-.08c-.56-.08-.93-.14-4.82-27.67-1.9-13.43-3.71-27.02-3.73-27.15l-.05-.38,.36-.15,128.7-52.97-.34-3.42-42.12-77.99,14.17-4.04,.21,.25c.52,.61,51.67,61.36,62.4,72.44,12.76,13.2,10.33,21.36,7.75,25.05-1.73,2.47-8.28,5.71-18.2,10.6-10.41,5.13-24.67,12.16-38.94,21.32-13.65,8.76-39.74,24.37-62.76,38.15-21.17,12.67-41.16,24.63-42.1,25.71-.05,.14-.24,.26-.44,.26h0Zm-.31-.9s-.09,.1-.12,.15c.02-.04,.06-.09,.12-.15Zm-7.27-53.69c2.63,19.76,6.69,48.79,7.8,53.25,2.6-1.96,13.49-8.55,41.82-25.5,23.01-13.77,49.09-29.38,62.73-38.13,14.32-9.19,28.6-16.23,39.04-21.37,9.43-4.65,16.24-8.01,17.83-10.27,2.41-3.44,4.61-11.1-7.65-23.79-10.4-10.75-58.63-67.98-62.23-72.25l-12.35,3.52,41.62,77.07,.44,4.36-129.03,53.1h-.02Z" fill="#002346"></path>
    </g>
    <g>
      <path d="M307.26,154.65s-6.2-5.44-9.3,0c-3.1,5.44-3.48,14.33-1.55,15.12s9.69-.38,10.85-2.72,0-12.4,0-12.4h0Z" fill="#f2b3c1"></path>
      <path d="M298.29,170.51c-.88,0-1.62-.09-2.07-.28-.46-.19-.83-.65-1.07-1.38-1.02-2.96-.21-9.92,2.38-14.46,.85-1.49,2-2.37,3.42-2.6,3.17-.53,6.5,2.35,6.64,2.48l.14,.13,.02,.19c.12,1.04,1.14,10.28-.05,12.68-1.02,2.05-6.21,3.24-9.42,3.24h0Zm3.46-17.78c-.22,0-.43,.02-.64,.05-1.11,.19-2.02,.9-2.71,2.11-2.62,4.6-3.12,11.25-2.3,13.63,.21,.6,.42,.74,.51,.78,1.91,.78,9.23-.5,10.21-2.48,.88-1.77,.3-9.02-.03-11.92-.58-.47-2.85-2.17-5.03-2.17h-.01Z" fill="#002346"></path>
    </g>
    <g>
      <path d="M318.11,151.93s-6.58-7-10.85-4.27-3.1,17.46-1.55,18.63,10.85-2,12.08-3.89,.32-10.47,.32-10.47Z" fill="#f2b3c1"></path>
      <path d="M306.88,167.04c-.67,0-1.16-.12-1.47-.35-1.15-.87-1.75-5.93-1.58-10.11,.11-2.8,.67-7.74,3.16-9.34,4.57-2.92,11.2,4.05,11.48,4.35l.12,.12,.02,.17c.1,.9,.89,8.81-.4,10.8-1.07,1.64-6.5,3.64-9.64,4.2-.66,.12-1.22,.17-1.69,.17h0Zm2.63-19.53c-.7,0-1.37,.16-1.98,.56-1.54,.99-2.53,4.1-2.7,8.53-.19,4.78,.66,8.88,1.19,9.28,.21,.15,.95,.24,2.38,0,3.45-.61,8.23-2.61,8.98-3.76,.82-1.26,.61-6.58,.26-9.97-.73-.73-4.73-4.63-8.12-4.63h-.01Z" fill="#002346"></path>
    </g>
    <g>
      <path d="M332.85,152.3s-5.82-8-11.23-8-9.32,19.39-7.37,20.94,14.72-.38,15.5-1.55c1.24-3.74,2.28-7.54,3.1-11.39Z" fill="#f2b3c1"></path>
      <path d="M317.66,166.32c-1.62,0-3.08-.17-3.72-.68-1.61-1.28-.17-9.17,1.52-14.03,1.24-3.56,3.32-7.8,6.16-7.8,5.6,0,11.39,7.87,11.63,8.21l.13,.18-.05,.22c-.82,3.85-1.87,7.71-3.12,11.44l-.06,.12c-.54,.82-3.92,1.46-5.89,1.77-.55,.09-3.83,.58-6.61,.58h0Zm3.96-21.53c-1.73,0-3.63,2.6-5.21,7.13-2.15,6.16-2.55,12.36-1.84,12.92,1.77,1.41,13.68-.56,14.75-1.42,1.2-3.6,2.21-7.3,3-11.01-.88-1.16-6.03-7.62-10.69-7.62h-.01Z" fill="#002346"></path>
    </g>
    <g>
      <path d="M344.19,165.5c0-2.31-1.15-22.49-8.06-21.32s-14.33,17.46-14,20.13c.33,2.67,22.06,1.19,22.06,1.19Z" fill="#f2b3c1"></path>
      <path d="M332.68,166.44c-5.66,0-10.85-.45-11.05-2.07-.37-3.03,7.39-19.5,14.41-20.69,1.14-.19,2.22,.12,3.19,.93,4.96,4.19,5.46,20.72,5.46,20.88v.47l-.47,.03c-2.85,.19-7.33,.44-11.54,.44h0Zm4.02-21.8c-.16,0-.32,0-.49,.04-6.56,1.11-13.9,17.03-13.59,19.58,.23,1.17,9.82,1.52,21.06,.78-.1-3.41-1.15-16.32-5.09-19.65-.6-.5-1.22-.75-1.89-.75Z" fill="#002346"></path>
    </g>
    <g>
      <path d="M214.85,593.1c20.01-3.36,45.32-16.58,54.72-33.53,.92-1.66,1.18-3.62,.82-5.49-5.91-31.38-13.14-74.09-13.14-100.52,0-45.74,12.08-71.71,6.59-102.68s-17.06-51.15-29.44-59.31c0,0-19,5-38.37,23.26s-36.44,49.54-43.09,79.4-15.54,121.72-15.54,145.76-1.73,53.88-1.73,53.88h69.64c3.2,.03,6.39-.23,9.54-.77Z" fill="#f69074"></path>
      <path d="M205.81,594.37h-70.67l.03-.53c.02-.3,1.73-30.1,1.73-53.85s8.87-115.89,15.55-145.87c6.66-29.91,23.63-61.17,43.24-79.66,19.24-18.14,38.39-23.33,38.59-23.38l.22-.06,.19,.12c13.73,9.05,24.54,30.79,29.66,59.64,3.03,17.1,.73,32.72-1.95,50.81-2.17,14.72-4.64,31.39-4.64,51.96s4.3,53.52,13.14,100.43c.38,2.04,.07,4.11-.88,5.82-9.74,17.57-35.65,30.52-55.07,33.78-3,.52-6.07,.78-9.12,.78h-.02Zm-69.61-.99h69.11c3.14,.03,6.34-.23,9.46-.76h0c19.2-3.23,44.78-15.99,54.37-33.28,.84-1.51,1.11-3.34,.77-5.15-8.85-46.97-13.15-79.88-13.15-100.61s2.47-37.35,4.65-52.1c2.66-18,4.96-33.55,1.95-50.49-5.04-28.45-15.62-49.88-29.03-58.85-2.14,.62-19.99,6.15-37.94,23.08-19.47,18.35-36.33,49.42-42.94,79.15-6.67,29.94-15.53,121.82-15.53,145.65,0,22.03-1.47,49.26-1.7,53.38l-.02-.02Z" fill="#002346"></path>
    </g>
    <g>
      <path d="M233.25,298.7l33.3,60.6,1.85,33.3s9.28-23.72,5.15-39.2-40.3-54.7-40.3-54.7h0Z" fill="#002346"></path>
      <path d="M268.03,394.92l-1.97-35.48-35.22-64.1,2.78,3.02c1.48,1.6,36.3,39.49,40.42,54.91,4.12,15.46-5.08,39.27-5.17,39.51l-.84,2.14h0Zm-32.28-92.72l31.3,56.95v.11l1.72,30.84c2.17-6.31,7.6-24.23,4.3-36.58-3.37-12.63-28.69-41.69-37.32-51.32h0Z" fill="#002346"></path>
    </g>
    <g>
      <path d="M268.33,390.62l-9.29,140.35,9.91,27.72c.1,.29,.53,.25,.57-.06l7.08-56.58-6.2-115.58-2.07,4.15h0Z" fill="#002346"></path>
      <path d="M269.23,559.39c-.33,0-.63-.21-.75-.53l-9.95-27.82v-.1l9.3-140.45,2.96-5.93,6.3,117.47-7.08,56.67c-.04,.37-.33,.65-.7,.69h-.08Zm-9.68-28.49l9.59,26.81,6.97-55.73-6.1-113.6-1.18,2.37-9.28,140.15Z" fill="#002346"></path>
    </g>
    <g>
      <polygon points="241.74 292.02 274.61 260.94 307.78 306.09 270.82 332.3 241.74 292.02" fill="#f2b3c1"></polygon>
      <path d="M270.7,333l-29.63-41.04,33.6-31.77,33.8,46.01-37.78,26.79h.01Zm-28.31-40.9l28.54,39.52,36.14-25.63-32.53-44.28-32.14,30.39h0Z" fill="#002346"></path>
    </g>
    <g>
      <path d="M245.12,277.54l38,59.67-17.48,23.16c-7.87-15.67-16.63-30.87-26.24-45.54-12.92-18.84-14.44-22-14.44-22l20.16-15.29h0Z" fill="#fff"></path>
      <path d="M265.55,361.31l-.36-.72c-7.83-15.59-16.65-30.9-26.21-45.49-12.79-18.65-14.41-21.93-14.47-22.06l-.18-.37,20.92-15.86,.29,.46,38.19,59.96-18.17,24.08h-.01Zm-39.95-68.34c.69,1.23,3.56,6.05,14.21,21.58,9.44,14.41,18.15,29.5,25.91,44.88l16.79-22.24-37.52-58.92-19.39,14.7h0Z" fill="#002346"></path>
    </g>
    <g>
      <path d="M340.45,423.44s11-12.16,12.17-20.29,1.55-12.81,6.2-16.67c4.65-3.86,19.77-19.39,22.15-25.21s3.86-.38,5,4.27,.77,8.92-3.1,11.64c-1.93,1.44-3.74,3.04-5.4,4.78-1.1,1.15-.94,3.02,.32,4h0c.75,.58,1.73,.74,2.62,.4,8.02-3.02,47.56-17.88,52.09-19.6,5.05-1.91,9.68-.4,10.07,3.48s-1.15,4.27-3.49,5.44-27.9,10.06-31.4,11.61l-.78,.34c-1.31,.58-1.63,2.29-.61,3.3h0c.4,.4,.93,.61,1.49,.6,3.16-.09,14.13-.41,20.07-.74,6.99-.38,17.43-1.55,19,.76,1.44,2.15,.93,5.06-1.16,6.59-1.65,1.58-3.94,2.31-6.2,2-2.85,0-23.33,1.54-30.7,2.11-1.41,.11-2.42,1.42-2.16,2.81h0c.18,1,.96,1.77,1.96,1.93,6.55,1.05,30.29,4.96,31.28,6.33,1.15,1.59,1.17,2.33,0,4.65s-2,2.33-5,2.33c-2.53,0-20.79-2.75-26.49-3.62-.35-.05-.5,.41-.2,.59,3.34,1.9,11.24,6.4,12.46,7.3,1.55,1.15,7,2,5.42,4.65s-2.32,3.48-4.65,3.1c-1.88-.31-13.15-5.19-17.39-7.04-1.06-.46-2.21-.62-3.36-.47-4.42,.6-16.01,2.16-20.4,2.48-4.03,.18-8.07,.05-12.08-.4l-15.5,10.06-12.23-13.52h0Z" fill="#f2b3c1"></path>
      <path d="M352.59,437.61l-12.82-14.17,.3-.34c.11-.12,10.91-12.14,12.05-20.03l.22-1.53c1.03-7.31,1.66-11.72,6.16-15.46,4.88-4.05,19.73-19.44,22.01-25.01,.82-2,1.6-2.89,2.52-2.83,1.57,.12,2.45,3.18,3.43,7.17,1.39,5.65,.31,9.63-3.3,12.17-1.89,1.41-3.69,3-5.32,4.72-.43,.45-.64,1.04-.59,1.66,.05,.63,.36,1.21,.86,1.6,.61,.48,1.41,.6,2.13,.33,8.02-3.02,47.56-17.88,52.09-19.6,3.17-1.2,6.31-1.14,8.41,.16,1.37,.85,2.18,2.14,2.34,3.73,.39,3.91-1.12,4.65-3.22,5.67l-.55,.27c-1.23,.62-8.39,3.19-15.97,5.92-6.77,2.44-13.77,4.96-15.45,5.7l-.78,.35c-.47,.21-.79,.62-.89,1.12-.09,.51,.06,1.01,.42,1.37,.3,.3,.75,.47,1.12,.45,3.21-.09,14.16-.41,20.05-.73,1.13-.06,2.35-.14,3.61-.23,8.4-.57,14.46-.81,15.83,1.21,1.6,2.39,1.04,5.58-1.28,7.27-1.72,1.65-4.13,2.43-6.56,2.09-2.71,0-22.3,1.48-30.59,2.11-.54,.04-1.02,.3-1.35,.73-.33,.42-.46,.97-.36,1.5,.14,.79,.77,1.4,1.55,1.52,13.88,2.23,30.63,5.18,31.61,6.53,1.28,1.77,1.29,2.69,.04,5.17-1.31,2.6-2.44,2.6-5.45,2.6-2.43,0-19.08-2.49-25.57-3.48,4.22,2.4,10.53,6.02,11.64,6.84,.39,.29,1.14,.59,1.93,.9,1.61,.64,3.44,1.37,3.88,2.66,.19,.55,.1,1.14-.26,1.74-1.61,2.71-2.54,3.76-5.16,3.34-1.85-.3-11.76-4.56-17.51-7.08-.97-.42-2.04-.57-3.09-.43-4.69,.64-16.07,2.16-20.44,2.48-4,.18-8.03,.05-11.99-.38l-15.71,10.19v.03Zm-11.46-14.17l11.64,12.87,15.29-9.93,.18,.02c3.97,.44,8.01,.58,12,.4,4.32-.32,15.68-1.84,20.36-2.48,1.23-.17,2.48,0,3.62,.5,9.56,4.18,16.02,6.8,17.27,7.01,2.01,.33,2.58-.25,4.14-2.86,.21-.35,.26-.64,.17-.91-.29-.85-1.96-1.52-3.3-2.05-.85-.34-1.66-.66-2.16-1.03-1.19-.88-9.07-5.38-12.41-7.27-.35-.2-.5-.6-.37-.98s.5-.6,.89-.54c5.57,.85,23.92,3.62,26.41,3.62,2.98,0,3.52,0,4.55-2.05,1.14-2.26,1.03-2.76,.04-4.13-.91-.83-13.06-3.25-30.95-6.12-1.2-.19-2.16-1.13-2.38-2.33-.15-.81,.05-1.64,.55-2.29s1.25-1.05,2.06-1.11c8.3-.63,27.93-2.11,30.74-2.11,2.2,.3,4.3-.38,5.86-1.86,1.93-1.42,2.39-4.01,1.09-5.95-1.15-1.7-9.12-1.16-14.93-.77-1.26,.08-2.49,.17-3.63,.23-5.91,.32-16.86,.65-20.08,.74-.74,0-1.37-.25-1.86-.74-.59-.59-.85-1.44-.7-2.26s.7-1.52,1.46-1.86l.78-.35c1.71-.76,8.42-3.17,15.52-5.73,7.22-2.6,14.68-5.28,15.86-5.87l.56-.27c1.99-.97,2.98-1.45,2.66-4.67-.13-1.27-.77-2.31-1.87-2.98-1.83-1.14-4.65-1.17-7.53-.08-4.53,1.71-44.07,16.58-52.09,19.6-1.05,.4-2.21,.22-3.1-.48-.72-.56-1.17-1.4-1.24-2.31-.07-.9,.25-1.78,.87-2.42,1.68-1.76,3.51-3.39,5.46-4.84,3.24-2.28,4.19-5.91,2.91-11.12-.43-1.73-1.56-6.34-2.53-6.41-.06,0-.62,0-1.52,2.21-2.5,6.11-17.94,21.79-22.29,25.41-4.2,3.49-4.81,7.76-5.81,14.83l-.22,1.53c-1.08,7.52-10.18,18.16-11.99,20.22l.02-.03Z" fill="#002346"></path>
    </g>
    <g>
      <path d="M235.17,406.63s-11.26-46.91-15.91-57.33c-4.65-10.42-31-20.13-43.81,2.72s-1.16,48.84,3.51,67.45,34.1,102.67,38.37,113.2,12.08,8.06,16.29,7,122.1-96.16,122.1-96.16l-13.27-30.07-87.53,56.1-19.75-62.91h0Z" fill="#f69074"></path>
      <path d="M227.57,541.19c-3.78,0-7.98-1.61-10.7-8.33-4.57-11.27-33.87-95.24-38.39-113.27-.79-3.15-1.77-6.49-2.82-10.03-5.07-17.21-11.38-38.63-.64-57.79,7.27-12.97,18.14-14.47,23.97-14.2,9.96,.45,18.37,6.21,20.73,11.52,4.6,10.31,15.42,55.25,15.93,57.4l19.55,62.27,87.47-56.06,13.66,30.95-.3,.24c-4.82,3.89-118.02,95.18-122.29,96.26l-.5,.13c-1.53,.39-3.53,.91-5.67,.91h0Zm-29.77-202.64c-5.79,0-15.36,2.01-21.92,13.71-10.54,18.79-4.29,39.98,.73,57.01,1.05,3.55,2.04,6.91,2.83,10.07,4.52,18,33.79,101.88,38.35,113.13,3.94,9.72,10.99,7.91,15.2,6.83l.51-.13c3.48-.94,88.66-69.25,121.61-95.82l-12.88-29.18-87.59,56.13-.2-.62-19.76-62.94c-.11-.47-11.3-46.98-15.88-57.24-2.24-5.03-10.29-10.49-19.87-10.93-.36-.02-.74-.03-1.13-.03h0Z" fill="#002346"></path>
    </g>
    <g>
      <path d="M86.93,323.3l-54.48,38.14s27.34,26.93,24.62,100.13c-2,55.91,5.38,119.39,16.11,132.3h57s-19.71-108.72-18.3-171c1.1-47.34-13.11-80.2-24.95-99.57Z" fill="#e6e7e8"></path>
      <path d="M130.78,594.37h-57.83l-.15-.18c-10.71-12.89-18.29-74.87-16.23-132.64,2.68-72.15-24.2-99.48-24.47-99.75l-.43-.42,.49-.34,54.92-38.45,.28,.45c12.02,19.66,26.11,52.94,25.02,99.84-1.39,61.52,18.1,169.81,18.29,170.9l.11,.59h0Zm-57.36-1h56.17c-1.56-8.74-19.54-111.25-18.2-170.51,1.08-46.3-12.71-79.24-24.6-98.84l-53.57,37.51c3.41,3.78,26.88,32.39,24.36,100.07-2.01,56.29,5.53,118.86,15.85,131.78h-.01Z" fill="#002346"></path>
    </g>
    <g>
      <path d="M93.22,323.43l-53.4,37.05s26.39,27.9,23.65,101.1c-2,55.91,5.38,119.39,16.11,132.3h57s-19.69-108.72-18.28-171c1.1-47.19-13.02-79.99-24.79-99.39-.06-.1-.19-.13-.29-.06Z" fill="#fff"></path>
      <path d="M137.18,594.37h-57.83l-.15-.18c-10.71-12.89-18.29-74.87-16.22-132.64,2.7-72.1-23.25-100.46-23.51-100.74l-.4-.42,53.88-37.38c.16-.11,.36-.15,.55-.11s.36,.16,.46,.32c11.94,19.68,25.95,52.94,24.86,99.66-1.39,61.52,18.07,169.81,18.27,170.9l.11,.59h-.02Zm-57.36-1h56.17c-1.55-8.74-19.52-111.25-18.18-170.51,1.07-46.26-12.72-79.25-24.55-98.84l-52.68,36.55c3.24,3.84,25.94,33.28,23.41,101.03-2.01,56.29,5.53,118.86,15.85,131.78h-.02Zm13.69-269.55h0Z" fill="#002346"></path>
    </g>
    <path d="M394.5,269.62h-.07l-17.1-2.51c-.27-.04-.46-.29-.42-.57,.04-.27,.3-.46,.57-.42l17.1,2.51c.27,.04,.46,.29,.42,.57-.04,.25-.25,.43-.49,.43h-.01Z" fill="#002346"></path>
    <path d="M339.26,451.26c-.19,0-.37-.11-.45-.29l-9.38-19.73c-.12-.25-.01-.55,.24-.67,.25-.12,.55-.01,.67,.24l9.38,19.73c.12,.25,.01,.55-.24,.67-.07,.03-.14,.05-.21,.05h-.01Z" fill="#002346"></path>
    <g>
      <path d="M32.5,361.44l7.32-.97,53.38-37.03c.06-.04,.03-.14-.04-.14h-6.23l-54.44,38.11v.02h.01Z" fill="#e6e7e8"></path>
      <path d="M32.18,361.99l-.3-.75,.33-.24,54.56-38.2h6.75l.18,.4c.08,.24-.01,.5-.22,.65l-53.48,37.1-7.83,1.04h0Zm54.91-38.19l-52.67,36.88,5.22-.69,52.17-36.19h-4.72Z" fill="#002346"></path>
    </g>
    <path d="M571.45,576.94c-.23,0-.44-.16-.49-.39-1.93-8.7-11.17-15.24-11.27-15.3-.23-.16-.28-.47-.12-.7,.16-.23,.47-.28,.7-.12,.39,.27,9.65,6.82,11.67,15.91,.06,.27-.11,.54-.38,.6-.04,0-.07,.01-.11,.01h0Z" fill="#002346"></path>
    <path d="M567.62,567.89c-.23,0-.43-.16-.49-.39-.06-.27,.11-.54,.38-.6l12.83-2.95c.27-.06,.54,.11,.6,.38s-.11,.54-.38,.6l-12.83,2.95s-.08,.01-.11,.01Z" fill="#002346"></path>
    <path d="M841.35,594.37H24.41c-.28,0-.5-.22-.5-.5s.22-.5,.5-.5H841.35c.28,0,.5,.22,.5,.5s-.22,.5-.5,.5Z" fill="#002346"></path>
    <g>
      <path d="M313.02,193.47h0c23.47,0,42.5,19.03,42.5,42.5v31c0,23.47-19.03,42.5-42.5,42.5h0c-23.47,0-42.5-19.03-42.5-42.5v-31c0-23.47,19.03-42.5,42.5-42.5Z" fill="#f2b3c1"></path>
      <path d="M313.02,309.97c-23.71,0-43-19.29-43-43v-31c0-23.71,19.29-43,43-43s43,19.29,43,43v31c0,23.71-19.29,43-43,43Zm0-116c-23.16,0-42,18.84-42,42v31c0,23.16,18.84,42,42,42s42-18.84,42-42v-31c0-23.16-18.84-42-42-42Z" fill="#002346"></path>
    </g>
    <g>
      <path d="M296.4,203.87c4.59-3.05,28.63,8.5,44.6,16.8,7.07,3.67,15.6-1.03,16.27-8.96,.96-11.47,1.64-25.9-.07-33.3-3.1-13.44-22.86-20.11-42.63-17.11s-24.8,10.47-24.8,10.47c0,0-27.93-.38-43.81,12.81s-6.2,34.1-1.17,41.47c.53,.72,1.08,1.43,1.63,2.13,8.34,10.65,13.73,23.32,15.18,36.77,.38,3.51,.71,6.6,.92,8.52l10.13-12.53,13.19-7,.2-.05c5.15-1.21,8.13-6.29,7.19-11.49-.34-1.87-.02-3.9,1.53-5.89,5.44-6.97,15.5-9.3,15.89-14.74s-21.25-13.25-14.25-17.9h0Z" fill="#002346"></path>
      <path d="M262.16,274.72l-.13-1.19c-.21-1.92-.54-5.01-.92-8.52-1.41-13.09-6.62-25.72-15.08-36.51-.55-.71-1.1-1.42-1.63-2.14-.74-1.09-17.69-26.42,1.25-42.15,15.02-12.48,41-12.92,43.88-12.93,1.02-1.3,6.88-7.72,24.98-10.46,21.22-3.22,40.19,4.46,43.19,17.49,1.74,7.55,1.01,22.36,.08,33.45-.32,3.89-2.56,7.34-5.98,9.23-3.43,1.89-7.54,1.94-11.01,.14-24.76-12.86-40.83-19-44.1-16.83h0c-.78,.52-1.16,1.07-1.17,1.68-.03,2.05,4.01,4.88,7.58,7.39,4.24,2.98,8.25,5.8,8.06,8.45-.23,3.25-3.51,5.38-7.3,7.85-2.96,1.92-6.31,4.11-8.7,7.17-1.31,1.68-1.79,3.52-1.44,5.49,1.02,5.63-2.23,10.82-7.57,12.07l-.13,.03-13.04,6.92-10.82,13.39v-.02Zm27.45-102.45c-2.28,0-28.39,.29-43.33,12.69-18.25,15.16-1.79,39.76-1.08,40.8,.52,.7,1.06,1.4,1.61,2.1,8.57,10.94,13.86,23.75,15.29,37.02,.31,2.85,.59,5.43,.79,7.33l9.53-11.73,13.31-7.04,.2-.05c4.81-1.13,7.74-5.82,6.81-10.92-.41-2.26,.14-4.38,1.63-6.29,2.49-3.19,5.92-5.42,8.94-7.39,3.57-2.32,6.65-4.33,6.85-7.08,.15-2.09-3.99-5-7.64-7.56-4.13-2.9-8.04-5.65-8.01-8.22,.01-.95,.56-1.79,1.62-2.5h0c4.65-3.09,27.1,7.42,45.11,16.77,3.17,1.65,6.94,1.6,10.07-.13,3.13-1.73,5.17-4.88,5.47-8.43,.92-11.02,1.66-25.72-.06-33.14-2.89-12.52-21.36-19.87-42.07-16.73-19.33,2.93-24.41,10.18-24.46,10.26l-.15,.22h-.43v.02Z" fill="#002346"></path>
    </g>
    <g>
      <ellipse cx="279.01" cy="256.26" rx="10.7" ry="17.69" transform="translate(-53.17 74.12) rotate(-13.83)" fill="#f2b3c1"></ellipse>
      <path d="M281.64,274.13c-2.45,0-5-1.23-7.34-3.56-2.83-2.82-5.01-6.96-6.17-11.63-1.15-4.68-1.13-9.35,.06-13.16,1.22-3.9,3.51-6.45,6.47-7.18,2.95-.73,6.17,.47,9.06,3.35,2.83,2.82,5.01,6.96,6.17,11.63,1.15,4.68,1.13,9.35-.06,13.16-1.22,3.9-3.51,6.45-6.47,7.18-.57,.14-1.14,.21-1.72,.21Zm-5.26-34.74c-.5,0-.99,.06-1.48,.18-2.6,.64-4.64,2.95-5.75,6.5-1.14,3.64-1.15,8.13-.04,12.63,1.11,4.5,3.2,8.47,5.9,11.16,2.63,2.63,5.51,3.73,8.11,3.09,2.6-.64,4.64-2.95,5.75-6.5,1.14-3.64,1.15-8.13,.04-12.63s-3.2-8.47-5.9-11.16c-2.14-2.14-4.45-3.27-6.63-3.27h0Z" fill="#002346"></path>
    </g>
  </g>
  <g>
    <g>
      <path d="M174.43,148.2s10.58-8.9,22.6-.24c0,0,7.54,5.87,2.51,10.9,0,0-5.31,3.63-13.13-2.51,0,0-8.31-6.79-11.98-8.14h0Z" fill="#7cd295"></path>
      <path d="M195.3,160.18c-2.33,0-5.44-.78-9.06-3.62-.09-.07-8.32-6.78-11.9-8.1l-.45-.17,.37-.31c.11-.09,10.89-8.94,22.94-.25,.18,.14,4.12,3.24,4.35,6.97,.1,1.6-.51,3.07-1.8,4.36-.05,.04-1.7,1.12-4.45,1.12h0Zm-20.3-12.06c3.84,1.69,11.27,7.73,11.6,8,7.57,5.95,12.74,2.54,12.79,2.5,1.13-1.14,1.69-2.46,1.6-3.89-.21-3.47-4.09-6.52-4.13-6.55-10.43-7.52-19.88-1.5-21.86-.06Z" fill="#002346"></path>
    </g>
    <g>
      <path d="M162.73,143.85s11.67-16.29,4.68-32.21c0,0-7.82-15.65,1.4-20.4,0,0,11.46-4.75,17.6,12.01,0,0,8.24,24.47-23.68,40.59h0Z" fill="#7cd295"></path>
      <path d="M161.83,144.62l.67-.93c.12-.16,11.49-16.34,4.65-31.93-.07-.15-7.83-15.94,1.53-20.76,.18-.08,4.06-1.64,8.57,.34,4.03,1.77,7.2,5.75,9.43,11.83,.02,.07,2.07,6.29,.14,14.41-1.77,7.48-7.37,18.15-23.96,26.53l-1.02,.52h0Zm10.68-53.72c-2.12,0-3.58,.59-3.6,.6-8.85,4.56-1.33,19.86-1.25,20.01,6.04,13.77-1.82,27.94-4.11,31.6,15.64-8.19,20.99-18.43,22.71-25.64,1.9-7.97-.1-14.06-.12-14.13-2.17-5.93-5.24-9.8-9.13-11.5-1.64-.72-3.2-.94-4.5-.94Z" fill="#002346"></path>
    </g>
    <g>
      <path d="M133.07,96.91c-2.9,1.43-4.8,4.37-4.75,7.59,.06,4.03,2.53,9.59,14.22,12.72,0,0,13.71,3.4,15.24,13.57,0,0,3.78-12.61-2.67-24.65-2.47-4.61-6.58-8.18-11.59-9.7-3.15-.95-6.9-1.28-10.45,.47h0Z" fill="#7cd295"></path>
      <path d="M157.69,132.08l-.19-1.25c-1.48-9.87-14.89-13.31-15.03-13.34-11.82-3.16-14.37-8.81-14.44-12.99-.05-3.28,1.88-6.36,4.91-7.85h0c3.1-1.53,6.68-1.69,10.65-.49,5,1.52,9.17,5.01,11.76,9.84,6.43,12.01,2.73,24.74,2.69,24.87l-.36,1.21h.01Zm-19.1-36.14c-1.94,0-3.74,.41-5.39,1.22h0c-2.84,1.4-4.64,4.28-4.6,7.34,.06,3.98,2.54,9.38,14.01,12.45,.13,.03,12.78,3.27,15.19,12.55,.73-3.43,2.23-13.57-2.94-23.23-2.51-4.7-6.57-8.09-11.42-9.56-1.69-.51-3.31-.77-4.85-.77h0Z" fill="#002346"></path>
    </g>
    <g>
      <path d="M132.42,138.8c.7,1.34,2.01,2.83,4.25,4.4,0,0,8.82,5.12,11.12,12.34,0,0-.22-11.78-6.93-20.72,0,0-.58-1.1-1.78-1.96-3.95-2.84-8.93,1.63-6.67,5.94h0Z" fill="#7cd295"></path>
      <path d="M148.11,157.48l-.59-1.85c-2.23-7.03-10.9-12.13-10.99-12.18-2.09-1.46-3.55-2.98-4.36-4.52h0c-1.26-2.41-.35-4.77,1.12-6.04,1.74-1.51,4.08-1.61,5.96-.26,1.24,.89,1.84,2.01,1.86,2.06,6.66,8.87,6.96,20.73,6.96,20.85l.04,1.94Zm-11.66-25.23c-1.11,0-2.11,.47-2.79,1.07-1.2,1.05-2.19,3.08-.99,5.35h0c.77,1.46,2.17,2.91,4.16,4.31,.32,.18,7.58,4.45,10.55,10.76-.36-3.64-1.72-12.04-6.74-18.74-.03-.05-.59-1.09-1.72-1.9-.84-.6-1.69-.84-2.47-.84h0Z" fill="#002346"></path>
    </g>
    <g>
      <polygon points="143.1 166.68 144.59 195.88 169.37 195.88 171.04 166.96 143.1 166.68" fill="#fff"></polygon>
      <path d="M169.37,196.16h-24.78c-.15,0-.27-.12-.28-.27l-1.49-29.2c0-.08,.02-.15,.08-.21,.05-.06,.12-.09,.21-.09l27.94,.28c.08,0,.15,.03,.2,.09s.08,.13,.08,.21l-1.68,28.92c0,.15-.13,.27-.28,.27h0Zm-24.51-.56h24.25l1.64-28.36-27.35-.27,1.46,28.63Z" fill="#002346"></path>
    </g>
    <path d="M162.38,166.82h-.02c-.16,0-.27-.15-.26-.3,0-.12,.97-11.64,8.89-17.01,4.69-3.18,10.85-3.6,18.29-1.26,.15,.05,.23,.21,.18,.35s-.2,.23-.35,.18c-7.27-2.29-13.26-1.89-17.81,1.19-7.7,5.21-8.64,16.47-8.65,16.59,0,.15-.13,.26-.28,.26h.01Z" fill="#002346"></path>
    <path d="M158.08,166.63c-.12,0-.24-.08-.27-.21-4.39-15.7,6.24-24.79,8.42-26.46,.65-.5,1.41-1.09,2.14-1.72,19.31-16.61,8.14-35.22,8.02-35.4-.08-.13-.04-.31,.09-.39,.13-.08,.31-.04,.39,.09,.12,.19,11.54,19.19-8.13,36.13-.74,.64-1.51,1.24-2.17,1.74-2.13,1.63-12.51,10.51-8.22,25.86,.04,.15-.05,.31-.2,.35-.03,0-.05,0-.08,0h.01Z" fill="#002346"></path>
    <path d="M156.07,166.84c-.09,0-.19-.05-.24-.13-6.83-11-1.74-25.02,0-29.06,.43-1.02,.74-1.86,.96-2.67,4.8-17.27-9.78-27.75-9.93-27.86-.13-.09-.16-.27-.07-.39,.09-.13,.26-.16,.39-.07,.15,.11,15.05,10.81,10.15,28.47-.23,.83-.54,1.7-.99,2.74-1.7,3.97-6.71,17.77-.03,28.54,.08,.13,.04,.31-.09,.39-.05,.03-.1,.04-.15,.04h.01Z" fill="#002346"></path>
    <path d="M148.89,166.66h0c-.16,0-.28-.14-.27-.29,.74-18.35-10.02-25.65-10.13-25.72-.13-.09-.17-.26-.08-.39s.26-.17,.39-.08c.11,.07,11.14,7.53,10.38,26.21,0,.15-.13,.27-.28,.27h0Z" fill="#002346"></path>
  </g>
</svg>
