<svg id="a36bb9ba-07dd-4628-a4d2-20d64a4f0acf" data-name="Layer 1" xmlns="http://www.w3.org/2000/svg" xmlns:xlink="http://www.w3.org/1999/xlink" width="865.76" height="682.89" viewBox="0 0 865.76 682.89"><defs><clipPath id="b0f48621-f80a-44da-b65b-295fbed46f18"><circle id="b597eafe-6683-4ebb-9e85-8eb431b269a5" data-name="SVGID" cx="685.27" cy="169.06" r="123.86" fill="#0071f2" opacity="0.17"/></clipPath><clipPath id="fc936276-b053-4a0d-97f1-1194530e3327"><path id="f57ac40d-2f97-4901-82f6-0d1c2b593fc5" data-name="SVGID" d="M689.91,113.21s-22.82,34.6-11,50.1c0,0,12.92,15.22,13.21,24.41,0,1,33,2.87,39.62-5.46,0,0-.29-13.49,3.73-17.8,0,0-12.06-36.18,8-48.24l-5.17-3.71-13.2-13.23Z" fill="#0071f2"/></clipPath></defs><path d="M320.52,347a1.29,1.29,0,0,1-1.29-1.29V256.48A13.47,13.47,0,0,1,332.67,243H514.18a1.29,1.29,0,0,1,1.29,1.29v81.15a1.29,1.29,0,1,1-2.57,0V245.6H332.68a10.87,10.87,0,0,0-10.87,10.88v89.27A1.29,1.29,0,0,1,320.52,347Z" fill="#2f2e41"/><polygon points="504.38 318.03 514.18 322.19 523.99 318.03 514.18 341.26 504.38 318.03" fill="#2f2e41"/><path d="M258.72,394.65a1.28,1.28,0,0,1-1.28-1.29V358.63a13.14,13.14,0,0,1,13.12-13.14H593.89a1.29,1.29,0,1,1,0,2.58H270.56A10.56,10.56,0,0,0,260,358.62v34.74A1.29,1.29,0,0,1,258.72,394.65Z" fill="#2f2e41"/><path d="M298.46,317.89h46a2.57,2.57,0,0,1,2.58,2.58v54.61a4.63,4.63,0,0,1-4.63,4.63H300.54a4.63,4.63,0,0,1-4.64-4.63h0V320.47A2.58,2.58,0,0,1,298.46,317.89Z" fill="#fff"/><path d="M342.39,380.14H300.53a5.07,5.07,0,0,1-5.06-5.06V320.47a3,3,0,0,1,3-3h46a3,3,0,0,1,3,3v54.61A5.07,5.07,0,0,1,342.39,380.14Zm-43.93-61.82a2.16,2.16,0,0,0-2.13,2.15v54.61a4.21,4.21,0,0,0,4.2,4.2h41.86a4.21,4.21,0,0,0,4.2-4.2V320.47a2.15,2.15,0,0,0-2.15-2.15Z" fill="#2f2e41"/><path d="M298.46,317.89h46a2.57,2.57,0,0,1,2.58,2.58v3.67H295.9v-3.67A2.58,2.58,0,0,1,298.46,317.89Z" fill="#2f2e41"/><path d="M334.54,321.16a1.67,1.67,0,1,0-1.68,1.65h0A1.67,1.67,0,0,0,334.54,321.16Z" fill="#fff" stroke="#263238" stroke-linecap="round" stroke-linejoin="round"/><path d="M339.86,321.16a1.67,1.67,0,1,0-1.67,1.65h0A1.66,1.66,0,0,0,339.86,321.16Z" fill="#fff" stroke="#263238" stroke-linecap="round" stroke-linejoin="round"/><path d="M345.16,321.16a1.66,1.66,0,1,0-1.65,1.65h0A1.65,1.65,0,0,0,345.16,321.16Z" fill="#fff" stroke="#263238" stroke-linecap="round" stroke-linejoin="round"/><path d="M315.31,346.38a1.28,1.28,0,0,1-.8-.28l-8.75-6.93a1.27,1.27,0,0,1-.49-1,1.3,1.3,0,0,1,.49-1l8.75-6.91a1.29,1.29,0,0,1,1.6,2l-7.47,5.91,7.47,5.91a1.29,1.29,0,0,1-.8,2.3Z" fill="#2f2e41"/><path d="M327.31,346.38a1.29,1.29,0,0,1-.8-2.3l7.48-5.91-7.48-5.91a1.29,1.29,0,1,1,1.6-2l8.75,6.91a1.29,1.29,0,0,1,0,2l-8.76,6.93A1.28,1.28,0,0,1,327.31,346.38Z" fill="#2f2e41"/><path d="M319.79,347.6l-.2,0a1.29,1.29,0,0,1-1.08-1.47l2.65-16.69a1.29,1.29,0,0,1,1.47-1.08,1.3,1.3,0,0,1,1.08,1.48l-2.65,16.69A1.3,1.3,0,0,1,319.79,347.6Z" fill="#2f2e41"/><path d="M341.74,354.64h-9.67a.43.43,0,0,1,0-.86h9.67a.43.43,0,1,1,0,.86Z" fill="#2f2e41"/><path d="M330.31,354.64H317.73a.43.43,0,1,1,0-.86h12.58a.43.43,0,0,1,0,.86Z" fill="#2f2e41"/><path d="M315,354.64h-7.79a.43.43,0,0,1,0-.86H315a.43.43,0,0,1,0,.86Z" fill="#2f2e41"/><path d="M305.41,354.64h-3.65a.43.43,0,1,1,0-.86h3.65a.43.43,0,0,1,0,.86Z" fill="#2f2e41"/><path d="M341.74,360.35h-5.65a.43.43,0,1,1,0-.85h5.65a.43.43,0,1,1,0,.85Z" fill="#2f2e41"/><path d="M333.33,360.35h-25.4a.43.43,0,1,1,0-.85h25.4a.43.43,0,0,1,0,.85Z" fill="#2f2e41"/><path d="M304.92,360.35h-3.16a.43.43,0,1,1,0-.85h3.16a.43.43,0,1,1,0,.85Z" fill="#2f2e41"/><path d="M341.74,366.07H322.51a.43.43,0,0,1-.43-.43.43.43,0,0,1,.43-.43h19.23a.43.43,0,0,1,.43.43A.44.44,0,0,1,341.74,366.07Z" fill="#2f2e41"/><path d="M319,366.07H306.42a.43.43,0,0,1-.43-.43.43.43,0,0,1,.43-.43H319a.43.43,0,0,1,.43.43A.44.44,0,0,1,319,366.07Z" fill="#2f2e41"/><path d="M304.41,366.07h-2.65a.44.44,0,0,1-.43-.43.43.43,0,0,1,.43-.43h2.65a.43.43,0,0,1,.43.43A.43.43,0,0,1,304.41,366.07Z" fill="#2f2e41"/><path d="M341.74,371.78h-5.4a.43.43,0,0,1,0-.86h5.4a.43.43,0,1,1,0,.86Z" fill="#2f2e41"/><path d="M333.33,371.78H318a.43.43,0,0,1,0-.86h15.34a.43.43,0,0,1,0,.86Z" fill="#2f2e41"/><path d="M315,371.78H301.76a.43.43,0,0,1,0-.86H315a.43.43,0,0,1,0,.86Z" fill="#2f2e41"/><path d="M394.67,317.89h46a2.57,2.57,0,0,1,2.57,2.58v54.61a4.63,4.63,0,0,1-4.63,4.63H396.75a4.63,4.63,0,0,1-4.63-4.63h0V320.47A2.57,2.57,0,0,1,394.67,317.89Z" fill="#fff"/><path d="M438.6,380.14H396.75a5.07,5.07,0,0,1-5.06-5.06V320.47a3,3,0,0,1,3-3h46a3,3,0,0,1,3,3v54.61A5.07,5.07,0,0,1,438.6,380.14Zm-43.93-61.82a2.15,2.15,0,0,0-2.12,2.15v54.61a4.21,4.21,0,0,0,4.2,4.2H438.6a4.21,4.21,0,0,0,4.2-4.2V320.47a2.14,2.14,0,0,0-2.14-2.15Z" fill="#2f2e41"/><path d="M394.67,317.89h46a2.57,2.57,0,0,1,2.57,2.58v3.67H392.12v-3.67A2.57,2.57,0,0,1,394.67,317.89Z" fill="#2f2e41"/><path d="M430.75,321.16a1.67,1.67,0,1,0-1.67,1.65h0A1.65,1.65,0,0,0,430.75,321.16Z" fill="#fff" stroke="#263238" stroke-linecap="round" stroke-linejoin="round"/><path d="M436.08,321.16a1.67,1.67,0,1,0-3.33,0,1.65,1.65,0,0,0,1.65,1.67h0A1.67,1.67,0,0,0,436.08,321.16Z" fill="#fff" stroke="#263238" stroke-linecap="round" stroke-linejoin="round"/><path d="M441.38,321.16a1.66,1.66,0,1,0-1.66,1.65h0A1.65,1.65,0,0,0,441.38,321.16Z" fill="#fff" stroke="#263238" stroke-linecap="round" stroke-linejoin="round"/><path d="M411.53,346.38a1.26,1.26,0,0,1-.8-.28L402,339.17a1.27,1.27,0,0,1-.49-1,1.3,1.3,0,0,1,.49-1l8.76-6.91a1.29,1.29,0,1,1,1.59,2l-7.47,5.91,7.48,5.91a1.29,1.29,0,0,1-.8,2.3Z" fill="#2f2e41"/><path d="M423.53,346.38a1.29,1.29,0,0,1-.8-2.3l7.47-5.91-7.47-5.91a1.29,1.29,0,1,1,1.6-2l8.75,6.91a1.3,1.3,0,0,1,.49,1,1.27,1.27,0,0,1-.49,1l-8.75,6.93A1.28,1.28,0,0,1,423.53,346.38Z" fill="#2f2e41"/><path d="M416,347.6l-.2,0a1.29,1.29,0,0,1-1.07-1.47l2.65-16.69a1.29,1.29,0,0,1,1.47-1.08,1.3,1.3,0,0,1,1.07,1.48l-2.65,16.69A1.29,1.29,0,0,1,416,347.6Z" fill="#2f2e41"/><path d="M438,354.64h-9.66a.43.43,0,0,1,0-.86H438a.43.43,0,0,1,0,.86Z" fill="#263238"/><path d="M426.53,354.64H414a.43.43,0,0,1,0-.86h12.58a.43.43,0,0,1,0,.86Z" fill="#263238"/><path d="M411.18,354.64h-7.79a.43.43,0,1,1,0-.86h7.79a.43.43,0,0,1,0,.86Z" fill="#263238"/><path d="M401.63,354.64H398a.43.43,0,1,1,0-.86h3.65a.43.43,0,1,1,0,.86Z" fill="#263238"/><path d="M438,360.35h-5.64a.43.43,0,1,1,0-.85H438a.43.43,0,1,1,0,.85Z" fill="#263238"/><path d="M429.54,360.35H404.15a.43.43,0,1,1,0-.85h25.39a.43.43,0,1,1,0,.85Z" fill="#263238"/><path d="M401.13,360.35H398a.43.43,0,1,1,0-.85h3.15a.43.43,0,1,1,0,.85Z" fill="#263238"/><path d="M438,366.07H418.72a.43.43,0,0,1-.42-.43.42.42,0,0,1,.42-.43H438a.43.43,0,0,1,.43.43A.43.43,0,0,1,438,366.07Z" fill="#263238"/><path d="M415.21,366.07H402.64a.43.43,0,0,1-.43-.43.43.43,0,0,1,.43-.43h12.57a.43.43,0,0,1,.43.43A.43.43,0,0,1,415.21,366.07Z" fill="#263238"/><path d="M400.62,366.07H398a.43.43,0,0,1-.43-.43.43.43,0,0,1,.43-.43h2.64a.43.43,0,0,1,.43.43A.43.43,0,0,1,400.62,366.07Z" fill="#263238"/><path d="M438,371.78h-5.39a.43.43,0,0,1,0-.86H438a.43.43,0,1,1,0,.86Z" fill="#263238"/><path d="M429.54,371.78H414.21a.43.43,0,0,1,0-.86h15.33a.43.43,0,0,1,0,.86Z" fill="#263238"/><path d="M411.18,371.78H398a.43.43,0,0,1,0-.86h13.2a.43.43,0,0,1,0,.86Z" fill="#263238"/><path d="M592.83,317.89h46a2.58,2.58,0,0,1,2.58,2.58v54.61a4.63,4.63,0,0,1-4.64,4.63H594.9a4.63,4.63,0,0,1-4.63-4.63h0V320.47A2.58,2.58,0,0,1,592.83,317.89Z" fill="#fff"/><path d="M636.76,380.14H594.9a5.07,5.07,0,0,1-5.06-5.06V320.47a3,3,0,0,1,3-3h46a3,3,0,0,1,3,3v54.61A5.06,5.06,0,0,1,636.76,380.14Zm-43.93-61.82a2.16,2.16,0,0,0-2.13,2.15v54.61a4.21,4.21,0,0,0,4.2,4.2h41.86a4.21,4.21,0,0,0,4.21-4.2V320.47a2.15,2.15,0,0,0-2.15-2.15Z" fill="#2f2e41"/><path d="M592.83,317.89h46a2.58,2.58,0,0,1,2.58,2.58v3.67H590.28v-3.67A2.57,2.57,0,0,1,592.83,317.89Z" fill="#2f2e41"/><path d="M628.91,321.16a1.67,1.67,0,1,0-1.67,1.65h0A1.66,1.66,0,0,0,628.91,321.16Z" fill="#fff" stroke="#263238" stroke-linecap="round" stroke-linejoin="round"/><path d="M634.22,321.16a1.66,1.66,0,1,0-1.66,1.65h0A1.65,1.65,0,0,0,634.22,321.16Z" fill="#fff" stroke="#263238" stroke-linecap="round" stroke-linejoin="round"/><path d="M639.54,321.16a1.67,1.67,0,1,0-3.33,0,1.65,1.65,0,0,0,1.65,1.67h0A1.66,1.66,0,0,0,639.54,321.16Z" fill="#fff" stroke="#263238" stroke-linecap="round" stroke-linejoin="round"/><path d="M609.68,346.38a1.28,1.28,0,0,1-.8-.28l-8.75-6.93a1.27,1.27,0,0,1-.49-1,1.3,1.3,0,0,1,.49-1l8.75-6.91a1.29,1.29,0,1,1,1.6,2L603,338.17l7.48,5.91a1.29,1.29,0,0,1-.8,2.3Z" fill="#2f2e41"/><path d="M621.69,346.38a1.29,1.29,0,0,1-.8-2.3l7.47-5.91-7.47-5.91a1.29,1.29,0,0,1,1.6-2l8.75,6.91a1.3,1.3,0,0,1,.49,1,1.27,1.27,0,0,1-.49,1l-8.75,6.93A1.28,1.28,0,0,1,621.69,346.38Z" fill="#2f2e41"/><path d="M614.16,347.6l-.21,0a1.29,1.29,0,0,1-1.07-1.47l2.65-16.69a1.29,1.29,0,0,1,1.47-1.08,1.3,1.3,0,0,1,1.07,1.48l-2.64,16.69A1.3,1.3,0,0,1,614.16,347.6Z" fill="#2f2e41"/><path d="M636.11,354.64h-9.67a.43.43,0,0,1,0-.86h9.67a.43.43,0,0,1,0,.86Z" fill="#2f2e41"/><path d="M624.68,354.64H612.11a.43.43,0,0,1,0-.86h12.57a.43.43,0,1,1,0,.86Z" fill="#2f2e41"/><path d="M609.34,354.64h-7.79a.43.43,0,1,1,0-.86h7.79a.43.43,0,0,1,0,.86Z" fill="#2f2e41"/><path d="M599.79,354.64h-3.65a.43.43,0,1,1,0-.86h3.65a.43.43,0,1,1,0,.86Z" fill="#2f2e41"/><path d="M636.11,360.35h-5.64a.43.43,0,1,1,0-.85h5.64a.43.43,0,1,1,0,.85Z" fill="#2f2e41"/><path d="M627.7,360.35H602.31a.43.43,0,1,1,0-.85H627.7a.43.43,0,1,1,0,.85Z" fill="#2f2e41"/><path d="M599.28,360.35h-3.14a.43.43,0,1,1,0-.85h3.14a.43.43,0,1,1,0,.85Z" fill="#2f2e41"/><path d="M636.11,366.07H616.89a.43.43,0,0,1-.43-.43.43.43,0,0,1,.43-.43h19.22a.43.43,0,0,1,.43.43A.43.43,0,0,1,636.11,366.07Z" fill="#2f2e41"/><path d="M613.36,366.07H600.8a.43.43,0,0,1-.43-.43.43.43,0,0,1,.43-.43h12.56a.43.43,0,0,1,.43.43A.43.43,0,0,1,613.36,366.07Z" fill="#2f2e41"/><line x1="596.14" y1="365.64" x2="598.79" y2="365.64" fill="none" stroke="#263238" stroke-linecap="round" stroke-linejoin="round"/><path d="M636.11,371.78h-5.39a.43.43,0,0,1,0-.86h5.39a.43.43,0,0,1,0,.86Z" fill="#2f2e41"/><path d="M627.7,371.78H612.36a.43.43,0,0,1,0-.86H627.7a.43.43,0,0,1,0,.86Z" fill="#2f2e41"/><path d="M609.34,371.78h-13.2a.43.43,0,0,1,0-.86h13.2a.43.43,0,0,1,0,.86Z" fill="#2f2e41"/><path d="M490.6,230.86h46a2.58,2.58,0,0,1,2.58,2.58v54.61a4.64,4.64,0,0,1-4.63,4.63H492.67a4.64,4.64,0,0,1-4.63-4.63h0V233.41A2.58,2.58,0,0,1,490.6,230.86Z" fill="#fff"/><path d="M534.54,293.11H492.67a5.07,5.07,0,0,1-5.06-5.06V233.41a3,3,0,0,1,3-3h46a3,3,0,0,1,3,3v54.61A5.07,5.07,0,0,1,534.54,293.11Zm-43.93-61.82a2.16,2.16,0,0,0-2.14,2.12v54.64a4.21,4.21,0,0,0,4.2,4.2h41.87a4.21,4.21,0,0,0,4.2-4.2V233.44a2.15,2.15,0,0,0-2.15-2.15Z" fill="#2f2e41"/><path d="M490.6,230.86h46a2.58,2.58,0,0,1,2.58,2.58v3.67H488.05v-3.67A2.57,2.57,0,0,1,490.6,230.86Z" fill="#2f2e41"/><path d="M526.68,234.1a1.67,1.67,0,1,0-1.66,1.66,1.66,1.66,0,0,0,1.66-1.66Z" fill="#fff" stroke="#263238" stroke-linecap="round" stroke-linejoin="round"/><path d="M532,234.1a1.66,1.66,0,1,0-1.65,1.66A1.65,1.65,0,0,0,532,234.1Z" fill="#fff" stroke="#263238" stroke-linecap="round" stroke-linejoin="round"/><path d="M537.31,234.1a1.67,1.67,0,1,0-3.33,0,1.66,1.66,0,0,0,1.66,1.66h0A1.66,1.66,0,0,0,537.31,234.1Z" fill="#fff" stroke="#263238" stroke-linecap="round" stroke-linejoin="round"/><path d="M507.45,259.33a1.28,1.28,0,0,1-.8-.28l-8.75-6.92a1.3,1.3,0,0,1-.49-1,1.27,1.27,0,0,1,.49-1l8.75-6.93a1.29,1.29,0,0,1,1.6,2l-7.48,5.92,7.48,5.91a1.29,1.29,0,0,1-.8,2.3Z" fill="#2f2e41"/><path d="M519.46,259.33a1.29,1.29,0,0,1-.8-2.3l7.48-5.91-7.48-5.92a1.29,1.29,0,1,1,1.6-2l8.75,6.93a1.27,1.27,0,0,1,.49,1,1.3,1.3,0,0,1-.49,1l-8.75,6.92A1.28,1.28,0,0,1,519.46,259.33Z" fill="#2f2e41"/><path d="M511.93,260.55l-.21,0a1.29,1.29,0,0,1-1.07-1.47l2.65-16.69a1.29,1.29,0,1,1,2.54.4l-2.64,16.69A1.29,1.29,0,0,1,511.93,260.55Z" fill="#2f2e41"/><path d="M533.88,267.59h-9.67a.43.43,0,0,1-.43-.43.43.43,0,0,1,.43-.43h9.67a.43.43,0,0,1,.43.43A.43.43,0,0,1,533.88,267.59Z" fill="#2f2e41"/><path d="M522.45,267.59H509.88a.43.43,0,0,1-.43-.43.43.43,0,0,1,.43-.43h12.57a.43.43,0,0,1,.43.43A.43.43,0,0,1,522.45,267.59Z" fill="#2f2e41"/><path d="M507.11,267.59h-7.79a.43.43,0,0,1-.43-.43.44.44,0,0,1,.43-.43h7.79a.43.43,0,0,1,.43.43A.43.43,0,0,1,507.11,267.59Z" fill="#2f2e41"/><path d="M497.56,267.59h-3.65a.43.43,0,0,1-.43-.43.43.43,0,0,1,.43-.43h3.65a.43.43,0,0,1,.43.43A.43.43,0,0,1,497.56,267.59Z" fill="#2f2e41"/><path d="M533.88,273.3h-5.64a.43.43,0,1,1,0-.85h5.64a.43.43,0,1,1,0,.85Z" fill="#2f2e41"/><path d="M525.47,273.3H500.08a.43.43,0,1,1,0-.85h25.39a.43.43,0,1,1,0,.85Z" fill="#2f2e41"/><path d="M497.06,273.3h-3.15a.43.43,0,1,1,0-.85h3.15a.43.43,0,0,1,0,.85Z" fill="#2f2e41"/><path d="M533.88,279H514.66a.43.43,0,1,1,0-.86h19.22a.43.43,0,1,1,0,.86Z" fill="#2f2e41"/><path d="M511.13,279H498.57a.43.43,0,1,1,0-.86h12.56a.43.43,0,1,1,0,.86Z" fill="#2f2e41"/><path d="M496.56,279h-2.65a.43.43,0,1,1,0-.86h2.65a.43.43,0,1,1,0,.86Z" fill="#2f2e41"/><path d="M533.88,284.72h-5.39a.43.43,0,0,1,0-.86h5.39a.43.43,0,0,1,0,.86Z" fill="#2f2e41"/><path d="M525.47,284.72H510.13a.43.43,0,1,1,0-.86h15.34a.43.43,0,0,1,0,.86Z" fill="#2f2e41"/><path d="M507.11,284.72h-13.2a.43.43,0,0,1,0-.86h13.2a.43.43,0,1,1,0,.86Z" fill="#2f2e41"/><path d="M548,272.3H536.07a.43.43,0,0,1,0-.86H548a.43.43,0,0,1,0,.86Z" fill="#2f2e41"/><circle cx="558.76" cy="271.87" r="10.76" fill="#2f2e41"/><path d="M553.89,278.86a1.67,1.67,0,0,1-1.21-.5,1.72,1.72,0,0,1,0-2.43l10.3-10.3a1.72,1.72,0,0,1,2.43,2.43l-10.3,10.3A1.71,1.71,0,0,1,553.89,278.86Z" fill="#0071f2"/><path d="M564.19,278.86a1.67,1.67,0,0,1-1.21-.5l-10.3-10.3a1.72,1.72,0,0,1,2.43-2.43l10.3,10.3a1.72,1.72,0,0,1-1.22,2.93Z" fill="#0071f2"/><circle cx="533.49" cy="271.87" r="2.58" fill="#2f2e41"/><circle cx="556.23" cy="344.95" r="15.45" transform="translate(-81 494.35) rotate(-45)" fill="#2f2e41"/><path d="M556.75,353.43l-9.24-10.18a2.58,2.58,0,0,1,3.81-3.47l5,5.49,15.22-20.93a2.58,2.58,0,1,1,4.17,3Z" fill="#0071f2"/><rect x="366.46" y="227.28" width="98.83" height="29.29" rx="4.11" fill="#0071f2"/><path d="M461.18,257H370.57a4.55,4.55,0,0,1-4.54-4.54V231.39a4.54,4.54,0,0,1,4.54-4.53h90.61a4.54,4.54,0,0,1,4.54,4.53v21.07A4.55,4.55,0,0,1,461.18,257Zm-90.61-29.29a3.68,3.68,0,0,0-3.68,3.68v21.07a3.68,3.68,0,0,0,3.68,3.68h90.61a3.68,3.68,0,0,0,3.68-3.68V231.39a3.68,3.68,0,0,0-3.68-3.68Z" fill="#2f2e41"/><path d="M381.28,238.26V240c0,2.18-1,3.35-3.17,3.35h-1v5.09H375V234.9h3.14C380.24,234.9,381.28,236.08,381.28,238.26Zm-4.18-1.42v4.59h1c.68,0,1.05-.31,1.05-1.28v-2c0-1-.37-1.28-1.05-1.28Z" fill="#fff"/><path d="M384.4,234.9v10.45c0,1,.43,1.32,1.11,1.32s1.09-.35,1.09-1.32V234.9h2v10.31c0,2.17-1.09,3.44-3.17,3.44s-3.17-1.24-3.17-3.44V234.9Z" fill="#fff"/><path d="M390.07,234.9h2.13v11.61h3.5v1.93h-5.63Z" fill="#fff"/><path d="M396.63,234.9h2.13v11.61h3.5v1.93h-5.63Z" fill="#fff"/><path d="M410.64,248.44a4,4,0,0,1-.2-1.65v-2.13c0-1.26-.43-1.72-1.39-1.72h-.74v5.51h-2.12V234.9h3.21c2.2,0,3.15,1,3.15,3.11v1.07a2.71,2.71,0,0,1-1.39,2.75c1.06.45,1.41,1.47,1.41,2.89v2.08a3.81,3.81,0,0,0,.24,1.64Zm-2.33-11.6V241h.86c.79,0,1.28-.35,1.28-1.43v-1.34c0-1-.33-1.39-1.08-1.39Z" fill="#fff"/><path d="M416.1,240.57H419v1.94H416.1v4h3.66v1.93H414V234.9h5.81v1.94h-3.68Z" fill="#fff"/><path d="M420.92,238.15c0-2.16,1.14-3.43,3.23-3.43s3.23,1.23,3.23,3.43v7a4,4,0,0,1-.41,1.89c.1.25.25.29.6.29h.19v1.9h-.27a1.88,1.88,0,0,1-1.84-.93,4.44,4.44,0,0,1-1.49.25c-2.08,0-3.23-1.24-3.23-3.44Zm2.12,7.18c0,1,.43,1.34,1.11,1.34s1.1-.37,1.1-1.34V238c0-1-.43-1.33-1.1-1.33S423,237,423,238Z" fill="#fff"/><path d="M430.78,234.9v10.45c0,1,.43,1.32,1.11,1.32s1.1-.35,1.1-1.32V234.9h2v10.31c0,2.17-1.09,3.44-3.17,3.44s-3.17-1.24-3.17-3.44V234.9Z" fill="#fff"/><path d="M438.58,240.57h2.92v1.94h-2.92v4h3.68v1.93h-5.8V234.9h5.8v1.94h-3.68Z" fill="#fff"/><path d="M446.44,234.75c2.07,0,3.13,1.24,3.13,3.44v.43h-2V238c0-1-.39-1.33-1.06-1.33s-1.07.37-1.07,1.33c0,2.79,4.16,3.31,4.16,7.18,0,2.16-1.08,3.44-3.17,3.44s-3.18-1.24-3.18-3.44v-.86h2v1c0,1,.43,1.32,1.11,1.32s1.1-.36,1.1-1.32c0-2.79-4.16-3.31-4.16-7.18C443.3,236,444.37,234.75,446.44,234.75Z" fill="#fff"/><path d="M450.19,234.9h6.57v1.94h-2.21v11.6H452.4v-11.6h-2.22Z" fill="#fff"/><g id="f9ad7fbb-30e4-4339-9c5f-351beb5092e7" data-name="freesvgillustration--Icon--inject-30"><circle cx="227.91" cy="236.29" r="48.55" fill="#0071f2"/><path d="M211,202.62a10.19,10.19,0,0,1,9.89,8.2A10,10,0,0,1,214.75,222a.53.53,0,0,0-.4.63v27.17a.56.56,0,0,0,.43.63,10,10,0,1,1-7.48,0,.52.52,0,0,0,.39-.57V222.6a.55.55,0,0,0-.41-.63,10,10,0,0,1,2-19.15C209.81,202.72,210.4,202.68,211,202.62Zm3.36,57A3.35,3.35,0,1,0,211,263a3.3,3.3,0,0,0,3.36-3.26ZM211,209.37a3.35,3.35,0,1,0,3.34,3.35h0a3.26,3.26,0,0,0-3.2-3.34Z" fill="#2f2e41"/><path d="M234.49,216.08v6.5l-9.89-9.91,9.87-9.88v6.57H235c1.53,0,3.07,0,4.59.1a16.79,16.79,0,0,1,14.81,13.88,20,20,0,0,1,.23,3v23.33a.63.63,0,0,0,.45.69,10.06,10.06,0,1,1-7.48,0,.48.48,0,0,0,.36-.55V226.32a9.77,9.77,0,0,0-5.51-9.15,9.55,9.55,0,0,0-4.41-1.11h-3.1Zm20.1,43.52a3.35,3.35,0,1,0-3.36,3.38,3.32,3.32,0,0,0,3.36-3.27v-.11Z" fill="#2f2e41"/></g><path d="M209.63,650.35H193.75c-7.14.81-5.51-4.9-5.51-4.9-.61-18.32,3.7-26.89,3.7-26.89v1.25s-4.66,18.89,0,20.18c0,0,20.7,3.37,19.42-5.17C215.11,651.46,209.63,650.35,209.63,650.35Z" fill="#0071f2"/><path d="M279.48,570s-1.86,4.61,1.59,6.68L296,592.08a10.64,10.64,0,0,0,3.39,2.35A16.59,16.59,0,0,0,317,591.9s14.26-8.51-7.82-20Z" fill="#0071f2"/><polygon points="116.63 527.57 108.35 650.34 115.08 650.34 128.28 527.57 116.63 527.57" fill="#bcbec0"/><polygon points="235.68 650.34 222.48 527.57 233.61 527.57 241.89 650.34 235.68 650.34" fill="#bcbec0"/><rect x="103.13" y="502.36" width="143.74" height="27.8" rx="3.59" fill="#d1d3d4"/><path d="M167.6,502.52s13.77,1,17.09,3.06l.46-16.29S174.64,498.12,167.6,502.52Z" fill="#2f2e41"/><path d="M167.6,502.52s13.77,1,17.09,3.06l.46-16.29S174.64,498.12,167.6,502.52Z" opacity="0.5"/><polygon points="149.8 374.44 178.73 374.44 195.57 406.97 194.2 453.3 169.03 453.37 153.14 411.16 149.8 374.44" fill="#e6e7e8"/><path d="M194.79,372.44s10.23,3.69,19.76,42.27l3,38.59H202l-4.65-25.57L196,392.66l-4.64-14.44Z" fill="#0071f2"/><path d="M194.79,372.44s10.23,3.69,19.76,42.27l3,38.59H202l-4.65-25.57L196,392.66l-4.64-14.44Z" opacity="0.2"/><path d="M154.16,353.05l-.95,11.71-1.87,4,8.9,20.67a19.63,19.63,0,0,0,5.59,7.6c2.75,2.2,6.66,4.11,11.26,2.94,0,0,8.42-1.09,3-16.23l-5.93-13.1-1.24-5.83-.18-3.85S163,364.43,154.16,353.05Z" fill="#f9b499"/><path d="M151.34,368.74s-6.35,5.79-21,3.8a7.27,7.27,0,0,0-7,3c-3.1,4.47-8.46,14.46-16.76,36.72,0,0-14.75,35.1-5.38,41h8.42s-1.64-14.05,16.39-16.39c0,0,2.34-2.1,2.1-8.66a9.85,9.85,0,0,1,2.68-7.5.29.29,0,0,1,.49.2,53.6,53.6,0,0,0,1,9.41s4,18.72.47,28.79c0,0-5.61,14.74-6.08,19.42,0,0,4.68-11,36.51-16.61l6.32-1.41s4.68-21.77,3.51-38.15a288.67,288.67,0,0,0-11.4-30.09Z" fill="#0071f2"/><path d="M158.34,384.61l-7-15.87a18.13,18.13,0,0,1-3.77,2.17l-2.31,10.71,8.89,2.57-8.89,11.94s22.23,12.4,27.85,26.21C173.11,422.34,167,401.84,158.34,384.61Z" fill="#fff"/><path d="M175,372.44h19.84s2.33,20.69,4.48,31.83a22.78,22.78,0,0,0,2,5.92c1.84,3.69,5,12,1.92,21L202,453.3H191.77l-.19-36.1a34.57,34.57,0,0,0-2.76-13.3C184.81,394.52,177.53,377.59,175,372.44Z" fill="#0071f2"/><path d="M180.05,383.72,175,372.44h3.34l9.06,6L185,383.56l9.3,8.37s-3.43,5.85-3.06,20.94C191.27,412.87,190.33,407,180.05,383.72Z" fill="#fff"/><rect x="165.73" y="451.04" width="105.36" height="2.26" fill="#0071f2"/><rect x="165.73" y="451.04" width="105.36" height="2.26" fill="#fff" opacity="0.2"/><path d="M200.13,451l19.19-51a2.77,2.77,0,0,1,2.59-1.79H286a3.72,3.72,0,0,1,3.47,5.06L271.09,451Z" fill="#2f2e41"/><rect x="242.68" y="406.97" width="21.49" height="5.9" rx="1.25" fill="#fff"/><path d="M126.77,478.51s-7.8,21.15,9,26.29c0,0,14.67,6.64,33.23-2.95a41.28,41.28,0,0,0,7.26-4.9l3.27-2.7a103,103,0,0,0,10.72-10.06c2.9-3.19,8.26-7.32,15.6-5.68,0,0,15.74,1.89,11.77,28.53l45,49.1,20.91-17.79-62-76.67-51.93-1.19S132.31,466.42,126.77,478.51Z" fill="#2f2e41"/><path d="M185.15,489.29s-2.76,74,1.92,97.74c1.88.32,27.15,0,27.15,0l3.35-80s5.48-25.14-11.77-28.53c0,0-8.74-3.08-15.6,5.68Z" fill="#2f2e41"/><path d="M185.15,489.29s-2.76,74,1.92,97.74c1.88.32,27.15,0,27.15,0l3.35-80s5.48-25.14-11.77-28.53c0,0-8.74-3.08-15.6,5.68Z" opacity="0.2"/><path d="M191.94,640c-4.66-1.29,0-20.18,0-20.18V587.17l16.82-.09.26,13.57c1.55,5.7-.26,9.07-.26,9.07-1.55,5.68,2.6,25.1,2.6,25.1C212.64,643.36,191.94,640,191.94,640Z" fill="#f9b499"/><path d="M267.09,552.31s5.93,6.47,7.08,10.61c0,0,1,5.66,5.31,7.12a6.7,6.7,0,0,1,2.23,1.41L294,582.24a15.58,15.58,0,0,0,15.18-1.15s6-5.06,0-9.2l-11.73-10.35-17.19-20.4Z" fill="#f9b499"/><rect x="32.53" y="453.3" width="338.7" height="8.38" rx="1.77" fill="#d1d3d4"/><polygon points="57.2 461.68 44.09 650.34 50.65 650.42 71.08 461.68 57.2 461.68" fill="#bcbec0"/><polygon points="332.05 461.68 353.04 650.42 358.29 650.42 345.17 461.68 332.05 461.68" fill="#bcbec0"/><path d="M109.68,453.24l7.5.06s4.88-10.82,14.15-15.07l-5.26-1.38S108.84,437.91,109.68,453.24Z" fill="#e6e7e8"/><path d="M117.18,453.3s25.27.7,32.72-2.26L166,448a3.84,3.84,0,0,1,1.51,0c2.81.55,13.19,2.28,19.69-1.08a1.38,1.38,0,0,1,1.4,0c2.23,1.43,9.36,5.66,11.93,3L202,446a2.11,2.11,0,0,0-.35-2.09c-2.34-2.79-9.61-10.56-16.94-9A66.78,66.78,0,0,0,172,438.75a6.83,6.83,0,0,1-3,.63l-37.64-1.15A33.72,33.72,0,0,0,117.18,453.3Z" fill="#f9b499"/><path d="M186.31,441.72s6,.11,13.82,7.81" fill="none" stroke="#f7a48b" stroke-miterlimit="10"/><path d="M186.74,437.45s4.51-1.85,14.93,9.5" fill="none" stroke="#f7a48b" stroke-miterlimit="10"/><path d="M154.16,353.05l-.52,6.5s9.69,6.87,17.19,1.79l-15.36-10.6Z" fill="#f7a48b"/><ellipse cx="166.81" cy="331.44" rx="20.14" ry="30.2" transform="translate(-37.69 21.83) rotate(-6.73)" fill="#f9b499"/><path d="M154.62,317.49a16.26,16.26,0,0,0-3,7.25s.59,6-2,8.07l-3-.46s.84,7.17,2.22,10.27c0,0,.91,3.94,5.34,10.43l-.95,11.71s-21.22,1.17-21.68-12.24a19.9,19.9,0,0,1,1.31-10.41,18.14,18.14,0,0,0,1.24-6.23c.31-8.45,2.14-28.13,12.43-30.49,0,0,16.07-18.88,41.81,2.66,0,0,7.49,7.26,11.24,29.3,0,0,5,22.24-14.51,27.44,0,0-8.12,1.66-12.17,0l-.18-3.85s18.74-5.7,13.28-36.63c0,0-4-5.65-15.45-2.84C170.53,321.47,162.73,323.49,154.62,317.49Z" fill="#2f2e41"/><ellipse cx="147.57" cy="334.54" rx="4.18" ry="5.56" transform="translate(-61.43 34.52) rotate(-11.06)" fill="#f9b499"/><circle id="b7632e4d-f1fe-4b51-94d3-4abae445e44d" data-name="SVGID" cx="685.27" cy="169.06" r="123.86" fill="#0071f2" opacity="0.17"/><g clip-path="url(#b0f48621-f80a-44da-b65b-295fbed46f18)"><path d="M589.22,294.13c1,0,9.38-19.8,9.38-19.8l16.33,4.86-11.11,15.64Z" fill="#f9b499"/><rect x="727.08" y="275.7" width="8.69" height="19.85" transform="translate(-31.58 100.21) rotate(-7.67)" fill="#a7a9ac"/><polygon points="667.74 273.63 666 294.82 674 294.82 676.08 274.68 667.74 273.63" fill="#a7a9ac"/><rect x="692.76" y="282.67" width="8.69" height="13.55" fill="#a7a9ac"/><rect x="701.09" y="281.97" width="8.69" height="14.09" fill="#939598"/><ellipse cx="705.09" cy="267.73" rx="42.21" ry="19.11" fill="#bcbec0"/><rect x="692.12" y="103.66" width="7.9" height="10.57" fill="#2f2e41"/><path d="M683.83,101.48l0,14.63a25.52,25.52,0,0,1,6-2.9V107A18,18,0,0,1,683.83,101.48Z" fill="#2f2e41"/><path d="M689.91,113.21s-16,4.13-14.94,21.56l-2.87,38.61,9.26,21.19s4.2-7.73,4-22.07Z" fill="#0071f2"/><path d="M689.91,113.21s-16,4.13-14.94,21.56l-2.87,38.61,9.26,21.19s4.2-7.73,4-22.07Z" opacity="0.2"/><path d="M712.4,85.24c.3,0,6.14.44,6.07.54a28.64,28.64,0,0,0-.3,3.44,18.17,18.17,0,0,1-.14,3.65c-.2.06-5.8.64-5.66.13S712.4,85.24,712.4,85.24Z" fill="#2f2e41"/><path id="ab295bca-22bb-45c0-b2a6-b27fb81d2ece" data-name="SVGID" d="M689.91,113.21s-22.82,34.6-11,50.1c0,0,12.92,15.22,13.21,24.41,0,1,33,2.87,39.62-5.46,0,0-.29-13.49,3.73-17.8,0,0-12.06-36.18,8-48.24l-5.17-3.71-13.2-13.23Z" fill="#0071f2"/><g clip-path="url(#fc936276-b053-4a0d-97f1-1194530e3327)"><path d="M676.54,142.68s7.93,0,13.37,4.42a13.66,13.66,0,0,0,13.29,2.23c.49-.18,1-.39,1.53-.61,0,0,15.86-8.56,27.94,4,0,0,13.09,0,13.09.75s-11.58,20.64-11.58,20.64l-1,11.83-30.7,8.31-16.36-4-10.32-24.67S670.75,148.72,676.54,142.68Z" fill="#fff" opacity="0.2"/></g><path d="M696.66,109.19s-6,12.92-1.29,13.06c0,0,1.72,1.58,7-6,0,0,2,4.71,5.57,6.87a5.79,5.79,0,0,0,6.57-.52c.48-.38,1-.84,1.57-1.37a18,18,0,0,0,5-9.71c1.2-6.6,2.72-20.37-5.53-20.07Z" fill="#e6e7e8"/><path d="M713.68,86.86a35.5,35.5,0,0,0,1.86,4.56,4.27,4.27,0,0,1,.43,1.52c.85,13.23-11.27,19.84-11.27,19.84C699.82,114.5,700,109,700,109Z" fill="#f7a48b"/><path d="M717.05,86.94s1.78,26.48,1,39a23.77,23.77,0,0,1-1.8,7.6c-2.5,6-8.17,20.71-6.85,28a1.31,1.31,0,0,0,2,.83c4.07-2.75,14.92-11.53,14.57-27.05,0,0,2.51-18.36,2.83-28.63L724.22,91.1l-2.72-10S715.32,82.63,717.05,86.94Z" fill="#2f2e41"/><path d="M717.05,86.94s1.78,26.48,1,39a23.77,23.77,0,0,1-1.8,7.6c-2.5,6-8.17,20.71-6.85,28a1.31,1.31,0,0,0,2,.83c4.07-2.75,14.92-11.53,14.57-27.05,0,0,2.51-18.36,2.83-28.63L724.22,91.1l-2.72-10S715.32,82.63,717.05,86.94Z" opacity="0.2"/><path d="M689.91,107s0,11.34-2.15,15.36c0,0-16.22,26.7-3.16,38.33,0,0-.57-16.94,3.88-25.13,0,0,6.17-10.19,4.88-27.13l.57-3.44Z" fill="#2f2e41"/><path d="M689.91,107s0,11.34-2.15,15.36c0,0-16.22,26.7-3.16,38.33,0,0-.57-16.94,3.88-25.13,0,0,6.17-10.19,4.88-27.13l.57-3.44Z" opacity="0.2"/><polygon points="666.51 162.74 669.38 162.93 685.65 204.47 683.55 204.47 666.51 162.74" fill="#2f2e41"/><path d="M598.6,274.33l25.71-61.5s.7-14.24,30.92-6.25L674.69,209l16.33.35-.58-6.23,1.63-15.41s30.27,3.07,39.62-5.46l14.92,36.13s11.46,29.19-3.83,42c0,0-7.29,4.17-25.36,2.78l-59.75-.7,10.07,31.27H628.83l-2.08-12.85S620.49,291.7,598.6,274.33Z" fill="#2f2e41"/><path d="M634.74,235.07s-7,0-7,7.29l-1,38.57-1.39-38.57S623.62,234.72,634.74,235.07Z" opacity="0.2"/><polygon points="657.67 262.51 652.46 250.35 661.84 262.51 657.67 262.51" opacity="0.2"/><polygon points="655.58 239.93 699.01 262.86 717.42 263.21 655.58 239.93" opacity="0.2"/><path d="M707.57,202.93s29,3.3,36.26,8.51l-5.21-13.2-26.76,1Z" opacity="0.2"/><polygon points="694.14 209.01 730.97 221.87 716.73 212.14 736.53 213.18 719.16 206.58 702.83 208.32 694.14 209.01" opacity="0.2"/><ellipse cx="696.32" cy="87.82" rx="17.38" ry="21.55" transform="translate(-4.76 120.37) rotate(-9.85)" fill="#f9b499"/><path d="M685.85,69.82S690.15,84,711,82l6.44-3.83a92.89,92.89,0,0,0,11.34,28.52l9.51,5.82s-9.51-11.34-17.17-36.8l-4.29-13.49s-4-12-13.19-9.81c0,0-4.6-5.83-12.88,1.22,0,0-16.18,14.72-14.25,23.1a4.37,4.37,0,0,1,.13,1c0,1.77-.07,7.94,2.27,11.06A24,24,0,0,1,685.85,69.82Z" fill="#2f2e41"/><g opacity="0.2"><path d="M685.85,69.58c.14-2.16,1.42-4,2.68-5.73A32.12,32.12,0,0,1,693,59.28c.83-.66,1.64-1.34,2.5-2s1.71-1.26,2.63-1.79,1.79-1.13,2.71-1.65,1.86-1,2.81-1.47c-1.68,1.29-3.41,2.48-5.08,3.75s-3.33,2.54-4.93,3.88a52.4,52.4,0,0,0-4.51,4.3,18.81,18.81,0,0,0-1.93,2.44A8.33,8.33,0,0,0,685.85,69.58Z"/></g><ellipse cx="715.14" cy="82" rx="4.14" ry="5.37" fill="#f9b499"/><path d="M614.07,204.27l-15.45-40.08a1.2,1.2,0,0,1,1.12-1.64l66.77.19,17,41.73Z" fill="#0071f2"/><path d="M614.07,204.27s1.53,4.41,5.35,4.6l83.27.57s1.91-.57,1.15-5.17l-18.19.2Z" fill="#0071f2"/><path d="M614.07,204.27s1.53,4.41,5.35,4.6l83.27.57s1.91-.57,1.15-5.17l-18.19.2Z" opacity="0.2"/><path d="M743.46,116.22s8.61,2.87,9.19,19.81l2,51.69s1.43,6.6-9.19,8.9c0,0-14.93,5.17-25.84,4.88l-12.06,1.43s3.16-6.89-1.43-9.47l4-.11a22.28,22.28,0,0,0,11.77-3.74,120.3,120.3,0,0,1,16.39-9.36,33.53,33.53,0,0,0-2.87-15.79S723.08,128,743.46,116.22Z" fill="#0071f2"/><path d="M743.46,116.22s8.61,2.87,9.19,19.81l2,51.69s1.43,6.6-9.19,8.9c0,0-14.93,5.17-25.84,4.88l-12.06,1.43s3.16-6.89-1.43-9.47l4-.11a22.28,22.28,0,0,0,11.77-3.74,120.3,120.3,0,0,1,16.39-9.36,33.53,33.53,0,0,0-2.87-15.79S723.08,128,743.46,116.22Z" opacity="0.2"/><path d="M707.58,194.26l-11.89-9.1a3.27,3.27,0,0,0-.79-.46c-1.75-.71-8.24-3-10.49,1.5,0,0-2.09,3.82-.14,3.82a8.6,8.6,0,0,0,3.45-2.8,3.19,3.19,0,0,1,2.51-1.2,5.87,5.87,0,0,1,2.4.44s1.07,1.43-1.25,2.14c0,0-8.71,3.73-4.44,8a1.37,1.37,0,0,0,1.12,1.79,2.81,2.81,0,0,0,2.23-.56c1-.72,2.65-1.72,3.41-.34,0,0-4.38,2.5-3,4.42a.89.89,0,0,0,1,.35,4.22,4.22,0,0,0,2-1.82.73.73,0,0,1,.94-.21c.62.34,2.13.63,5.8-.25,0,0,3.54,4.53,7.72,3.1a3,3,0,0,0,1.93-2.36C710.42,198.86,710.44,195.79,707.58,194.26Z" fill="#f9b499"/><path d="M688.17,195.73a6,6,0,0,1,5.5-3.18" fill="none" stroke="#f7a48b" stroke-miterlimit="10" stroke-width="0.5"/></g><g id="bef5f171-d47f-4d6a-8994-1270bac12785" data-name="freesvgillustration--Plant--inject-88"><polyline points="444.81 623.79 435.82 567.3 504.77 568.15 497.98 623.06" fill="#2f2e41"/><path d="M474.57,557a11.74,11.74,0,0,0,11.49,1,12.4,12.4,0,0,0,6.26-9.9,14.13,14.13,0,0,0-11.49-.57,13.84,13.84,0,0,0-7.59,8.5" fill="#0071f2"/><path d="M506.09,569.16a11.74,11.74,0,0,0,11.49,1,12.38,12.38,0,0,0,6.26-9.89,14,14,0,0,0-11.49-.58,13.87,13.87,0,0,0-7.61,8.5" fill="#0071f2"/><path d="M488.4,542a11.74,11.74,0,0,0,9,7.11,12.4,12.4,0,0,0,10.68-4.83,13.25,13.25,0,0,0-17.94-5.41,12.54,12.54,0,0,0-2.31,1.57" fill="#0071f2"/><path d="M499.9,556.06a11.81,11.81,0,0,0-10.3,5.1,12.38,12.38,0,0,0-.23,11.7,13.23,13.23,0,0,0,12.18-16.61" fill="#0071f2"/><path d="M511,578.3a11.76,11.76,0,0,0,.28,11.49A12.35,12.35,0,0,0,521.8,595a14,14,0,0,0-.66-11.42c-1.81-3.3-5.07-4.92-9.16-5.86" fill="#0071f2"/><path d="M529.34,580.92a8,8,0,0,0-2.73-1.74,11.87,11.87,0,0,0-3.74-.66,45.58,45.58,0,0,0-5.09.3,14.73,14.73,0,0,1-6.26-.54,9.55,9.55,0,0,1-5.17-5,28.12,28.12,0,0,1-2.23-7.63,22.37,22.37,0,0,0-2.65-7.82,28.11,28.11,0,0,0-5.85-5.93,28.45,28.45,0,0,1-5.57-5.66,18.74,18.74,0,0,1-2.79-12.92,18.16,18.16,0,0,1,3.39-8.34,14.36,14.36,0,0,1,1.65-1.83,4.35,4.35,0,0,1,.66-.56,3.39,3.39,0,0,1-.54.66,17.33,17.33,0,0,0-1.52,1.9,18.9,18.9,0,0,0-.29,20.76,28.5,28.5,0,0,0,5.48,5.49,27.64,27.64,0,0,1,6,6.08,22.4,22.4,0,0,1,2.76,8.09A27.71,27.71,0,0,0,507,573a9,9,0,0,0,4.77,4.73,14.73,14.73,0,0,0,6,.59,42.06,42.06,0,0,1,5.14-.19,11.76,11.76,0,0,1,3.84.8,6.26,6.26,0,0,1,2.06,1.34,3.42,3.42,0,0,1,.44.49C529.31,580.85,529.35,580.9,529.34,580.92Z" fill="#0071f2"/><path d="M529.34,580.92a8,8,0,0,0-2.73-1.74,11.87,11.87,0,0,0-3.74-.66,45.58,45.58,0,0,0-5.09.3,14.73,14.73,0,0,1-6.26-.54,9.55,9.55,0,0,1-5.17-5,28.12,28.12,0,0,1-2.23-7.63,22.37,22.37,0,0,0-2.65-7.82,28.11,28.11,0,0,0-5.85-5.93,28.45,28.45,0,0,1-5.57-5.66,18.74,18.74,0,0,1-2.79-12.92,18.16,18.16,0,0,1,3.39-8.34,14.36,14.36,0,0,1,1.65-1.83,4.35,4.35,0,0,1,.66-.56,3.39,3.39,0,0,1-.54.66,17.33,17.33,0,0,0-1.52,1.9,18.9,18.9,0,0,0-.29,20.76,28.5,28.5,0,0,0,5.48,5.49,27.64,27.64,0,0,1,6,6.08,22.4,22.4,0,0,1,2.76,8.09A27.71,27.71,0,0,0,507,573a9,9,0,0,0,4.77,4.73,14.73,14.73,0,0,0,6,.59,42.06,42.06,0,0,1,5.14-.19,11.76,11.76,0,0,1,3.84.8,6.26,6.26,0,0,1,2.06,1.34,3.42,3.42,0,0,1,.44.49C529.31,580.85,529.35,580.9,529.34,580.92Z" fill="#0071f2"/><path d="M397.69,586.7a17.45,17.45,0,0,0-16.5-18.34,17.69,17.69,0,0,0-7.1,1.11,29.08,29.08,0,0,0,23,17" fill="#0071f2"/><path d="M393.14,589.1c-3.37,3.71-3.16,9.67-.75,14.06s6.57,7.51,10.73,10.3a22.65,22.65,0,0,0-9.75-25.71" fill="#0071f2"/><path d="M409.48,571.74a20.11,20.11,0,0,0,22,18l.85-.1c-1.3-5.43-3.47-10.89-7.67-14.56s-10.79-5.06-15.42-2" fill="#0071f2"/><path d="M409.34,566.21c-.85-4.94-5.75-8.51-10.7-9s-9.91,1.66-13.9,4.68a18.11,18.11,0,0,0,24.66,2.44" fill="#0071f2"/><path d="M383.68,608.19c-4.74,4-5.92,11.24-3.95,17.14s6.58,10.61,11.75,14.07c2-5.86,3.24-12.13,2.19-18.23s-4.72-12-10.38-14.46" fill="#0071f2"/><path d="M408.61,552.37a14.55,14.55,0,0,1,23-1.35,12.56,12.56,0,0,1-22.69.58" fill="#0071f2"/><path d="M414.41,538.14a18.92,18.92,0,0,1-23.61-12.62,19.59,19.59,0,0,1-.52-2.17,43,43,0,0,1,11.39.16,18.52,18.52,0,0,1,10.05,5,10,10,0,0,1,2.64,9.66" fill="#0071f2"/><path d="M425.35,534.45a15.49,15.49,0,0,1-2.17-21.78,15.07,15.07,0,0,1,2.07-2.08A32.4,32.4,0,0,1,432,525a12,12,0,0,1,0,6,5.47,5.47,0,0,1-4.16,3.9" fill="#0071f2"/><g opacity="0.4"><path d="M397.69,586.7a17.45,17.45,0,0,0-16.5-18.34,17.69,17.69,0,0,0-7.1,1.11,29.08,29.08,0,0,0,23,17"/></g><g opacity="0.4"><path d="M393.14,589.1c-3.37,3.71-3.16,9.67-.75,14.06s6.57,7.51,10.73,10.3a22.65,22.65,0,0,0-9.75-25.71"/></g><g opacity="0.4"><path d="M409.48,571.74a20.11,20.11,0,0,0,22,18l.85-.1c-1.3-5.43-3.47-10.89-7.67-14.56s-10.79-5.06-15.42-2"/></g><g opacity="0.4"><path d="M409.34,566.21c-.85-4.94-5.75-8.51-10.7-9s-9.91,1.66-13.9,4.68a18.11,18.11,0,0,0,24.66,2.44"/></g><g opacity="0.4"><path d="M383.68,608.19c-4.74,4-5.92,11.24-3.95,17.14s6.58,10.61,11.75,14.07c2-5.86,3.24-12.13,2.19-18.23s-4.72-12-10.38-14.46"/></g><g opacity="0.4"><path d="M408.61,552.37a14.55,14.55,0,0,1,23-1.35,12.56,12.56,0,0,1-22.69.58"/></g><g opacity="0.4"><path d="M414.41,538.14a18.92,18.92,0,0,1-23.61-12.62,19.59,19.59,0,0,1-.52-2.17,43,43,0,0,1,11.39.16,18.52,18.52,0,0,1,10.05,5,10,10,0,0,1,2.64,9.66"/></g><g opacity="0.4"><path d="M425.35,534.45a15.49,15.49,0,0,1-2.17-21.78,15.07,15.07,0,0,1,2.07-2.08A32.4,32.4,0,0,1,432,525a12,12,0,0,1,0,6,5.47,5.47,0,0,1-4.16,3.9"/></g><path d="M444.26,569.13a1.28,1.28,0,0,1,0-.39,7.05,7.05,0,0,1,.07-1.13c0-1,.16-2.47.19-4.31A39,39,0,0,0,442,547.63a23.93,23.93,0,0,0-6.3-8.87,16.87,16.87,0,0,0-11.49-4.22,14.41,14.41,0,0,0-6.46,1.62,12.81,12.81,0,0,0-5,4.77c-2.5,4.13-3.13,9.3-2.87,14.36s.91,10.22.35,15.16a23.82,23.82,0,0,1-1.9,7A14.58,14.58,0,0,1,404,583a21.62,21.62,0,0,1-5.91,3,29.75,29.75,0,0,0-5.57,2.53,20,20,0,0,0-7.31,8,19.3,19.3,0,0,0-2.11,8.72,20.51,20.51,0,0,0,1.1,6.73,25,25,0,0,0,2.61,5.25,2.2,2.2,0,0,1-.25-.29,9.82,9.82,0,0,1-.66-.93,17.56,17.56,0,0,1-2-3.92,20.24,20.24,0,0,1-1.25-6.84,19.59,19.59,0,0,1,2-9,20.82,20.82,0,0,1,7.45-8.26c3.42-2.26,7.92-2.87,11.39-5.55s5.3-7.4,5.83-12.14-.17-9.85-.36-15,.39-10.52,3-14.82a13.5,13.5,0,0,1,5.3-5,15,15,0,0,1,6.77-1.68A17.42,17.42,0,0,1,436,538.23a24.24,24.24,0,0,1,6.39,9.13,32.9,32.9,0,0,1,2.17,8.95,48.59,48.59,0,0,1,.19,6.93,35.3,35.3,0,0,1-.33,4.38,5.85,5.85,0,0,1-.15,1.12A1.28,1.28,0,0,1,444.26,569.13Z" fill="#0071f2"/><g opacity="0.4"><path d="M444.26,569.13a1.28,1.28,0,0,1,0-.39,7.05,7.05,0,0,1,.07-1.13c0-1,.16-2.47.19-4.31A39,39,0,0,0,442,547.63a23.93,23.93,0,0,0-6.3-8.87,16.87,16.87,0,0,0-11.49-4.22,14.41,14.41,0,0,0-6.46,1.62,12.81,12.81,0,0,0-5,4.77c-2.5,4.13-3.13,9.3-2.87,14.36s.91,10.22.35,15.16a23.82,23.82,0,0,1-1.9,7A14.58,14.58,0,0,1,404,583a21.62,21.62,0,0,1-5.91,3,29.75,29.75,0,0,0-5.57,2.53,20,20,0,0,0-7.31,8,19.3,19.3,0,0,0-2.11,8.72,20.51,20.51,0,0,0,1.1,6.73,25,25,0,0,0,2.61,5.25,2.2,2.2,0,0,1-.25-.29,9.82,9.82,0,0,1-.66-.93,17.56,17.56,0,0,1-2-3.92,20.24,20.24,0,0,1-1.25-6.84,19.59,19.59,0,0,1,2-9,20.82,20.82,0,0,1,7.45-8.26c3.42-2.26,7.92-2.87,11.39-5.55s5.3-7.4,5.83-12.14-.17-9.85-.36-15,.39-10.52,3-14.82a13.5,13.5,0,0,1,5.3-5,15,15,0,0,1,6.77-1.68A17.42,17.42,0,0,1,436,538.23a24.24,24.24,0,0,1,6.39,9.13,32.9,32.9,0,0,1,2.17,8.95,48.59,48.59,0,0,1,.19,6.93,35.3,35.3,0,0,1-.33,4.38,5.85,5.85,0,0,1-.15,1.12A1.28,1.28,0,0,1,444.26,569.13Z"/></g><path d="M544.67,556.81a14.84,14.84,0,0,0,1-5.06,12.74,12.74,0,0,0-1.35-5.84,12.22,12.22,0,0,0-5.62-5.43,12.67,12.67,0,0,0-4.44-1.19,14.55,14.55,0,0,0-4.95.58c-3.37.89-6.72,2.87-10.73,3.6a12.64,12.64,0,0,1-6.2-.14,9.47,9.47,0,0,1-5.07-4.05c-2.41-3.74-3.08-8.43-6-11.86a11.62,11.62,0,0,0-5.44-3.56,15.07,15.07,0,0,0-6.36-.65,16.24,16.24,0,0,0-10.59,5.5,24.62,24.62,0,0,0-5.25,9.72,29.31,29.31,0,0,0-1.18,9.63,104.19,104.19,0,0,0,1.8,14.09L475,566a5.38,5.38,0,0,0,.16,1,2,2,0,0,1,0,.35.92.92,0,0,0-.1-.33l-.23-1c-.19-.93-.46-2.2-.79-3.79a96.21,96.21,0,0,1-2-14.13,29.63,29.63,0,0,1,1.11-9.82,25.2,25.2,0,0,1,5.34-10,19.09,19.09,0,0,1,4.84-3.88,16.72,16.72,0,0,1,12.85-1.24,12.6,12.6,0,0,1,5.74,3.79c3.08,3.7,3.74,8.4,6,12a8.59,8.59,0,0,0,4.66,3.76,11.87,11.87,0,0,0,5.86.16c3.85-.73,7.18-2.63,10.7-3.52a15.23,15.23,0,0,1,5.16-.56,12.93,12.93,0,0,1,4.62,1.3,12.42,12.42,0,0,1,7,11.74,11.58,11.58,0,0,1-.75,3.82A5.57,5.57,0,0,1,544.67,556.81Z" fill="#0071f2"/><path d="M504.34,531.78a13.42,13.42,0,0,0,12.3.81,12.42,12.42,0,0,0,6.26-9.9,14.14,14.14,0,0,0-11.48-.59,13.94,13.94,0,0,0-7.6,8.5" fill="#0071f2"/><path d="M517.42,543.64a13.34,13.34,0,0,0,5.74,10.91,12.39,12.39,0,0,0,11.72.21,14.1,14.1,0,0,0-5.46-10.06,13.91,13.91,0,0,0-11.21-2.05" fill="#0071f2"/><path d="M540.09,541a13.44,13.44,0,0,0,12.32-.51,12.41,12.41,0,0,0,5.17-10.5,13.23,13.23,0,0,0-17.28,7.16,13.77,13.77,0,0,0-.8,2.73" fill="#0071f2"/><path d="M485.3,523.93c-3.31-2.87-5.53-7.86-4.9-11.6a12.4,12.4,0,0,1,7.61-8.92,13.23,13.23,0,0,1-1.94,20.52" fill="#0071f2"/><path d="M396.75,507.69a.79.79,0,0,1,.12-.3l.46-.85c.42-.73,1.07-1.8,2-3.12a33.49,33.49,0,0,1,9.86-9.33,24.55,24.55,0,0,1,8.86-3.25A21.77,21.77,0,0,1,428.81,492a17.51,17.51,0,0,1,9.2,7.52c2.11,3.69,2.79,8,4,12.18a22.27,22.27,0,0,0,2.57,5.74,17.76,17.76,0,0,0,4.38,4.31c1.64,1.21,3.36,2.31,4.93,3.58a21.49,21.49,0,0,1,4,4.3,26.88,26.88,0,0,1,4.1,10,35,35,0,0,1,.54,9.42,70.82,70.82,0,0,1-2.4,13.39c-.41,1.55-.76,2.75-1,3.56a7.9,7.9,0,0,1-.4,1.22A8,8,0,0,1,459,566c.2-.87.49-2.08.85-3.59A78.23,78.23,0,0,0,462,549a35.44,35.44,0,0,0-.64-9.25,25.94,25.94,0,0,0-4.06-9.75,20.48,20.48,0,0,0-3.88-4.17c-1.52-1.24-3.24-2.32-4.91-3.55a18.48,18.48,0,0,1-4.56-4.48,22.39,22.39,0,0,1-2.66-6c-1.25-4.22-1.94-8.49-4-12a16.88,16.88,0,0,0-8.81-7.27,21.6,21.6,0,0,0-10.42-1.15,23.73,23.73,0,0,0-8.62,3.09,34.49,34.49,0,0,0-9.9,9.05c-1,1.28-1.64,2.31-2.1,3C397.28,507,397,507.33,396.75,507.69Z" fill="#0071f2"/><path d="M451,522.88c-1.14-1.06-1.7-.32-3.23,0a9.54,9.54,0,0,0-4.14,2.07,17.46,17.46,0,0,0-5.65,18.3,13.61,13.61,0,0,0,12.43-20.47" fill="#0071f2"/><path d="M404.05,501.54c-.57-1.43-1.43-1-2.87-1.43a9.39,9.39,0,0,0-4.62.08,17.45,17.45,0,0,0-12.92,14.09,13.62,13.62,0,0,0,19.95-13" fill="#0071f2"/><path d="M461.23,551.74a15.8,15.8,0,0,0-22.29-1.45,15.62,15.62,0,0,0-2.41,2.66,19.42,19.42,0,0,0,12.81,5,19.88,19.88,0,0,0,12.93-5.21" fill="#0071f2"/><path d="M457.38,530.19a15.94,15.94,0,0,0,16.09-19A14.37,14.37,0,0,0,456.85,530" fill="#0071f2"/><path d="M440.93,504.84a15.92,15.92,0,0,0,20.62-9.09,16.09,16.09,0,0,0,.92-3.48,14.28,14.28,0,0,0-21.93,12.24" fill="#0071f2"/><path d="M435.36,496.57a15.93,15.93,0,0,0-21.54,12.58,14.36,14.36,0,0,0,22-12.22" fill="#0071f2"/><path d="M428.78,492.11a15.92,15.92,0,0,0,8.47-23.41,14.36,14.36,0,0,0-9,23.45" fill="#0071f2"/><path d="M411.88,492.93A15.93,15.93,0,0,0,399,471.69a14.28,14.28,0,0,0,12.68,21.68" fill="#0071f2"/><polygon points="434.93 617.25 440.21 623.79 505.11 623.79 509.54 617.25 434.93 617.25" fill="#2f2e41"/><polygon points="434.93 617.25 440.21 623.79 505.11 623.79 509.54 617.25 434.93 617.25" opacity="0.2"/></g></svg>